<?xml version="1.0" standalone="no"?>
<!DOCTYPE svg PUBLIC "-//W3C//DTD SVG 20010904//EN"
 "http://www.w3.org/TR/2001/REC-SVG-20010904/DTD/svg10.dtd">
<svg version="1.0" xmlns="http://www.w3.org/2000/svg"
 width="600.000000pt" height="600.000000pt" viewBox="0 0 600.000000 600.000000"
 preserveAspectRatio="xMidYMid meet">
<metadata>
Created by potrace 1.11, written by Peter Selinger 2001-2013
</metadata>
<g transform="translate(0.000000,600.000000) scale(0.100000,-0.100000)"
fill="#000000" stroke="none">
<path d="M0 5061 l0 -940 37 15 c54 23 178 9 216 -24 16 -14 19 -14 27 -2 6 8 10 21 10 28 0 6 5 12 10 12 6 0 10 -6 11 -12 0 -7 5 -2 10 11 7 19 6 28 -6 40 -13 13 -17 13 -24 3 -4 -7 -14 -12 -21 -10 -7 2 -17 -8 -21 -22 -6 -22 -7 -20 -8 13 -1 27 3 37 14 37 8 0 15 7 15 15 0 8 -4 15 -10 15 -5 0 -7 7 -4 15 4 8 13 15 21 15 13 0 13 3 3 15 -10 12 -9 16 4 21 9 3 13 10 10 15 -3 5 2 9 10 9 9 0 23 11 32 25 9 14 25 25 35 25 23 0 69 21 69 32 0 4 5 8 10 8 17 0 11 -30 -7 -37 -23 -9 -37 -23 -46 -46 -5 -14 -3 -16 12 -8 12 7 21 7 28 0 6 -6 14 -5 23 6 16 19 40 20 40 0 0 -8 5 -15 10 -15 6 0 8 10 5 23 -4 15 1 30 16 46 20 21 23 22 38 6 15 -15 15 -17 -1 -29 -24 -17 -23 -38 2 -54 11 -7 20 -19 20 -28 0 -11 8 -15 28 -14 42 3 43 2 27 -29 -8 -17 -12 -37 -9 -45 4 -11 1 -16 -10 -16 -14 0 -15 -4 -6 -20 6 -11 16 -18 23 -14 7 3 1 -3 -12 -14 -17 -14 -20 -21 -11 -27 7 -4 15 -4 19 1 3 5 16 10 28 11 24 3 50 -21 34 -31 -6 -4 -8 -13 -5 -20 3 -8 -5 -21 -17 -30 -27 -18 -20 -32 9 -17 22 12 33 5 25 -15 -3 -8 0 -14 6 -14 6 0 10 3 10 8 -4 23 4 32 29 31 15 0 21 -3 14 -6 -15 -6 -16 -43 -1 -43 5 0 8 -4 5 -9 -10 -16 44 -22 107 -11 59 11 167 40 302 81 33 10 83 21 110 25 76 10 87 21 30 29 -70 10 -254 87 -339 142 -292 189 -486 562 -486 939 0 106 23 192 46 173 8 -6 14 -28 14 -49 0 -21 3 -51 6 -68 6 -28 8 -29 37 -21 49 14 399 10 517 -6 244 -32 416 -73 587 -140 112 -44 163 -70 163 -85 0 -4 -16 -20 -35 -34 -25 -20 -49 -28 -87 -30 -29 -1 -61 -6 -70 -10 -18 -8 -34 -42 -30 -62 4 -19 -17 -64 -28 -64 -6 0 -16 11 -22 25 -24 53 -119 85 -148 50 -7 -8 -18 -15 -25 -15 -7 0 -18 7 -25 15 -14 17 -95 21 -105 5 -3 -5 -21 -10 -40 -10 -33 0 -34 1 -37 42 -2 31 -8 44 -20 46 -13 2 -18 -7 -24 -44 -5 -33 -3 -49 5 -52 14 -5 15 -39 0 -47 -5 -4 -23 -2 -39 5 -23 10 -34 9 -61 -6 -41 -21 -97 -24 -207 -12 -46 4 -107 9 -135 10 -34 0 -60 7 -76 19 -13 11 -25 18 -27 16 -1 -1 6 -32 16 -67 85 -302 327 -539 620 -608 193 -45 222 -47 365 -19 72 14 194 35 273 46 113 17 158 28 210 53 94 45 250 148 292 193 36 38 35 39 -12 16 -28 -14 -64 -8 -53 9 12 19 -17 85 -51 117 -19 18 -34 37 -34 42 0 18 49 24 134 18 137 -11 147 -19 97 -74 -15 -17 -31 -44 -34 -59 -5 -27 -3 -26 37 16 23 25 49 56 59 69 27 40 32 15 5 -26 -67 -102 -208 -226 -344 -304 -32 -18 -53 -34 -46 -37 14 -4 218 25 297 43 33 8 86 19 118 25 37 8 57 16 57 26 0 9 -11 14 -30 14 -16 0 -30 5 -30 10 0 15 -34 8 -41 -9 -4 -11 -9 -10 -23 4 -16 16 -16 19 -2 27 8 5 13 14 10 21 -2 7 7 26 21 43 29 32 79 122 80 141 0 6 4 15 8 19 4 4 7 18 7 30 0 13 5 26 10 29 6 3 10 15 10 26 0 10 4 27 10 37 14 26 40 128 54 212 11 73 13 75 46 87 19 7 57 12 83 12 63 1 102 -28 134 -99 29 -66 125 -241 129 -237 2 2 -5 35 -16 73 -23 79 -26 118 -8 112 7 -3 24 -51 38 -109 49 -193 52 -199 153 -299 l92 -90 50 8 c106 15 315 7 409 -16 248 -62 449 -220 570 -447 14 -27 26 -48 27 -45 4 29 2 67 -3 63 -5 -2 -8 3 -8 12 0 9 4 14 8 11 5 -3 9 51 9 120 1 121 5 146 21 130 13 -13 14 -215 2 -331 -18 -180 -58 -305 -130 -403 -27 -37 -35 -63 -57 -190 -14 -81 -31 -154 -38 -162 -12 -15 -45 -194 -45 -248 0 -15 7 -37 15 -48 8 -10 15 -26 15 -35 0 -9 8 -34 17 -55 9 -22 17 -41 18 -44 0 -6 24 -68 36 -95 14 -34 59 -202 73 -278 7 -39 12 -112 11 -162 -5 -133 -52 -394 -75 -415 -7 -6 -50 -67 -65 -91 -30 -49 -62 -88 -80 -100 -11 -7 -54 -14 -95 -15 -41 -1 -85 -2 -98 -3 -13 -1 -33 -11 -45 -24 -13 -12 -35 -30 -50 -40 -15 -9 -27 -23 -27 -30 -1 -17 -60 -56 -165 -107 -49 -24 -105 -60 -124 -80 -34 -35 -179 -213 -216 -266 -11 -15 -30 -40 -42 -55 -13 -15 -23 -31 -23 -37 0 -5 -19 -30 -43 -55 -23 -25 -49 -57 -57 -70 -14 -23 -73 -93 -162 -191 l-38 -41 0 -105 c0 -123 -17 -380 -26 -404 -6 -15 44 -16 620 -16 550 0 626 2 626 15 0 8 5 15 10 15 6 0 9 12 9 28 -2 23 -2 24 -6 4 -5 -26 -23 -20 -23 8 0 11 -6 39 -14 62 -7 24 -21 74 -31 111 -15 60 -19 66 -30 50 -13 -17 -14 -17 -20 -1 -4 10 -11 16 -15 13 -11 -7 -25 14 -26 40 -1 11 -5 28 -9 38 -9 22 1 35 17 19 18 -18 38 -14 38 7 0 22 -50 36 -62 18 -5 -7 -8 -3 -8 11 0 12 -7 34 -16 47 -9 14 -12 25 -6 25 6 0 4 13 -5 31 -8 16 -20 59 -26 95 -6 35 -15 64 -19 64 -4 0 -8 11 -8 25 0 14 -4 25 -8 25 -4 0 -9 8 -9 18 -2 20 -29 148 -44 207 -5 22 -14 57 -18 78 -5 21 -11 40 -14 43 -3 4 5 16 19 29 l24 22 -29 89 c-27 84 -31 117 -11 84 8 -13 10 -12 10 2 0 9 -6 23 -14 31 -8 8 -11 19 -6 27 11 18 30 3 30 -24 0 -12 4 -26 9 -31 5 -6 28 -66 51 -135 24 -69 60 -177 82 -240 33 -96 201 -682 222 -772 8 -34 21 -36 37 -5 7 12 41 59 76 104 34 46 63 87 63 92 0 5 7 11 15 15 8 3 15 10 15 16 0 6 4 16 10 23 18 22 75 94 118 151 24 31 51 56 61 56 10 0 31 -17 47 -37 37 -47 222 -306 248 -348 10 -16 22 -32 26 -35 9 -7 118 -174 126 -194 5 -14 31 -16 209 -16 l203 0 11 50 c6 28 11 60 11 70 0 11 5 20 11 20 9 0 10 -20 5 -70 l-6 -70 140 0 c129 0 160 6 129 26 -6 3 -9 19 -7 34 3 22 -1 29 -24 39 -15 7 -28 19 -28 26 0 7 -7 15 -15 19 -8 3 -15 9 -14 13 1 4 1 19 0 32 -1 20 -3 21 -16 11 -12 -10 -15 -9 -15 8 0 34 -11 52 -31 52 -21 0 -26 16 -6 23 8 3 6 10 -9 23 -20 18 -61 111 -56 127 1 4 -9 13 -23 19 -28 12 -33 28 -10 28 28 0 15 25 -23 42 -36 15 -36 16 -9 17 31 1 36 20 7 28 -15 4 -19 11 -15 24 8 24 -32 79 -52 72 -13 -5 -13 -2 -3 16 17 33 4 68 -30 86 -28 15 -36 42 -17 61 3 4 -3 20 -14 35 -11 16 -17 34 -14 40 4 6 -2 19 -13 29 -13 13 -18 27 -15 45 4 16 -1 33 -12 45 -9 10 -14 24 -10 29 3 6 -3 23 -15 38 -14 18 -17 29 -9 33 6 5 7 10 2 13 -5 3 -8 29 -7 56 1 28 -2 49 -6 46 -14 -8 -22 46 -9 61 9 11 9 18 -2 32 -25 31 -39 61 -34 75 3 7 -2 31 -11 53 -26 61 -28 111 -5 119 11 3 38 24 60 46 36 36 38 42 21 46 -16 4 -18 9 -9 24 5 11 7 24 4 29 -4 6 1 7 12 3 17 -6 17 -5 1 13 -13 16 -14 21 -3 31 8 7 17 34 20 60 4 27 11 61 16 77 5 16 9 38 9 49 0 11 7 28 15 37 9 10 17 39 19 66 2 37 7 50 20 52 11 3 15 10 11 22 -4 12 1 25 14 36 10 9 17 23 14 29 -2 7 1 16 6 20 6 3 9 11 6 16 -4 5 1 9 9 9 9 0 16 8 16 19 0 10 7 32 15 47 8 16 15 43 15 59 0 23 12 44 46 79 25 27 38 46 29 42 -23 -9 -10 31 21 63 13 12 26 33 30 45 4 11 22 39 40 62 19 23 34 46 34 51 0 6 8 21 18 34 11 13 22 39 25 58 4 18 18 42 32 53 14 11 23 23 20 28 -3 4 2 10 10 14 8 3 15 12 15 21 0 8 5 15 10 15 6 0 10 7 10 15 0 8 14 24 30 37 17 12 30 25 30 29 0 4 14 21 31 38 17 17 27 36 24 42 -4 6 2 13 14 16 l21 5 0 1444 0 1444 -1577 -1 c-868 -1 -1570 -3 -1560 -6 30 -8 20 -33 -13 -33 -23 0 -33 -6 -42 -25 -10 -21 -8 -28 8 -40 23 -17 74 -16 74 2 0 8 -13 13 -32 14 -31 0 -31 1 -10 10 13 5 28 7 33 3 5 -3 9 2 9 10 0 33 19 14 23 -21 l4 -38 1 38 c2 29 6 37 21 37 11 0 21 5 23 12 3 8 17 2 40 -15 19 -15 40 -27 46 -27 6 0 16 -9 22 -20 13 -23 47 -25 103 -6 31 12 37 12 37 0 0 -8 -7 -17 -15 -20 -8 -4 -13 -10 -10 -15 3 -4 12 -6 20 -3 16 6 75 -16 75 -28 0 -5 7 -8 15 -8 16 0 56 -20 65 -32 3 -4 18 -11 33 -17 15 -6 27 -17 27 -24 0 -8 11 -19 25 -25 14 -6 25 -18 25 -26 0 -7 15 -21 33 -30 27 -13 29 -16 10 -16 -13 0 -23 -5 -23 -11 0 -7 10 -9 25 -5 20 5 25 3 25 -12 0 -22 43 -66 54 -55 4 4 12 -1 18 -11 8 -15 12 -16 20 -5 6 9 7 1 3 -24 -4 -29 0 -42 15 -57 12 -12 25 -18 30 -15 6 4 10 -1 10 -10 0 -9 -4 -14 -9 -11 -13 9 12 -94 31 -124 9 -14 18 -39 21 -57 l6 -31 -77 28 c-42 16 -113 45 -157 65 -44 20 -94 43 -112 51 -168 76 -762 286 -1126 399 -83 26 -160 53 -171 61 -11 8 -27 14 -36 14 -8 0 -26 9 -40 20 -14 11 -29 20 -35 20 -5 0 -3 -5 5 -11 12 -9 12 -10 -3 -5 -11 3 -30 9 -43 12 -13 3 -21 10 -18 15 3 5 -2 9 -10 9 -27 0 -21 57 7 66 12 4 31 13 42 20 18 13 16 14 -23 14 -35 0 -42 -3 -40 -17 2 -10 -3 -17 -9 -15 -7 1 -13 -7 -13 -18 0 -11 -6 -20 -14 -20 -9 0 -13 -8 -10 -22 l5 -23 -10 23 c-11 23 -31 30 -31 11 0 -5 -5 -7 -10 -4 -15 9 -12 45 5 51 8 4 15 12 15 20 0 11 -146 14 -915 14 l-915 0 0 -939z m1750 899 c0 -5 -4 -10 -10 -10 -5 0 -10 5 -10 10 0 6 5 10 10 10 6 0 10 -4 10 -10z m1534 -95 c-6 -16 -24 -21 -24 -7 0 11 11 22 21 22 5 0 6 -7 3 -15z m-2469 -57 c-35 -25 -147 -139 -189 -192 -42 -54 -44 -36 -3 26 41 61 93 113 157 157 51 34 82 42 35 9z m2765 -198 c0 -5 -5 -10 -11 -10 -5 0 -7 5 -4 10 3 6 8 10 11 10 2 0 4 -4 4 -10z m-3107 -27 c4 -3 19 -8 34 -9 15 -2 29 -8 31 -14 2 -6 10 -17 19 -25 17 -17 20 -17 -79 -15 -42 1 -86 -4 -97 -10 -30 -16 -28 11 5 49 25 29 70 42 87 24z m131 -77 c-7 -17 -34 -23 -34 -6 0 9 32 31 38 26 1 -2 0 -11 -4 -20z m-34 -66 c-6 -11 -15 -20 -20 -20 -16 0 -11 18 8 29 24 14 24 14 12 -9z m2125 -55 c22 -4 48 -14 57 -22 11 -10 51 -19 105 -24 162 -16 349 -67 340 -92 -2 -6 -35 -28 -75 -47 -77 -39 -112 -66 -112 -87 0 -19 -30 -16 -107 11 -37 14 -96 29 -131 35 -77 12 -79 14 -87 54 -4 17 -20 61 -36 96 -34 74 -36 94 -11 88 9 -3 35 -8 57 -12z m880 -134 c3 -5 19 -12 35 -16 17 -4 30 -10 30 -14 0 -5 21 -16 48 -26 26 -10 52 -22 57 -27 6 -5 -15 0 -45 12 -30 12 -59 22 -65 24 -18 4 -90 28 -98 33 -11 6 2 23 18 23 8 0 16 -4 20 -9z m-402 -83 c-13 -12 -26 -18 -30 -14 -4 4 1 14 11 22 31 22 43 17 19 -8z m-439 -25 c3 -4 17 -8 29 -10 107 -16 216 -46 258 -73 63 -41 73 -54 55 -69 -11 -10 -16 -9 -23 2 -10 19 -156 92 -208 105 -71 18 -125 23 -125 12 0 -5 -4 -10 -10 -10 -5 0 -10 8 -10 18 0 28 18 41 34 25z m1163 -35 c124 -71 296 -235 378 -358 67 -102 139 -267 161 -368 15 -70 23 -88 50 -111 18 -16 37 -38 43 -49 14 -26 14 -72 1 -72 -5 0 -10 7 -10 15 0 8 -13 21 -30 30 -27 14 -64 71 -59 91 5 17 -23 128 -57 228 -51 152 -148 301 -273 418 -68 64 -185 158 -199 158 -9 1 -59 39 -50 40 4 0 24 -10 45 -22z m-2425 -424 c70 -23 66 -32 -6 -19 l-64 12 -6 -29 c-7 -34 -31 -35 -52 -3 -12 18 -11 24 2 44 17 24 35 24 126 -5z m40 -80 c21 -4 41 -10 44 -15 2 -4 11 -6 18 -3 21 8 30 -16 13 -34 -13 -12 -19 -13 -30 -3 -8 6 -19 11 -23 10 -5 -1 -28 -1 -52 0 -31 1 -44 6 -49 19 -4 9 -14 22 -22 29 -11 8 -12 12 -3 13 6 0 12 7 12 16 0 13 5 12 27 -5 14 -12 43 -24 65 -27z m710 10 c3 -3 1 -21 -5 -40 -9 -30 -14 -34 -44 -34 -34 0 -43 18 -25 47 12 19 64 38 74 27z m-722 -290 c0 -2 -7 -4 -15 -4 -8 0 -15 4 -15 10 0 5 7 7 15 4 8 -4 15 -8 15 -10z m530 -46 c22 -13 40 -29 40 -36 0 -19 -73 -48 -79 -31 -2 7 -15 23 -29 36 -28 26 -24 53 8 53 12 0 39 -10 60 -22z m2375 -28 c-5 -8 -11 -8 -17 -2 -6 6 -7 16 -3 22 5 8 11 8 17 2 6 -6 7 -16 3 -22z m-560 -3079 c3 -5 1 -12 -5 -16 -5 -3 -10 1 -10 9 0 18 6 21 15 7z m275 -941 c0 -5 -4 -12 -10 -15 -5 -3 -10 -4 -10 -1 0 2 -3 12 -6 20 -5 12 -2 15 10 10 9 -3 16 -10 16 -14z m10 -64 c0 -11 -19 -15 -25 -6 -3 5 1 10 9 10 9 0 16 -2 16 -4z m5 -65 c3 -5 1 -12 -5 -16 -5 -3 -10 1 -10 9 0 18 6 21 15 7z"/>
<path d="M1840 5986 c0 -9 7 -16 16 -16 17 0 14 22 -4 28 -7 2 -12 -3 -12 -12z"/>
<path d="M2015 5990 c3 -5 10 -10 16 -10 5 0 9 5 9 10 0 6 -7 10 -16 10 -8 0 -12 -4 -9 -10z"/>
<path d="M2080 5983 c0 -7 6 -13 14 -13 8 0 21 -3 29 -6 10 -3 20 3 27 16 10 19 9 20 -29 18 -25 -2 -41 -8 -41 -15z"/>
<path d="M2312 5983 c5 -26 74 -40 97 -19 11 11 21 12 27 6 7 -7 23 -5 47 5 29 12 42 13 58 4 22 -11 49 -6 49 11 0 6 -51 10 -141 10 -127 0 -140 -2 -137 -17z"/>
<path d="M2630 5988 c0 -11 47 -21 66 -14 9 4 14 10 10 13 -10 10 -76 11 -76 1z"/>
<path d="M2730 5976 c0 -17 14 -29 23 -20 8 8 -3 34 -14 34 -5 0 -9 -6 -9 -14z"/>
<path d="M2527 5943 c-23 -6 -19 -51 5 -67 22 -13 35 0 22 22 -8 13 -6 20 10 34 21 17 21 17 1 17 -11 -1 -28 -3 -38 -6z"/>
<path d="M1979 5932 c-21 -2 -26 -7 -22 -23 6 -21 18 -25 28 -9 4 6 11 7 17 4 6 -4 8 -2 4 4 -3 5 -1 12 6 14 19 7 -5 14 -33 10z"/>
<path d="M3005 5900 c-3 -5 1 -10 9 -10 8 0 18 5 21 10 3 6 -1 10 -9 10 -8 0 -18 -4 -21 -10z"/>
<path d="M2996 5822 c-3 -6 -1 -14 5 -17 15 -10 25 3 12 16 -7 7 -13 7 -17 1z"/>
<path d="M3195 5810 c3 -5 8 -10 11 -10 2 0 4 5 4 10 0 6 -5 10 -11 10 -5 0 -7 -4 -4 -10z"/>
<path d="M3280 5789 c0 -5 5 -7 10 -4 6 3 10 8 10 11 0 2 -4 4 -10 4 -5 0 -10 -5 -10 -11z"/>
<path d="M2670 4674 c0 -8 5 -12 10 -9 6 3 10 10 10 16 0 5 -4 9 -10 9 -5 0 -10 -7 -10 -16z"/>
<path d="M3440 4265 c0 -17 34 -85 42 -85 6 0 19 -10 29 -22 25 -28 32 -19 18 23 -13 41 -89 112 -89 84z"/>
<path d="M3877 1113 c-4 -3 -7 -17 -7 -31 0 -21 2 -22 15 -12 8 7 15 21 15 31 0 19 -11 25 -23 12z"/>
<path d="M3890 1035 c0 -14 4 -33 9 -43 6 -9 13 -30 16 -47 l7 -30 13 25 c13 23 12 27 -7 43 -17 14 -19 20 -9 26 10 7 10 13 2 30 -16 28 -31 27 -31 -4z"/>
<path d="M3940 895 c0 -14 5 -25 10 -25 6 0 10 11 10 25 0 14 -4 25 -10 25 -5 0 -10 -11 -10 -25z"/>
<path d="M3950 843 c0 -5 4 -15 10 -23 11 -18 25 -7 17 15 -6 15 -27 21 -27 8z"/>
<path d="M5400 800 c0 -5 5 -10 11 -10 5 0 7 5 4 10 -3 6 -8 10 -11 10 -2 0 -4 -4 -4 -10z"/>
<path d="M3970 765 c0 -8 7 -15 15 -15 8 0 15 7 15 15 0 8 -7 15 -15 15 -8 0 -15 -7 -15 -15z"/>
<path d="M3995 710 c-7 -12 2 -30 16 -30 12 0 12 27 0 35 -5 3 -12 1 -16 -5z"/>
<path d="M4017 644 c-11 -11 -8 -44 3 -44 15 0 24 30 13 41 -5 5 -12 6 -16 3z"/>
<path d="M4026 571 c-4 -5 -3 -16 0 -24 8 -22 33 -10 27 14 -6 20 -18 25 -27 10z"/>
<path d="M4047 493 c-13 -12 -7 -33 8 -33 8 0 15 9 15 20 0 20 -11 26 -23 13z"/>
<path d="M4082 360 c-17 -28 -15 -40 8 -40 21 0 27 24 12 47 -6 9 -11 7 -20 -7z"/>
<path d="M26 4075 l-21 -11 -3 -950 -2 -950 37 -22 c21 -11 67 -35 103 -53 l65 -31 73 18 c53 13 72 22 72 34 0 9 16 47 35 86 19 38 35 76 35 84 0 8 6 27 14 41 13 26 28 73 32 99 1 8 9 53 19 100 10 47 20 96 23 110 3 14 6 279 8 589 l3 564 -107 110 c-59 60 -125 121 -148 137 -70 49 -185 71 -238 45z"/>
<path d="M2571 3233 c-14 -9 -21 -11 -17 -5 4 7 1 12 -7 12 -8 0 -17 -7 -21 -15 -3 -8 -13 -15 -21 -15 -9 0 -13 5 -10 10 7 12 -2 13 -75 11 -30 -2 -77 -9 -104 -17 -27 -8 -81 -14 -120 -14 -78 0 -209 -20 -326 -50 -41 -11 -109 -27 -150 -36 -41 -10 -205 -51 -365 -91 -323 -82 -367 -93 -475 -117 -121 -27 -119 -38 13 -56 83 -11 100 -7 141 32 30 28 67 46 117 57 52 11 246 28 414 36 66 4 142 8 170 10 27 2 117 7 200 10 147 7 400 35 480 55 52 12 139 13 205 0 74 -14 357 20 344 42 -6 9 -208 3 -224 -7 -5 -3 -30 -1 -57 4 -26 6 -66 12 -88 15 -22 3 -53 8 -68 12 l-28 7 23 13 c13 8 31 17 40 20 10 3 16 10 13 14 -3 5 4 25 16 44 23 39 17 45 -20 19z"/>
<path d="M2690 3170 c0 -5 4 -10 9 -10 6 0 13 5 16 10 3 6 -1 10 -9 10 -9 0 -16 -4 -16 -10z"/>
<path d="M3240 3076 c37 -14 54 -11 30 4 -8 6 -26 9 -40 9 -22 0 -21 -2 10 -13z"/>
<path d="M3320 3054 c0 -4 9 -17 19 -28 19 -21 81 -137 81 -153 0 -14 107 -93 142 -105 18 -7 39 -18 46 -25 7 -7 25 -16 40 -19 15 -4 36 -14 47 -24 11 -9 27 -20 35 -24 8 -3 31 -16 50 -27 19 -12 43 -23 54 -25 11 -2 22 -7 25 -11 3 -5 13 -12 22 -18 78 -49 87 -60 114 -137 15 -42 32 -81 38 -86 16 -12 164 -25 170 -15 3 4 -23 64 -57 133 -65 130 -142 230 -177 230 -10 0 -19 5 -19 10 0 6 -11 15 -25 20 -14 5 -25 15 -25 23 0 7 -7 23 -16 35 -11 16 -20 20 -32 13 -18 -10 -72 24 -72 46 0 7 -10 13 -22 13 -15 0 -19 -3 -11 -8 8 -5 9 -13 3 -22 -8 -13 -10 -12 -10 3 0 9 -8 17 -17 18 -14 0 -13 3 5 11 12 6 22 15 22 19 0 13 -31 39 -40 34 -5 -3 -7 3 -5 13 4 25 -3 33 -47 57 -21 11 -38 23 -38 27 0 16 -36 7 -53 -12 -9 -11 -23 -20 -31 -20 -7 0 -19 -7 -26 -15 -13 -16 -80 -21 -80 -6 0 5 -19 22 -42 38 -62 42 -68 45 -68 37z m320 -85 c0 -5 -4 -9 -10 -9 -5 0 -10 7 -10 16 0 8 5 12 10 9 6 -3 10 -10 10 -16z m30 -54 c24 -13 24 -14 4 -15 -12 0 -27 7 -34 15 -16 19 -3 19 30 0z"/>
<path d="M3650 3054 c0 -17 18 -36 30 -32 7 2 4 10 -9 22 -12 11 -21 15 -21 10z"/>
<path d="M3800 2891 c0 -12 26 -32 33 -25 3 4 0 13 -8 20 -16 16 -25 18 -25 5z"/>
<path d="M557 2706 c-3 -8 -2 -18 3 -21 13 -8 24 15 12 27 -6 6 -11 4 -15 -6z"/>
<path d="M641 2678 c0 -28 2 -30 9 -13 12 28 12 45 0 45 -5 0 -10 -15 -9 -32z"/>
<path d="M725 2691 c-6 -11 9 -23 19 -14 9 9 7 23 -3 23 -6 0 -12 -4 -16 -9z"/>
<path d="M561 2654 c0 -11 3 -14 6 -6 3 7 2 16 -1 19 -3 4 -6 -2 -5 -13z"/>
<path d="M546 2567 c-3 -12 -6 -31 -6 -41 0 -26 16 -9 24 26 7 32 -9 47 -18 15z"/>
<path d="M530 2449 c0 -5 5 -7 10 -4 6 3 10 8 10 11 0 2 -4 4 -10 4 -5 0 -10 -5 -10 -11z"/>
<path d="M617 2453 c-4 -3 -7 -11 -7 -17 0 -6 5 -5 12 2 6 6 9 14 7 17 -3 3 -9 2 -12 -2z"/>
<path d="M707 2443 c-4 -3 -7 -11 -7 -17 0 -6 5 -5 12 2 6 6 9 14 7 17 -3 3 -9 2 -12 -2z"/>
<path d="M1365 2419 c-302 -14 -562 -31 -590 -38 -55 -13 -41 -30 73 -87 48 -24 61 -44 27 -44 -8 0 -12 -6 -9 -14 10 -26 115 -12 196 28 40 19 91 38 114 42 36 5 254 -18 419 -46 33 -6 103 -15 155 -20 52 -6 142 -17 200 -25 181 -25 220 -28 500 -40 113 -5 152 -3 178 7 l33 14 -26 28 c-14 16 -24 31 -21 33 3 3 25 8 48 10 l43 4 -30 -25 -30 -25 25 0 c22 0 79 35 69 42 -2 2 -17 9 -34 16 -16 8 -40 18 -51 23 -29 13 -65 -6 -58 -30 4 -11 -2 -8 -14 8 -19 23 -29 25 -109 28 -48 1 -96 2 -105 3 -9 0 -22 7 -29 15 -10 12 -14 12 -20 2 -6 -10 -12 -8 -24 10 -23 31 -53 30 -50 -3 2 -17 -2 -25 -11 -25 -9 0 -13 4 -9 9 3 6 -8 20 -24 32 -32 23 -81 34 -81 18 0 -5 -7 -9 -15 -9 -8 0 -14 5 -13 12 3 13 -15 17 -92 22 -25 1 -52 5 -60 9 -64 27 -240 32 -575 16z"/>
<path d="M520 2405 c0 -8 5 -15 10 -15 6 0 10 7 10 15 0 8 -4 15 -10 15 -5 0 -10 -7 -10 -15z"/>
<path d="M487 2320 c-10 -16 -15 -30 -10 -30 4 0 1 -6 -8 -13 -9 -7 -19 -22 -23 -35 -4 -12 -12 -22 -17 -22 -5 0 -9 -9 -9 -21 0 -11 -5 -30 -11 -42 -9 -16 -9 -22 0 -25 6 -2 2 -11 -11 -21 -13 -11 -19 -24 -15 -34 5 -14 10 -15 34 -5 38 17 39 18 23 29 -10 6 -12 11 -4 17 23 15 36 52 23 68 -7 9 -8 14 -1 14 6 0 26 14 44 30 24 22 28 30 15 30 -22 0 -21 6 3 37 11 14 20 32 20 39 0 25 -35 14 -53 -16z"/>
<path d="M578 2315 c-6 -14 -8 -28 -4 -32 10 -10 50 33 42 46 -11 18 -26 13 -38 -14z"/>
<path d="M657 2305 c-17 -24 -17 -25 2 -25 17 0 41 26 41 44 0 15 -27 3 -43 -19z"/>
<path d="M2760 2289 c0 -5 9 -9 20 -9 11 0 20 2 20 4 0 2 -9 6 -20 9 -11 3 -20 1 -20 -4z"/>
<path d="M830 2260 c0 -5 5 -10 11 -10 5 0 7 5 4 10 -3 6 -8 10 -11 10 -2 0 -4 -4 -4 -10z"/>
<path d="M2800 2255 c0 -8 7 -15 16 -15 14 0 14 3 4 15 -7 8 -14 15 -16 15 -2 0 -4 -7 -4 -15z"/>
<path d="M538 2230 c-16 -28 -16 -31 -1 -37 18 -7 56 32 50 51 -8 23 -33 15 -49 -14z"/>
<path d="M710 2239 c0 -5 5 -7 10 -4 6 3 10 8 10 11 0 2 -4 4 -10 4 -5 0 -10 -5 -10 -11z"/>
<path d="M625 2220 c-17 -19 -15 -50 4 -50 12 0 41 40 41 57 0 19 -25 16 -45 -7z"/>
<path d="M697 2213 c-4 -3 -7 -17 -7 -29 0 -13 -4 -26 -10 -29 -5 -3 -10 -13 -10 -21 0 -8 5 -14 10 -14 6 0 10 9 10 20 0 11 4 20 8 20 5 0 9 14 10 30 1 32 -1 34 -11 23z"/>
<path d="M513 2165 c-11 -8 -24 -11 -28 -7 -4 4 -4 -8 0 -25 5 -26 3 -33 -9 -33 -10 0 -16 -9 -16 -25 0 -22 4 -25 35 -25 36 0 46 15 23 38 -10 10 -7 16 10 28 22 15 30 48 14 58 -5 3 -18 -1 -29 -9z"/>
<path d="M3323 2168 c-25 -12 -27 -16 -14 -37 5 -7 5 -27 1 -42 -10 -32 8 -49 52 -49 13 0 29 -5 36 -12 8 -8 15 -8 25 1 10 8 22 8 40 2 13 -5 69 -13 123 -17 55 -3 105 -11 112 -17 7 -6 28 -12 45 -14 18 -2 57 -8 87 -14 30 -6 68 -13 83 -14 16 -2 31 -6 34 -9 3 -3 6 -71 6 -152 l0 -146 24 27 c20 20 22 29 13 40 -9 10 -9 18 -1 27 6 7 21 24 32 38 l20 25 -23 9 c-31 13 -31 13 -23 26 5 8 15 6 33 -6 24 -16 26 -16 43 5 10 11 29 21 43 21 16 0 26 6 26 15 0 8 -5 15 -11 15 -12 0 -64 53 -119 119 -35 42 -121 106 -173 129 -53 23 -131 26 -190 7 -36 -11 -68 -15 -91 -11 -21 4 -36 3 -36 -2 0 -6 -18 -12 -40 -14 -38 -3 -40 -2 -40 25 0 15 -4 26 -9 22 -5 -3 -12 -1 -16 5 -8 13 -64 12 -92 -2z"/>
<path d="M596 2144 c-19 -18 -18 -45 1 -51 18 -6 40 44 26 58 -7 7 -16 5 -27 -7z"/>
<path d="M0 1065 l0 -1065 1144 0 c753 0 1147 3 1151 10 3 5 16 10 28 10 13 0 30 9 40 20 9 11 28 20 42 20 14 0 25 5 25 10 0 6 7 10 15 10 9 0 25 8 36 19 18 16 18 19 4 25 -15 5 -15 7 0 22 10 10 13 24 9 38 -10 32 -15 33 -31 9 -9 -13 -20 -23 -25 -23 -11 0 1 42 15 51 5 4 6 12 3 18 -4 6 -1 11 7 11 22 0 57 35 57 59 0 20 -19 28 -33 14 -10 -10 -70 -10 -90 0 -11 5 -23 5 -30 0 -7 -5 -39 -9 -72 -9 -33 1 -62 -2 -65 -6 -3 -4 -29 0 -58 8 -41 12 -56 13 -67 4 -18 -15 -121 5 -129 26 -4 9 -21 14 -55 14 -34 0 -51 4 -55 15 -3 8 -17 15 -31 15 -14 0 -25 5 -25 10 0 6 -11 10 -25 10 -14 0 -25 5 -25 10 0 6 -6 10 -14 10 -7 0 -19 7 -26 15 -7 8 -21 15 -31 15 -11 0 -19 5 -19 10 0 6 -5 10 -10 10 -6 0 -20 8 -31 19 -11 10 -41 29 -67 42 -44 22 -61 36 -128 97 -14 12 -29 22 -34 22 -5 0 -14 9 -20 20 -6 11 -16 20 -23 20 -7 0 -20 14 -29 30 -9 17 -24 30 -33 30 -8 0 -15 4 -15 10 0 5 -17 26 -37 47 -57 58 -93 102 -93 113 0 5 -6 10 -13 10 -8 0 -31 25 -52 56 -21 30 -48 63 -60 72 -11 9 -45 49 -75 87 -54 71 -86 107 -151 173 -20 21 -51 58 -68 85 -18 26 -35 47 -40 47 -4 0 -79 70 -166 155 -87 86 -164 154 -169 152 -6 -2 -27 8 -46 23 -19 14 -70 48 -112 74 l-78 48 30 36 c17 20 30 43 30 52 0 8 -19 26 -43 39 -23 13 -60 39 -83 58 -23 18 -44 33 -48 33 -3 0 -6 -479 -6 -1065z m2405 -875 c3 -5 1 -10 -4 -10 -6 0 -11 5 -11 10 0 6 2 10 4 10 3 0 8 -4 11 -10z m15 -51 c0 -6 -4 -7 -10 -4 -5 3 -10 11 -10 16 0 6 5 7 10 4 6 -3 10 -11 10 -16z m0 -29 c0 -5 -4 -10 -10 -10 -5 0 -10 5 -10 10 0 6 5 10 10 10 6 0 10 -4 10 -10z"/>
<path d="M555 2065 c-3 -8 -7 -22 -10 -31 -4 -12 0 -14 18 -9 31 10 41 21 34 39 -8 20 -36 21 -42 1z"/>
<path d="M318 2053 c-10 -2 -18 -8 -18 -11 0 -12 14 -27 25 -27 19 -1 75 -40 75 -53 0 -8 -11 -6 -37 8 -54 29 -93 26 -136 -11 -21 -17 -37 -35 -37 -40 0 -14 33 -10 54 6 10 8 23 12 27 9 14 -8 10 -41 -6 -54 -10 -8 -12 -17 -6 -23 10 -10 61 19 61 35 0 5 8 4 19 -1 10 -6 22 -7 26 -3 4 4 1 -5 -6 -20 -7 -16 -16 -28 -21 -28 -4 0 -8 -9 -8 -20 0 -11 6 -20 13 -20 20 0 49 35 45 55 -2 11 4 19 16 21 11 1 23 9 27 16 20 32 26 37 52 43 31 8 37 -8 10 -24 -15 -9 -15 -12 -4 -20 16 -10 0 -24 -21 -16 -7 3 -22 -7 -33 -21 -11 -14 -28 -34 -38 -45 -10 -11 -15 -25 -11 -31 5 -7 11 -5 20 6 10 15 14 15 21 3 11 -19 73 -31 73 -14 0 6 -14 20 -30 29 -17 9 -30 22 -30 28 0 13 27 13 35 0 3 -5 14 -10 23 -10 10 0 22 -10 27 -22 6 -13 19 -24 30 -26 11 -2 25 -9 30 -17 11 -13 39 -14 67 -1 10 5 30 1 50 -10 72 -37 87 -44 98 -44 7 0 34 -16 61 -36 36 -26 49 -32 49 -20 0 9 8 16 20 16 11 0 20 -6 20 -12 0 -9 4 -8 10 2 8 13 10 13 10 -1 0 -21 50 -35 61 -18 6 10 11 10 23 0 8 -7 20 -10 25 -6 6 3 19 1 29 -4 13 -7 25 -6 38 3 26 17 94 18 121 0 12 -8 35 -14 50 -14 22 0 25 -2 13 -10 -8 -5 -10 -10 -5 -10 6 0 17 5 25 10 10 6 22 4 37 -5 11 -8 33 -16 48 -19 15 -3 35 -12 44 -20 9 -8 30 -18 46 -22 17 -4 50 -19 75 -32 122 -67 153 -82 175 -82 13 0 26 -4 29 -9 4 -5 36 -19 72 -31 36 -11 84 -32 105 -46 22 -14 48 -24 57 -23 9 1 24 0 32 -3 8 -3 35 -11 60 -17 25 -7 59 -16 75 -21 158 -47 355 -76 355 -52 0 18 -212 132 -247 132 -8 0 -38 11 -66 24 -64 30 -165 69 -277 105 -47 16 -107 37 -135 49 -27 11 -86 34 -130 50 -288 109 -499 193 -520 206 -19 11 -112 50 -185 77 -19 7 -42 18 -50 25 -8 6 -35 19 -60 28 -116 40 -139 49 -202 78 l-66 30 -29 -20 c-15 -11 -38 -23 -50 -27 -18 -5 -24 -1 -29 19 -6 27 -20 34 -26 15 -4 -12 -46 6 -60 25 -3 5 -17 10 -30 12 -12 1 -32 4 -43 7 -11 3 -28 3 -37 0z m256 -209 c3 -8 2 -14 -1 -14 -10 0 -53 42 -53 52 0 12 47 -21 54 -38z m66 -44 c0 -5 -4 -10 -9 -10 -6 0 -13 5 -16 10 -3 6 1 10 9 10 9 0 16 -4 16 -10z"/>
<path d="M4116 1831 c-4 -7 -5 -15 -2 -18 9 -9 19 4 14 18 -4 11 -6 11 -12 0z"/>
<path d="M4180 1810 c0 -5 5 -10 10 -10 6 0 10 5 10 10 0 6 -4 10 -10 10 -5 0 -10 -4 -10 -10z"/>
<path d="M4067 1755 c-16 -22 -16 -26 -3 -31 17 -6 58 35 49 48 -8 15 -28 7 -46 -17z"/>
<path d="M4150 1751 c-5 -11 -10 -28 -10 -38 0 -15 4 -14 20 7 21 27 26 50 10 50 -5 0 -14 -9 -20 -19z"/>
<path d="M4216 1735 c-19 -30 -20 -35 -3 -35 11 0 37 39 37 55 0 14 -20 2 -34 -20z"/>
<path d="M530 1726 c0 -8 7 -17 16 -20 28 -11 35 -7 24 14 -12 23 -40 27 -40 6z"/>
<path d="M642 1728 c5 -15 35 -34 43 -27 3 4 3 14 -1 23 -7 18 -48 23 -42 4z"/>
<path d="M4023 1668 c-22 -32 -22 -48 1 -48 14 0 48 65 39 74 -11 11 -18 6 -40 -26z"/>
<path d="M4108 1677 c-20 -15 -32 -53 -20 -61 13 -8 52 49 43 62 -5 9 -11 9 -23 -1z"/>
<path d="M4166 1658 c-20 -28 -20 -48 -2 -48 17 0 21 5 30 43 8 33 -7 36 -28 5z"/>
<path d="M4042 1580 c-16 -25 -15 -30 3 -30 12 0 35 28 35 44 0 14 -26 4 -38 -14z"/>
<path d="M980 1570 c0 -5 5 -10 11 -10 5 0 7 5 4 10 -3 6 -8 10 -11 10 -2 0 -4 -4 -4 -10z"/>
<path d="M1035 1520 c-3 -5 1 -10 10 -10 9 0 13 5 10 10 -3 6 -8 10 -10 10 -2 0 -7 -4 -10 -10z"/>
<path d="M1105 1470 c-3 -5 1 -10 10 -10 9 0 13 5 10 10 -3 6 -8 10 -10 10 -2 0 -7 -4 -10 -10z"/>
<path d="M3110 1331 c0 -4 9 -20 21 -35 22 -29 49 -35 49 -11 0 9 9 15 25 15 16 0 25 6 25 15 0 17 -45 21 -55 5 -4 -6 -12 -4 -21 5 -17 16 -44 20 -44 6z"/>
<path d="M1868 1263 c7 -3 16 -2 19 1 4 3 -2 6 -13 5 -11 0 -14 -3 -6 -6z"/>
<path d="M2800 1237 c0 -9 10 -14 28 -14 41 0 165 -13 171 -18 2 -3 -5 -5 -15 -5 -30 0 -44 -19 -37 -51 6 -33 -10 -39 -38 -13 -16 14 -20 14 -48 0 -32 -17 -126 -22 -135 -7 -4 5 -23 5 -47 -1 -30 -8 -46 -8 -65 2 -19 11 -34 11 -72 2 -26 -6 -62 -10 -79 -9 -33 3 -45 -7 -20 -16 6 -3 -4 -4 -23 -3 -19 2 -42 5 -50 9 -8 3 -37 8 -64 11 -28 3 -54 13 -61 22 -6 9 -20 14 -31 12 -19 -5 -19 -5 1 -13 11 -5 30 -20 43 -33 19 -20 20 -23 5 -17 -10 4 -39 15 -65 24 -26 10 -56 25 -65 33 -10 9 -33 19 -51 23 -18 4 -30 10 -27 15 3 4 -2 13 -10 20 -8 7 -15 8 -15 3 0 -5 -13 -8 -29 -5 -24 3 -29 0 -33 -22 -4 -18 -1 -26 8 -26 8 0 14 9 14 20 0 11 7 20 15 20 18 0 20 -16 3 -24 -9 -3 -8 -9 6 -20 10 -8 16 -22 13 -30 -5 -14 12 -22 67 -33 10 -2 29 -15 42 -28 30 -32 8 -34 -47 -3 -46 26 -70 15 -48 -21 19 -30 1 -46 -35 -30 -33 16 -38 10 -26 -30 l9 -33 -33 6 c-25 5 -37 2 -51 -14 -18 -20 -18 -20 8 -20 16 0 36 -12 54 -31 15 -17 36 -39 46 -47 9 -9 17 -19 17 -23 0 -13 -56 4 -77 24 -13 11 -26 17 -29 14 -4 -4 -13 1 -20 10 -10 15 -15 16 -38 4 -22 -12 -28 -12 -50 3 -29 18 -40 21 -31 6 3 -5 -1 -10 -9 -10 -9 0 -16 -2 -16 -5 0 -8 73 -75 83 -75 5 0 7 -9 4 -20 -3 -10 0 -21 7 -24 7 -3 7 -5 -1 -5 -18 -1 -16 -41 2 -41 8 0 15 -4 15 -10 0 -16 -27 -12 -34 5 -3 8 -15 15 -26 15 -11 0 -39 12 -61 27 -31 21 -42 24 -52 14 -9 -10 -8 -16 8 -28 14 -11 16 -17 8 -20 -7 -3 -13 -9 -13 -15 0 -6 6 -6 15 2 23 19 43 6 37 -26 -5 -27 -5 -27 40 -20 35 5 48 3 58 -9 12 -14 11 -18 0 -25 -16 -10 -15 -12 22 -28 23 -10 29 -9 37 6 8 15 11 14 19 -9 13 -34 65 -57 88 -38 13 11 15 10 12 -5 -2 -13 8 -22 36 -34 28 -11 41 -12 44 -4 2 6 11 3 24 -10 16 -16 28 -19 60 -14 28 5 43 2 54 -8 10 -11 21 -13 37 -7 12 5 33 5 45 0 13 -5 28 -7 33 -3 10 6 115 15 167 14 17 0 32 4 32 10 0 5 13 7 30 4 16 -4 37 -3 47 1 14 5 6 11 -31 22 -35 10 -46 17 -38 25 8 8 18 8 37 0 21 -10 31 -8 61 8 19 11 39 18 45 15 14 -9 10 7 -7 30 -12 16 -17 17 -23 6 -7 -10 -14 -8 -35 10 l-26 22 31 16 c26 12 35 12 51 2 20 -12 21 -11 15 19 -4 18 -3 29 3 25 5 -3 25 1 45 9 44 19 47 38 4 26 -18 -5 -35 -7 -39 -5 -13 8 0 42 26 66 13 12 24 28 24 36 0 7 5 13 10 13 6 0 10 7 10 15 0 9 8 14 22 12 14 -1 23 4 23 12 0 21 24 26 31 7 3 -9 12 -16 20 -16 16 0 19 16 4 25 -30 18 6 51 65 60 11 1 29 6 40 10 26 10 95 76 95 91 0 16 -45 44 -72 44 -21 0 -21 0 -2 15 25 19 44 19 44 0 0 -8 7 -15 15 -15 9 0 12 6 9 15 -6 14 5 19 34 16 6 -1 12 5 12 13 0 9 7 12 19 9 10 -2 25 2 33 10 8 8 23 16 34 19 18 3 34 47 17 49 -4 1 -66 3 -138 4 -71 1 -152 5 -180 9 -27 4 -67 9 -87 12 -29 4 -38 2 -38 -9z m180 -111 c0 -3 -4 -8 -10 -11 -5 -3 -10 -1 -10 4 0 6 5 11 10 11 6 0 10 -2 10 -4z m-230 -25 c0 -6 -5 -13 -10 -16 -15 -9 -43 3 -35 15 8 13 45 13 45 1z m-410 -41 c0 -5 -5 -10 -11 -10 -5 0 -7 5 -4 10 3 6 8 10 11 10 2 0 4 -4 4 -10z m515 -9 c3 -5 2 -12 -3 -15 -12 -7 -52 4 -52 15 0 12 47 12 55 0z m-585 -35 c0 -9 -39 -13 -51 -5 -10 6 -4 9 19 9 17 0 32 -2 32 -4z m-250 -102 c0 -8 -4 -14 -10 -14 -5 0 -10 2 -10 4 0 2 -3 12 -6 20 -5 12 -2 15 10 10 9 -3 16 -12 16 -20z m80 -44 c0 -5 -6 -10 -14 -10 -8 0 -18 5 -21 10 -3 6 3 10 14 10 12 0 21 -4 21 -10z m-179 -98 c-17 -6 -58 24 -58 41 0 12 9 9 35 -11 19 -14 29 -28 23 -30z m826 32 c-3 -3 -12 -4 -19 -1 -8 3 -5 6 6 6 11 1 17 -2 13 -5z m-47 -94 c0 -5 -4 -10 -9 -10 -6 0 -13 5 -16 10 -3 6 1 10 9 10 9 0 16 -4 16 -10z m-687 -81 c5 -3 2 -9 -5 -12 -9 -3 -14 3 -15 15 -1 11 1 16 5 12 4 -5 11 -12 15 -15z"/>
<path d="M3265 1210 c-3 -5 3 -10 14 -10 12 0 21 5 21 10 0 6 -6 10 -14 10 -8 0 -18 -4 -21 -10z"/>
<path d="M3180 1120 c-13 -8 -12 -10 3 -10 9 0 17 5 17 10 0 12 -1 12 -20 0z"/>
<path d="M3100 1070 c0 -5 7 -10 15 -10 8 0 15 5 15 10 0 6 -7 10 -15 10 -8 0 -15 -4 -15 -10z"/>
<path d="M1730 930 c0 -5 9 -10 21 -10 11 0 17 5 14 10 -3 6 -13 10 -21 10 -8 0 -14 -4 -14 -10z"/>
<path d="M1788 933 c7 -3 16 -2 19 1 4 3 -2 6 -13 5 -11 0 -14 -3 -6 -6z"/>
<path d="M2930 909 c0 -5 5 -7 10 -4 6 3 10 8 10 11 0 2 -4 4 -10 4 -5 0 -10 -5 -10 -11z"/>
<path d="M1650 770 c0 -5 5 -10 11 -10 5 0 7 5 4 10 -3 6 -8 10 -11 10 -2 0 -4 -4 -4 -10z"/>
<path d="M1810 750 c0 -5 5 -10 11 -10 5 0 7 5 4 10 -3 6 -8 10 -11 10 -2 0 -4 -4 -4 -10z"/>
<path d="M1630 650 c0 -5 5 -10 10 -10 6 0 10 5 10 10 0 6 -4 10 -10 10 -5 0 -10 -4 -10 -10z"/>
<path d="M1590 601 c0 -6 4 -13 10 -16 6 -3 7 1 4 9 -7 18 -14 21 -14 7z"/>
<path d="M1720 596 c19 -18 60 -30 60 -18 0 10 -44 32 -63 32 -7 0 -6 -5 3 -14z"/>
<path d="M1620 570 c0 -5 5 -10 11 -10 5 0 7 5 4 10 -3 6 -8 10 -11 10 -2 0 -4 -4 -4 -10z"/>
<path d="M1800 552 c0 -9 62 -34 68 -27 3 2 -1 11 -8 20 -13 15 -60 21 -60 7z"/>
<path d="M1670 540 c0 -12 33 -30 54 -30 24 0 19 15 -9 28 -31 15 -45 15 -45 2z"/>
<path d="M1896 521 c-9 -14 40 -45 59 -37 23 8 18 26 -8 26 -13 0 -28 5 -34 11 -7 7 -13 7 -17 0z"/>
<path d="M1760 500 c0 -16 61 -43 72 -32 7 7 0 16 -20 26 -35 18 -52 20 -52 6z"/>
<path d="M1980 480 c0 -14 59 -42 76 -36 25 9 15 22 -25 34 -47 14 -51 15 -51 2z"/>
<path d="M1860 454 c0 -17 60 -38 73 -25 6 6 8 13 5 16 -10 10 -78 18 -78 9z"/>
<path d="M2090 436 c0 -9 8 -16 18 -16 10 0 23 -5 30 -12 16 -16 29 -1 16 20 -15 23 -64 29 -64 8z"/>
<path d="M1950 418 c0 -8 14 -19 32 -26 26 -10 35 -9 46 2 12 11 9 14 -15 20 -15 4 -36 9 -45 12 -11 3 -18 0 -18 -8z"/>
<path d="M2197 424 c-16 -16 -5 -25 26 -22 17 2 31 8 30 13 -3 12 -46 19 -56 9z"/>
<path d="M2298 423 c-29 -7 -21 -23 11 -23 34 0 49 15 25 24 -9 3 -16 5 -17 5 -1 -1 -10 -3 -19 -6z"/>
<path d="M2387 423 c-24 -6 -11 -23 19 -23 15 0 24 6 24 15 0 15 -9 17 -43 8z"/>
<path d="M2465 420 c3 -5 15 -10 26 -10 10 0 19 5 19 10 0 6 -12 10 -26 10 -14 0 -23 -4 -19 -10z"/>
<path d="M2045 391 c-7 -12 26 -31 53 -31 33 0 33 13 1 27 -37 16 -46 16 -54 4z"/>
<path d="M2339 370 c-21 -14 -2 -24 23 -13 17 7 19 11 6 15 -8 4 -21 2 -29 -2z"/>
<path d="M2545 370 c3 -5 8 -10 11 -10 2 0 4 5 4 10 0 6 -5 10 -11 10 -5 0 -7 -4 -4 -10z"/>
<path d="M2145 360 c-3 -5 0 -10 7 -10 7 0 23 -3 36 -6 16 -5 22 -2 22 10 0 18 -54 23 -65 6z"/>
<path d="M2240 360 c0 -5 14 -10 30 -10 17 0 30 5 30 10 0 6 -13 10 -30 10 -16 0 -30 -4 -30 -10z"/>
<path d="M2545 300 c3 -5 8 -10 11 -10 2 0 4 5 4 10 0 6 -5 10 -11 10 -5 0 -7 -4 -4 -10z"/>
<path d="M2490 240 c-8 -5 -11 -12 -8 -16 10 -9 38 3 38 16 0 12 -10 13 -30 0z"/>
<path d="M2556 95 c3 -7 -4 -15 -15 -18 -27 -7 -27 -27 0 -27 23 0 59 17 59 28 0 4 -11 12 -24 18 -19 9 -23 9 -20 -1z"/>
<path d="M2390 30 c0 -5 5 -10 10 -10 6 0 10 5 10 10 0 6 -4 10 -10 10 -5 0 -10 -4 -10 -10z"/>
<path d="M2477 20 c-15 -17 -15 -20 -1 -20 24 0 55 20 49 31 -10 15 -29 10 -48 -11z"/>
</g>
</svg>
