<?xml version="1.0" standalone="no"?>
<!DOCTYPE svg PUBLIC "-//W3C//DTD SVG 20010904//EN"
 "http://www.w3.org/TR/2001/REC-SVG-20010904/DTD/svg10.dtd">
<svg version="1.0" xmlns="http://www.w3.org/2000/svg"
 width="600.000000pt" height="600.000000pt" viewBox="0 0 600.000000 600.000000"
 preserveAspectRatio="xMidYMid meet">
<metadata>
Created by potrace 1.11, written by Peter Selinger 2001-2013
</metadata>
<g transform="translate(0.000000,600.000000) scale(0.100000,-0.100000)"
fill="#000000" stroke="none">
<path d="M3 3633 c2 -1303 4 -2375 5 -2383 0 -8 1 -28 1 -45 0 -16 3 -52 8
-80 7 -41 14 -53 43 -73 19 -13 34 -25 32 -28 -9 -13 6 -23 25 -18 16 4 23 14
23 29 0 13 7 25 15 29 12 4 14 0 9 -19 -7 -30 3 -65 21 -65 7 0 16 -6 19 -12
4 -10 8 -10 11 -2 8 17 45 5 38 -12 -3 -9 1 -14 12 -14 9 0 15 -6 12 -12 -2
-7 -14 -13 -26 -12 -11 0 -21 -3 -21 -6 0 -15 28 -30 43 -24 21 8 66 -26 67
-49 0 -14 -5 -17 -19 -12 -14 4 -23 0 -31 -15 -6 -11 -18 -20 -27 -20 -14 0
-15 -2 -4 -12 11 -10 14 -10 18 0 6 17 32 15 39 -3 4 -8 12 -15 20 -15 17 0
18 -12 2 -29 -11 -10 -8 -16 11 -30 13 -10 21 -22 18 -28 -9 -15 8 -34 49 -52
46 -21 64 -17 64 12 0 17 2 19 9 8 5 -8 7 -20 4 -28 -8 -21 28 -29 43 -8 14
19 64 30 64 14 0 -5 -7 -9 -15 -9 -18 0 -20 -16 -3 -26 6 -4 14 -2 16 4 7 22
32 13 32 -12 0 -21 -38 -79 -63 -97 -5 -4 -3 -10 4 -15 7 -4 14 -3 17 4 6 18
29 14 36 -5 6 -15 8 -15 16 -3 5 8 12 11 16 8 4 -4 18 2 32 12 31 25 61 26 68
3 3 -10 10 -26 15 -35 16 -31 10 -46 -28 -65 -36 -19 -62 -52 -31 -40 9 3 21
0 27 -6 18 -18 13 -29 -10 -22 -15 5 -20 3 -17 -6 3 -9 18 -13 42 -12 45 2 54
8 40 31 -14 24 -3 67 18 68 10 1 15 -2 12 -7 -3 -5 2 -23 10 -40 17 -34 13
-51 -9 -42 -10 3 -15 -2 -15 -16 0 -14 6 -21 20 -21 10 0 23 -7 28 -16 5 -9
20 -18 33 -19 13 -1 28 -3 33 -4 4 0 6 -10 3 -21 -3 -11 -1 -20 4 -20 5 0 9
-9 9 -20 0 -26 -7 -25 -35 3 -39 38 -53 47 -75 47 -26 0 -26 -16 0 -23 17 -4
19 -11 14 -31 -8 -34 9 -54 55 -62 48 -8 181 -71 188 -90 4 -12 75 -14 482
-14 481 1 511 3 511 36 0 13 76 94 87 94 13 0 53 44 53 58 0 7 11 12 25 12 14
0 25 5 25 10 0 6 7 10 15 10 8 0 15 4 15 9 0 5 14 14 31 21 20 9 28 18 24 28
-4 11 1 13 24 9 25 -5 28 -3 24 13 -4 14 0 20 11 20 8 0 23 11 32 25 9 14 20
22 26 19 5 -3 12 3 15 15 3 12 24 30 49 43 24 12 44 25 44 30 0 4 7 8 15 8 8
0 15 7 15 16 0 8 -4 12 -10 9 -5 -3 -10 -1 -10 4 0 6 7 11 15 11 10 0 15 10
15 31 0 27 2 30 15 19 13 -10 15 -9 15 8 0 15 5 20 15 16 11 -5 15 1 15 20 0
32 15 34 31 4 l12 -22 9 23 c5 13 6 32 3 42 -4 11 -4 23 -1 28 8 12 56 -10 56
-26 0 -7 4 -13 9 -13 8 0 5 21 -14 94 -6 21 -5 27 4 22 6 -4 11 -14 11 -21 0
-12 6 -12 27 -4 20 7 29 6 36 -3 5 -8 7 -2 3 20 -4 24 -2 32 9 32 8 0 15 7 15
15 0 22 21 18 27 -5 7 -25 16 -25 34 -2 7 9 9 14 5 10 -14 -12 -35 24 -36 61
0 22 4 32 13 28 6 -2 18 1 24 8 17 19 -9 39 -38 30 -18 -6 -21 -4 -16 9 7 16
-16 63 -38 78 -6 5 -5 8 3 8 6 0 12 7 12 16 0 14 -2 14 -15 0 -8 -8 -15 -19
-15 -24 0 -5 -7 -15 -15 -22 -12 -10 -15 -9 -15 4 0 10 -4 15 -10 11 -12 -8
-50 16 -50 32 0 7 -5 13 -11 13 -6 0 -9 -7 -5 -15 3 -8 1 -15 -4 -15 -6 0 -10
4 -10 10 0 5 -17 17 -37 26 -21 10 -41 19 -44 21 -4 1 -13 -5 -20 -14 -13 -15
-11 -16 18 -10 22 4 35 2 45 -10 11 -15 10 -16 -9 -11 -13 4 -23 2 -23 -3 0
-5 -9 -9 -20 -9 -11 0 -20 -4 -20 -10 0 -5 -4 -10 -8 -10 -5 0 -7 14 -6 30 1
17 -2 30 -7 30 -5 0 -9 -4 -9 -10 0 -21 -19 -9 -31 19 -14 32 -34 32 -24 0 4
-11 2 -19 -5 -19 -7 0 -14 9 -17 20 -3 11 -9 17 -15 14 -5 -4 -5 -11 1 -18 12
-14 3 -58 -10 -50 -5 3 -9 14 -9 25 0 11 -4 18 -9 14 -5 -3 -11 5 -13 17 -4
26 -61 46 -83 28 -7 -6 -20 -8 -29 -4 -12 5 -16 0 -16 -20 0 -33 -16 -34 -24
-1 -4 14 -18 31 -31 37 -14 6 -25 16 -25 21 0 16 -104 -1 -117 -19 -16 -22
-34 -8 -27 22 6 22 4 24 -27 20 -19 -3 -35 -6 -36 -7 -12 -8 -63 -2 -63 9 0
18 -17 15 -25 -6 -6 -16 -7 -16 -19 0 -7 9 -19 16 -27 16 -7 -1 -25 0 -38 0
-23 2 -24 3 -6 15 11 9 15 19 10 27 -6 10 -11 9 -21 -5 -9 -13 -23 -16 -52
-13 -33 3 -66 -10 -59 -24 1 -2 -2 3 -8 11 -5 7 -20 25 -33 39 -20 22 -25 24
-46 13 -19 -11 -29 -10 -55 3 -31 16 -31 16 -41 -9 -5 -14 -17 -28 -25 -31
-26 -10 -16 -25 13 -18 27 6 27 5 -6 -16 -26 -18 -35 -20 -47 -10 -8 6 -22 10
-32 8 -10 -2 -27 4 -37 14 -19 17 -19 18 4 38 26 22 50 26 50 8 0 -7 7 -2 16
10 8 12 20 20 25 16 11 -6 50 76 42 89 -2 4 -11 3 -19 -4 -7 -6 -11 -16 -8
-21 3 -5 -3 -16 -15 -24 -12 -8 -21 -22 -21 -30 0 -10 -10 -13 -35 -11 -23 1
-34 6 -31 14 9 21 -11 23 -29 3 -20 -22 -37 -18 -28 8 4 9 -8 1 -25 -18 -24
-25 -31 -41 -27 -57 3 -13 1 -23 -5 -23 -6 0 -8 5 -5 10 3 6 -1 13 -10 16 -14
6 -12 11 11 35 15 16 24 34 21 43 -3 8 -2 18 3 21 17 10 11 25 -10 25 -11 0
-20 7 -20 15 0 8 -5 15 -11 15 -17 0 -41 29 -34 41 4 6 -2 13 -14 16 -20 5
-30 23 -13 23 4 0 8 9 8 20 0 38 -29 15 -41 -33 -5 -19 -3 -27 6 -27 9 -1 8
-4 -4 -11 -13 -8 -22 -7 -33 1 -7 7 -14 9 -15 4 -1 -5 -4 2 -8 16 -6 19 -13
24 -32 22 -18 -2 -21 0 -12 9 7 7 24 13 39 15 49 5 46 22 -7 33 -18 4 -35 13
-37 21 -3 8 -1 12 3 8 4 -4 17 -3 27 3 15 8 17 14 9 22 -8 8 -14 8 -22 0 -6
-6 -17 -9 -23 -7 -6 2 -17 -9 -24 -26 -8 -16 -19 -30 -25 -30 -18 0 -107 43
-107 52 0 4 -7 8 -15 8 -8 0 -15 5 -15 11 0 5 -5 7 -10 4 -6 -3 -10 1 -10 9 0
10 -6 13 -15 9 -14 -5 -14 -1 -3 23 6 16 15 33 20 39 15 17 9 38 -9 30 -10 -4
-22 -8 -28 -9 -5 -2 -18 -6 -27 -10 -40 -18 -53 -4 -52 54 1 30 -3 58 -9 62
-7 4 -7 11 1 21 10 11 9 17 -2 27 -13 10 -16 7 -23 -17 -4 -15 -6 -34 -5 -40
2 -7 -6 -13 -17 -13 -12 0 -27 -12 -35 -27 -11 -21 -15 -23 -16 -10 0 10 -9
27 -19 39 -11 11 -17 27 -14 34 4 10 0 12 -12 8 -15 -6 -16 -2 -10 37 6 35 5
42 -6 32 -13 -13 -39 -79 -39 -102 0 -9 7 -11 21 -8 13 3 19 1 16 -6 -3 -11
-117 -21 -117 -10 0 3 9 16 19 30 11 13 18 30 15 38 -3 7 5 20 18 29 21 15 21
18 6 26 -10 7 -14 17 -11 31 5 19 3 21 -20 15 -18 -4 -29 -1 -35 10 -8 14 -10
14 -25 -1 -10 -9 -17 -23 -17 -31 0 -20 -20 -17 -21 4 -2 23 -2 24 7 46 6 16
4 18 -11 12 -11 -4 -16 -4 -12 0 4 4 1 14 -5 22 -7 8 -13 29 -14 45 -1 17 -9
36 -18 42 -9 7 -16 19 -16 28 0 22 -19 32 -26 13 -3 -8 -12 -17 -21 -20 -10
-4 -13 -2 -10 7 5 15 -25 47 -44 47 -7 0 -9 11 -6 30 9 44 0 62 -25 49 -25
-14 -33 -6 -19 20 7 13 8 22 1 26 -16 10 -12 45 5 45 9 0 20 12 25 26 13 32
13 34 -3 34 -15 0 -77 -78 -77 -97 0 -7 -4 -13 -10 -13 -5 0 -10 9 -10 20 0
11 -7 20 -15 20 -24 0 -18 18 15 42 36 26 37 34 9 41 -16 4 -20 11 -15 24 20
51 18 69 -8 81 -14 6 -26 16 -26 22 0 8 -6 7 -20 0 -26 -14 -26 0 -1 22 14 12
21 13 24 5 3 -7 16 13 30 43 25 55 22 85 -6 61 -12 -9 -14 -5 -13 29 0 25 5
40 13 40 7 0 13 6 13 13 0 20 -22 37 -48 37 -19 0 -23 5 -20 23 2 16 9 21 26
19 12 -2 22 1 22 7 0 5 10 11 23 13 35 5 27 32 -10 36 -18 2 -33 8 -33 14 0 6
-8 16 -17 23 -15 11 -16 16 -4 38 9 18 25 27 54 31 l40 7 -23 24 c-13 14 -29
25 -35 25 -19 0 -18 70 2 92 14 15 15 23 6 38 -10 14 -9 21 1 29 23 19 27 51
6 51 -14 0 -19 10 -22 46 -3 39 0 49 21 65 13 10 27 16 32 13 5 -3 9 1 9 9 0
8 -7 18 -16 21 -19 7 -9 26 15 26 20 0 35 -36 20 -46 -5 -3 -9 -14 -9 -26 0
-15 5 -19 19 -15 12 3 22 -1 25 -9 3 -8 11 -14 18 -14 8 0 22 -20 33 -45 12
-27 26 -44 34 -43 19 4 34 58 20 74 -5 6 -7 18 -3 27 4 12 -5 35 -32 76 -2 1
-13 -6 -25 -18 -27 -25 -39 -27 -39 -6 0 8 11 22 26 32 14 10 43 34 64 53 38
34 39 37 24 58 -8 12 -21 22 -27 22 -7 0 -13 19 -14 50 -2 40 1 52 17 60 11 6
20 19 20 30 0 10 4 22 10 25 16 10 12 55 -5 55 -8 0 -15 4 -15 9 0 5 -10 11
-22 14 -17 5 -19 9 -10 20 7 8 9 17 5 20 -3 4 0 13 7 22 18 22 6 45 -22 38
-26 -7 -19 5 14 21 13 6 24 19 26 29 3 13 -4 17 -27 17 -17 0 -31 5 -31 10 0
6 5 10 10 10 18 0 10 20 -18 48 -30 30 -30 46 -1 75 11 10 24 38 30 62 6 25
16 42 21 39 10 -6 27 12 28 28 0 4 -7 14 -16 23 -14 13 -18 14 -25 3 -5 -7
-14 -13 -21 -13 -7 0 -13 -9 -13 -20 0 -24 -21 -49 -35 -40 -16 10 -12 38 5
31 11 -4 15 2 15 24 0 20 5 30 15 30 8 0 15 7 15 15 0 8 -4 15 -10 15 -5 0 -7
7 -4 15 4 8 13 15 21 15 13 0 13 3 3 15 -10 12 -9 16 4 21 9 3 13 10 10 15 -3
5 2 9 10 9 9 0 23 11 32 25 9 14 25 25 35 25 23 0 69 21 69 32 0 4 5 8 10 8
17 0 11 -30 -7 -37 -23 -9 -37 -23 -46 -46 -5 -14 -3 -16 12 -8 12 7 21 7 28
0 6 -6 14 -5 23 6 16 19 40 20 40 0 0 -8 5 -15 10 -15 6 0 8 10 5 23 -4 15 1
30 16 46 20 21 23 22 38 6 15 -15 15 -17 -1 -29 -24 -17 -23 -38 2 -54 11 -7
20 -19 20 -28 0 -11 8 -15 28 -14 42 3 43 2 27 -29 -8 -17 -12 -37 -9 -45 4
-11 1 -16 -10 -16 -14 0 -15 -4 -5 -21 9 -17 13 -19 20 -8 6 10 9 10 9 2 0 -7
-9 -17 -21 -24 -16 -8 -18 -14 -10 -22 9 -9 14 -9 19 -1 12 19 60 23 67 6 3
-9 1 -20 -4 -25 -5 -5 -7 -15 -5 -22 3 -7 -5 -20 -18 -29 -23 -17 -20 -20 22
-16 21 2 22 0 11 -14 -8 -10 -9 -16 -3 -16 6 0 13 9 17 19 3 10 15 21 25 24
22 6 37 -8 20 -18 -31 -19 5 -67 47 -63 26 3 28 0 29 -32 0 -30 4 -35 24 -35
13 0 25 -6 28 -13 2 -7 13 -10 28 -6 20 5 26 2 31 -15 3 -11 9 -18 15 -15 5 3
15 1 23 -6 7 -6 32 -12 54 -13 23 -1 41 -5 41 -10 0 -5 14 -7 30 -3 22 4 30 2
30 -8 0 -11 8 -12 37 -5 21 4 42 4 47 -1 4 -4 21 -4 37 0 16 5 29 5 29 0 0 -5
37 -6 83 -3 152 9 322 9 344 0 12 -5 30 -6 40 -2 31 13 75 16 88 5 7 -6 20 -7
30 -4 10 4 20 1 25 -6 9 -14 70 -23 70 -10 0 8 136 3 150 -5 4 -3 10 4 13 15
6 25 67 29 67 5 0 -8 -5 -15 -11 -15 -5 0 -7 -5 -4 -10 4 -6 10 -8 14 -6 12 7
8 -78 -4 -87 -6 -4 -4 -11 6 -17 11 -6 16 -21 15 -42 -1 -22 4 -36 15 -43 9
-5 33 -23 53 -39 63 -50 219 -47 301 6 19 13 35 29 35 36 0 7 5 10 12 6 7 -5
8 -3 4 5 -9 14 21 51 41 51 7 0 13 4 13 10 0 5 11 17 24 25 23 15 27 15 50 0
14 -10 33 -15 41 -11 9 3 13 2 10 -4 -3 -6 -1 -10 4 -10 6 0 25 -14 41 -32 27
-28 34 -30 50 -20 11 7 26 12 35 12 8 0 22 12 32 28 23 35 156 168 184 182 36
20 100 78 98 90 0 3 9 25 20 49 22 50 14 85 -16 74 -13 -5 -15 -2 -10 11 7 18
-1 23 -46 29 -16 2 -32 8 -35 14 -4 5 -31 13 -61 16 -44 5 -57 3 -68 -11 -13
-15 -14 -14 -10 13 l5 30 -56 3 c-30 2 -63 7 -71 11 -9 5 -37 4 -63 -2 -40
-10 -47 -15 -42 -30 5 -16 2 -18 -15 -12 -15 5 -21 2 -21 -10 0 -8 -7 -18 -15
-21 -8 -4 -15 -12 -15 -20 0 -8 -7 -14 -15 -14 -9 0 -30 -15 -48 -32 -17 -18
-44 -39 -59 -47 -16 -8 -28 -18 -28 -23 0 -4 -7 -8 -16 -8 -9 0 -36 -18 -60
-40 -39 -35 -60 -45 -87 -41 -4 1 -12 -10 -17 -24 -5 -14 -16 -25 -25 -25 -8
0 -14 -3 -12 -7 1 -5 -3 -8 -8 -8 -5 0 -9 4 -7 9 2 5 -5 17 -14 27 -10 11 -13
23 -8 31 5 7 7 21 6 31 -2 10 2 25 10 34 15 18 17 41 5 66 -5 12 -3 17 7 17
17 0 28 24 20 45 -8 20 43 66 127 116 38 22 71 48 74 60 4 12 14 30 23 40 9
10 17 30 19 44 3 23 1 25 -35 25 -21 0 -43 5 -50 12 -9 9 -12 9 -12 0 0 -17
-27 -15 -33 2 -3 8 2 17 11 21 14 5 14 7 2 15 -10 7 -11 10 -2 10 6 0 12 5 12
10 0 6 9 21 21 33 23 25 74 115 74 134 0 6 4 15 8 19 4 4 7 18 7 30 0 13 5 26
10 29 6 3 10 15 10 26 0 10 4 27 10 37 14 26 40 128 54 212 11 73 13 75 46 87
19 7 57 12 83 12 63 1 102 -28 134 -99 29 -66 125 -241 129 -237 2 2 -5 35
-16 73 -23 79 -26 118 -8 112 7 -3 24 -51 38 -109 49 -193 52 -199 153 -299
l92 -90 50 8 c106 15 315 7 409 -16 248 -62 449 -220 570 -447 14 -27 26 -48
27 -45 4 29 2 67 -3 63 -5 -2 -8 3 -8 12 0 9 4 14 8 11 5 -3 9 51 9 120 1 121
5 146 21 130 13 -13 14 -215 2 -331 -19 -192 -68 -333 -147 -425 -83 -96 -213
-107 -363 -30 -24 12 -41 16 -45 10 -4 -7 -13 -6 -27 1 -20 11 -21 10 -14 -42
3 -30 9 -128 12 -219 9 -206 -21 -518 -73 -783 -19 -99 -32 -181 -29 -184 3
-4 1 -12 -4 -18 -6 -7 -19 -59 -30 -116 -35 -183 -42 -214 -51 -231 -5 -10 -9
-33 -9 -52 0 -19 -5 -38 -10 -41 -6 -4 -10 -12 -8 -18 4 -24 -13 -85 -27 -97
-8 -7 -15 -22 -15 -35 0 -12 -23 -68 -50 -123 -28 -56 -50 -108 -50 -116 0
-15 -40 -75 -95 -142 -14 -18 -25 -36 -25 -42 0 -5 -7 -12 -15 -16 -8 -3 -15
-13 -15 -22 0 -8 -16 -30 -35 -47 -19 -17 -35 -36 -35 -43 0 -6 -7 -14 -15
-18 -8 -3 -15 -12 -15 -20 0 -8 -8 -21 -17 -28 -10 -7 -23 -22 -29 -33 -6 -11
-20 -24 -32 -30 -12 -5 -22 -18 -22 -27 0 -10 -6 -18 -14 -18 -8 0 -16 -8 -18
-17 -2 -10 -12 -18 -23 -18 -11 0 -20 -4 -21 -10 -3 -34 -25 -65 -48 -65 -15
0 -33 -12 -49 -33 -24 -32 -25 -37 -26 -217 -2 -195 -16 -456 -27 -484 -6 -15
45 -16 620 -16 550 0 626 2 626 15 0 8 5 15 10 15 6 0 9 12 9 28 -2 23 -2 24
-6 4 -5 -26 -23 -20 -23 8 0 11 -6 39 -14 62 -7 24 -21 74 -31 111 -15 60 -19
66 -30 50 -13 -17 -14 -17 -20 -1 -4 10 -11 16 -15 13 -11 -7 -25 14 -26 40
-1 11 -5 28 -9 38 -9 22 1 35 17 19 18 -18 38 -14 38 7 0 22 -50 36 -62 18 -5
-7 -8 -3 -8 11 0 12 -7 34 -16 47 -9 14 -12 25 -6 25 6 0 4 13 -5 31 -8 16
-20 59 -26 95 -6 35 -15 64 -19 64 -4 0 -8 11 -8 25 0 14 -4 25 -10 25 -5 0
-9 3 -8 8 3 10 -22 136 -39 202 -8 30 -18 72 -23 93 -4 21 -10 40 -13 43 -3 4
5 16 19 29 l24 22 -29 89 c-27 84 -31 117 -11 84 8 -13 10 -12 10 2 0 9 -6 23
-14 31 -8 8 -11 19 -6 27 11 18 30 3 30 -24 0 -12 4 -26 9 -31 5 -6 28 -66 51
-135 24 -69 60 -177 82 -240 33 -96 201 -682 222 -772 8 -34 21 -36 37 -5 7
12 41 59 76 104 34 46 63 87 63 92 0 5 7 11 15 15 8 3 15 10 15 16 0 6 4 16
10 23 18 22 75 94 118 151 24 31 51 56 61 56 10 0 31 -17 47 -37 37 -47 222
-306 248 -348 10 -16 22 -32 26 -35 9 -7 118 -174 126 -194 5 -14 31 -16 209
-16 l203 0 11 50 c6 28 11 60 11 70 0 11 5 20 11 20 9 0 10 -20 5 -70 l-6 -70
140 0 c129 0 160 6 129 26 -6 3 -9 19 -7 34 3 22 -1 29 -24 39 -15 7 -28 19
-28 26 0 7 -7 15 -15 19 -8 3 -15 9 -14 13 1 4 1 19 0 32 -1 20 -3 21 -16 11
-12 -10 -15 -9 -15 8 0 34 -11 52 -31 52 -21 0 -26 16 -6 23 8 3 6 10 -9 23
-20 18 -61 111 -56 127 1 4 -9 13 -23 19 -28 12 -33 28 -10 28 28 0 15 25 -23
42 -36 15 -36 16 -9 17 31 1 36 20 7 28 -15 4 -19 11 -15 24 8 24 -32 79 -52
72 -13 -5 -13 -2 -3 16 17 33 4 68 -30 86 -28 15 -36 42 -17 61 3 4 -3 20 -14
35 -11 16 -17 34 -14 40 4 6 -2 19 -13 29 -13 13 -18 27 -15 45 4 16 -1 33
-12 45 -9 10 -14 24 -10 29 3 6 -3 23 -15 38 -14 18 -17 29 -9 33 6 5 7 10 2
13 -5 3 -8 29 -7 56 1 28 -2 49 -6 46 -14 -8 -22 46 -9 61 9 11 9 18 -2 32
-25 31 -39 61 -34 75 3 7 -2 31 -11 53 -26 61 -28 111 -5 119 11 3 38 24 60
46 36 36 38 42 21 46 -16 4 -18 9 -9 24 5 11 7 24 4 29 -4 6 1 7 12 3 17 -6
17 -5 1 13 -13 16 -14 21 -3 31 8 7 17 34 20 60 4 27 11 61 16 77 5 16 9 38 9
49 0 11 7 28 15 37 9 10 17 39 19 66 2 37 7 50 20 52 11 3 15 10 11 22 -4 12
1 25 14 36 10 9 17 23 14 29 -2 7 1 16 6 20 6 3 9 11 6 16 -4 5 1 9 9 9 9 0
16 8 16 19 0 10 7 32 15 47 8 16 15 43 15 60 0 20 11 42 33 66 18 19 33 48 35
63 1 15 13 39 27 52 13 14 27 35 31 47 4 11 22 39 40 62 19 23 34 46 34 51 0
6 8 21 18 34 11 13 22 39 25 58 4 18 18 42 32 53 14 11 23 24 19 29 -3 5 2 12
10 15 9 3 16 12 16 20 0 8 5 14 10 14 6 0 10 7 10 15 0 8 14 24 30 37 17 12
30 26 30 31 0 5 11 18 25 29 14 11 25 28 25 38 0 11 9 24 20 30 20 11 20 21
20 1450 l0 1440 -1577 -1 c-868 -1 -1570 -3 -1560 -6 30 -8 20 -33 -13 -33
-23 0 -33 -6 -42 -25 -10 -21 -8 -28 8 -40 23 -17 74 -16 74 2 0 8 -13 13 -32
14 -31 0 -31 1 -10 10 13 5 28 7 33 3 5 -3 9 2 9 10 0 33 19 14 23 -21 l4 -38
1 38 c2 29 6 37 21 37 11 0 21 5 23 12 3 8 17 2 40 -15 19 -15 40 -27 46 -27
6 0 16 -9 22 -20 13 -23 47 -25 103 -6 31 12 37 12 37 0 0 -8 -7 -17 -15 -20
-8 -4 -13 -10 -10 -15 3 -4 12 -6 20 -3 16 6 75 -16 75 -28 0 -5 7 -8 15 -8
16 0 56 -20 65 -32 3 -4 18 -11 33 -17 15 -6 27 -17 27 -24 0 -8 11 -19 25
-25 14 -6 25 -18 25 -26 0 -7 15 -21 33 -30 27 -13 29 -16 10 -16 -13 0 -23
-5 -23 -11 0 -7 10 -9 25 -5 20 5 25 3 25 -11 1 -26 36 -64 53 -57 8 3 17 -2
21 -13 6 -15 8 -15 17 -3 7 11 8 4 4 -23 -4 -29 0 -42 15 -57 12 -12 25 -18
30 -15 6 4 10 -1 10 -10 0 -9 -4 -14 -9 -11 -13 9 12 -94 31 -124 9 -14 18
-39 21 -57 l6 -31 -77 28 c-42 16 -113 45 -157 65 -44 20 -94 43 -112 51 -168
76 -762 286 -1126 399 -83 26 -160 53 -171 61 -11 8 -27 14 -36 14 -8 0 -26 9
-40 20 -14 11 -29 20 -35 20 -5 0 -3 -5 5 -11 12 -9 12 -10 -3 -5 -11 3 -30 9
-43 12 -13 3 -21 10 -18 15 3 5 -2 9 -10 9 -11 0 -16 9 -16 30 0 26 6 32 30
32 3 0 14 9 25 20 20 20 20 20 -15 16 -23 -2 -35 -8 -35 -18 -1 -8 -6 -14 -13
-12 -7 1 -12 -4 -12 -12 0 -7 -6 -26 -14 -40 -13 -25 -14 -25 -19 -6 -5 21
-27 28 -27 9 0 -5 -5 -7 -10 -4 -15 9 -12 45 5 51 8 4 15 12 15 20 0 11 -146
14 -915 14 l-915 0 3 -2367z m1747 2327 c0 -5 -4 -10 -10 -10 -5 0 -10 5 -10
10 0 6 5 10 10 10 6 0 10 -4 10 -10z m1534 -95 c-6 -16 -24 -21 -24 -7 0 11
11 22 21 22 5 0 6 -7 3 -15z m-2469 -57 c-35 -25 -147 -139 -189 -192 -42 -54
-44 -36 -3 26 41 61 93 113 157 157 51 34 82 42 35 9z m2765 -198 c0 -5 -5
-10 -11 -10 -5 0 -7 5 -4 10 3 6 8 10 11 10 2 0 4 -4 4 -10z m-3107 -27 c4 -3
19 -8 34 -9 15 -2 29 -8 31 -14 2 -6 10 -17 19 -25 17 -17 20 -17 -79 -15 -42
1 -86 -4 -97 -10 -30 -16 -28 11 5 49 25 29 70 42 87 24z m131 -77 c-7 -17
-34 -23 -34 -6 0 9 32 31 38 26 1 -2 0 -11 -4 -20z m-34 -66 c-6 -11 -15 -20
-20 -20 -16 0 -11 18 8 29 24 14 24 14 12 -9z m2125 -55 c22 -4 48 -14 57 -22
11 -10 52 -19 110 -25 161 -16 344 -65 335 -91 -2 -6 -35 -28 -75 -47 -77 -39
-112 -66 -112 -87 0 -19 -30 -16 -107 11 -37 14 -96 29 -131 35 -77 12 -79 14
-87 54 -4 17 -20 61 -36 96 -34 74 -36 94 -11 88 9 -3 35 -8 57 -12z m-2135
-85 c0 -21 3 -51 6 -68 6 -28 8 -29 37 -21 50 14 391 11 517 -5 231 -29 427
-77 603 -147 100 -40 147 -65 147 -79 0 -4 -16 -20 -35 -34 -25 -20 -49 -28
-87 -30 -29 -1 -61 -6 -70 -10 -18 -8 -34 -42 -30 -62 4 -19 -17 -64 -28 -64
-6 0 -16 11 -22 25 -24 53 -119 85 -148 50 -7 -8 -18 -15 -25 -15 -7 0 -18 7
-25 15 -14 17 -95 21 -105 5 -3 -5 -22 -10 -41 -10 -33 0 -34 1 -34 39 0 38
-22 72 -34 52 -13 -21 -19 -101 -7 -101 14 0 15 -37 0 -45 -5 -4 -23 -2 -39 5
-23 10 -34 9 -61 -6 -41 -21 -97 -24 -207 -12 -46 4 -107 9 -135 10 -34 0 -60
7 -76 19 -13 11 -25 18 -27 16 -1 -1 6 -32 16 -67 52 -183 149 -328 309 -458
235 -193 684 -249 1020 -128 156 56 361 175 431 251 36 38 35 39 -12 16 -28
-14 -64 -8 -53 9 12 19 -17 85 -51 117 -19 18 -34 37 -34 42 0 18 49 24 134
18 137 -11 147 -19 97 -74 -15 -17 -31 -44 -34 -59 -5 -27 -3 -26 37 16 23 25
49 56 59 69 27 40 32 15 5 -26 -75 -113 -212 -229 -386 -327 -114 -64 -133
-69 -425 -136 -97 -22 -229 -24 -354 -5 -266 39 -504 181 -663 395 -101 136
-186 332 -213 491 -21 121 -22 279 -2 340 14 41 19 48 31 38 8 -6 14 -28 14
-49z m3015 -49 c3 -5 19 -12 35 -16 17 -4 30 -10 30 -14 0 -5 21 -16 48 -26
26 -10 52 -22 57 -27 6 -5 -15 0 -45 12 -30 12 -59 22 -65 24 -18 4 -90 28
-98 33 -11 6 2 23 18 23 8 0 16 -4 20 -9z m-402 -83 c-13 -12 -26 -18 -30 -14
-4 4 1 14 11 22 31 22 43 17 19 -8z m-439 -25 c3 -4 17 -8 29 -10 107 -16 216
-46 258 -73 63 -41 73 -54 55 -69 -11 -10 -16 -9 -23 2 -10 19 -156 92 -208
105 -71 18 -125 23 -125 12 0 -5 -4 -10 -10 -10 -5 0 -10 8 -10 18 0 28 18 41
34 25z m1163 -35 c124 -71 296 -235 378 -358 67 -102 139 -267 161 -368 15
-70 23 -88 50 -111 18 -16 37 -38 43 -49 14 -26 14 -72 1 -72 -5 0 -10 7 -10
15 0 8 -13 21 -30 30 -27 14 -64 71 -59 91 5 17 -23 128 -57 228 -51 152 -148
301 -273 418 -68 64 -185 158 -199 158 -9 1 -59 39 -50 40 4 0 24 -10 45 -22z
m-2425 -424 c70 -23 66 -32 -6 -19 l-64 12 -6 -29 c-7 -34 -31 -35 -52 -3 -12
18 -11 24 2 44 17 24 35 24 126 -5z m40 -80 c21 -4 41 -10 44 -15 2 -4 11 -6
18 -3 21 8 30 -16 13 -34 -13 -12 -19 -13 -30 -3 -8 6 -19 11 -23 10 -5 -1
-28 -1 -52 0 -31 1 -44 6 -49 19 -4 9 -14 22 -22 29 -11 8 -12 12 -3 13 6 0
12 7 12 16 0 13 5 12 27 -5 14 -12 43 -24 65 -27z m710 10 c3 -3 1 -21 -5 -40
-9 -30 -14 -34 -44 -34 -34 0 -43 18 -25 47 12 19 64 38 74 27z m-722 -290 c0
-2 -7 -4 -15 -4 -8 0 -15 4 -15 10 0 5 7 7 15 4 8 -4 15 -8 15 -10z m530 -46
c49 -28 50 -45 5 -64 -37 -15 -55 -12 -55 10 0 8 -10 20 -22 28 -26 18 -19 48
12 48 12 0 39 -10 60 -22z m2375 -28 c-5 -8 -11 -8 -17 -2 -6 6 -7 16 -3 22 5
8 11 8 17 2 6 -6 7 -16 3 -22z m-1485 -130 c0 -5 -7 -10 -16 -10 -8 0 -12 5
-9 10 3 6 10 10 16 10 5 0 9 -4 9 -10z m-2630 -680 c0 -5 -4 -10 -10 -10 -5 0
-10 5 -10 10 0 6 5 10 10 10 6 0 10 -4 10 -10z m-217 -248 c-6 -13 -25 -13
-24 1 1 4 1 17 1 29 0 21 0 21 14 3 8 -11 11 -25 9 -33z m-16 -94 c-3 -7 -5
-2 -5 12 0 14 2 19 5 13 2 -7 2 -19 0 -25z m33 -301 c0 -16 -3 -19 -9 -8 -5 7
-14 10 -21 6 -9 -6 -9 -3 0 14 13 26 30 19 30 -12z m0 -163 c0 -11 -5 -14 -16
-10 -9 3 -20 6 -25 6 -6 0 -7 5 -4 10 10 16 45 12 45 -6z m-20 -88 c0 -3 -4
-8 -10 -11 -5 -3 -10 -1 -10 4 0 6 5 11 10 11 6 0 10 -2 10 -4z m222 -578 c-7
-7 -12 -8 -12 -2 0 14 12 26 19 19 2 -3 -1 -11 -7 -17z m3478 -348 c0 -5 -2
-10 -4 -10 -3 0 -8 5 -11 10 -3 6 -1 10 4 10 6 0 11 -4 11 -10z m-2920 -25 c0
-8 -4 -15 -10 -15 -5 0 -10 7 -10 15 0 8 5 15 10 15 6 0 10 -7 10 -15z m2937
-47 c-3 -8 -6 -5 -6 6 -1 11 2 17 5 13 3 -3 4 -12 1 -19z m33 -64 c0 -8 -4
-12 -10 -9 -5 3 -10 13 -10 21 0 8 5 12 10 9 6 -3 10 -13 10 -21z m20 -60 c0
-8 -4 -12 -10 -9 -5 3 -10 13 -10 21 0 8 5 12 10 9 6 -3 10 -13 10 -21z
m-2595 -164 c-3 -5 -13 -10 -21 -10 -8 0 -14 5 -14 10 0 6 9 10 21 10 11 0 17
-4 14 -10z m415 -111 c0 -10 -33 -12 -43 -3 -3 3 0 12 6 19 12 13 37 2 37 -16z
m2185 22 c3 -5 1 -12 -5 -16 -5 -3 -10 1 -10 9 0 18 6 21 15 7z m-2019 -26
c-25 -19 -36 -19 -36 0 0 10 10 15 28 15 26 -1 26 -1 8 -15z m-1492 -67 c6 -5
2 -8 -11 -8 -24 0 -29 15 -16 47 7 16 8 15 11 -7 2 -14 9 -28 16 -32z m-272
20 c-7 -7 -12 -8 -12 -2 0 14 12 26 19 19 2 -3 -1 -11 -7 -17z m63 -28 c3 -5
-1 -10 -9 -10 -9 0 -16 5 -16 10 0 6 4 10 9 10 6 0 13 -4 16 -10z m2285 -42
c0 -5 -4 -8 -10 -8 -5 0 -10 10 -10 23 0 18 2 19 10 7 5 -8 10 -18 10 -22z
m-2055 12 c3 -5 2 -10 -4 -10 -5 0 -13 5 -16 10 -3 6 -2 10 4 10 5 0 13 -4 16
-10z m935 -71 c0 -5 -4 -9 -10 -9 -5 0 -10 7 -10 16 0 8 5 12 10 9 6 -3 10
-10 10 -16z m1593 -20 c5 -3 0 -9 -11 -11 -15 -4 -18 -1 -14 14 2 10 7 15 11
11 3 -4 10 -11 14 -14z m-65 -1 c-3 -7 -11 -13 -18 -13 -7 0 -15 6 -17 13 -3
7 4 12 17 12 13 0 20 -5 18 -12z m-2436 -25 c11 -9 18 -11 18 -5 0 7 5 12 10
12 13 0 13 -23 -1 -37 -13 -13 -72 6 -97 30 -15 16 -14 17 18 17 18 0 42 -7
52 -17z m2508 -22 c0 -6 -4 -13 -10 -16 -5 -3 -10 1 -10 9 0 9 5 16 10 16 6 0
10 -4 10 -9z m-40 -117 c0 -16 -16 -19 -25 -4 -8 13 4 32 16 25 5 -4 9 -13 9
-21z m-710 -20 c0 -8 -5 -12 -10 -9 -6 4 -8 11 -5 16 9 14 15 11 15 -7z
m-1662 -54 c3 -7 0 -10 -7 -6 -7 4 -11 -1 -11 -13 0 -11 -5 -23 -10 -26 -7 -4
-9 2 -5 18 4 14 2 28 -4 31 -6 4 -11 14 -11 23 0 14 2 14 22 1 12 -8 24 -21
26 -28z m62 -46 c0 -20 -4 -25 -16 -20 -9 3 -18 6 -20 6 -2 0 -4 9 -4 20 0 13
7 20 20 20 15 0 20 -7 20 -26z m110 -169 c0 -9 -6 -12 -15 -9 -8 4 -15 10 -15
15 0 5 7 9 15 9 8 0 15 -7 15 -15z m1920 -24 c0 -4 -7 -8 -15 -8 -8 0 -15 6
-15 13 0 8 6 11 15 8 8 -4 15 -9 15 -13z m-1672 -144 c5 -23 -10 -21 -26 4
-12 18 -11 20 5 17 10 -2 19 -11 21 -21z m3222 -97 c0 -5 -4 -12 -10 -15 -5
-3 -10 -4 -10 -1 0 2 -3 12 -6 20 -5 12 -2 15 10 10 9 -3 16 -10 16 -14z m10
-64 c0 -11 -19 -15 -25 -6 -3 5 1 10 9 10 9 0 16 -2 16 -4z m-3140 -47 c0 -11
-4 -17 -10 -14 -5 3 -10 13 -10 21 0 8 5 14 10 14 6 0 10 -9 10 -21z m50 -25
c0 -8 -7 -14 -15 -14 -15 0 -21 21 -9 33 10 9 24 -2 24 -19z m3095 7 c3 -5 1
-12 -5 -16 -5 -3 -10 1 -10 9 0 18 6 21 15 7z"/>
<path d="M1840 5986 c0 -9 7 -16 16 -16 17 0 14 22 -4 28 -7 2 -12 -3 -12 -12z"/>
<path d="M2020 5990 c0 -5 5 -10 10 -10 6 0 10 5 10 10 0 6 -4 10 -10 10 -5 0
-10 -4 -10 -10z"/>
<path d="M2075 5983 c-2 -8 4 -13 14 -13 11 0 26 -3 34 -6 10 -3 20 3 27 16
10 19 9 20 -29 18 -23 -2 -43 -9 -46 -15z"/>
<path d="M2312 5983 c5 -26 74 -40 97 -19 11 11 21 12 27 6 7 -7 23 -5 47 5
29 12 42 13 58 4 22 -11 49 -6 49 11 0 6 -51 10 -141 10 -127 0 -140 -2 -137
-17z"/>
<path d="M2630 5988 c0 -11 47 -21 66 -14 9 4 14 10 10 13 -10 10 -76 11 -76
1z"/>
<path d="M2730 5976 c0 -17 14 -29 23 -20 8 8 -3 34 -14 34 -5 0 -9 -6 -9 -14z"/>
<path d="M2528 5943 c-25 -6 -23 -50 3 -63 25 -14 37 -5 23 18 -8 13 -6 20 10
34 21 17 21 17 1 17 -11 -1 -28 -3 -37 -6z"/>
<path d="M1973 5932 c-29 -3 -31 -5 -20 -23 15 -24 22 -24 47 1 22 22 17 27
-27 22z"/>
<path d="M3005 5900 c-3 -5 1 -10 9 -10 8 0 18 5 21 10 3 6 -1 10 -9 10 -8 0
-18 -4 -21 -10z"/>
<path d="M2996 5822 c-3 -6 -1 -14 5 -17 15 -10 25 3 12 16 -7 7 -13 7 -17 1z"/>
<path d="M3195 5810 c3 -5 8 -10 11 -10 2 0 4 5 4 10 0 6 -5 10 -11 10 -5 0
-7 -4 -4 -10z"/>
<path d="M3280 5789 c0 -5 5 -7 10 -4 6 3 10 8 10 11 0 2 -4 4 -10 4 -5 0 -10
-5 -10 -11z"/>
<path d="M2670 4674 c0 -8 5 -12 10 -9 6 3 10 10 10 16 0 5 -4 9 -10 9 -5 0
-10 -7 -10 -16z"/>
<path d="M3444 4254 c20 -53 28 -113 23 -177 -6 -65 -4 -76 17 -107 13 -19 36
-54 50 -77 16 -27 34 -43 45 -43 14 0 21 -8 23 -27 l3 -28 12 27 c11 24 9 28
-22 49 -30 21 -64 69 -49 69 7 0 64 -40 82 -57 7 -7 18 -13 24 -13 7 0 6 -5
-1 -14 -13 -16 1 -56 19 -56 6 0 10 -7 10 -15 0 -16 15 -21 23 -7 2 4 3 2 1
-5 -1 -6 6 -19 16 -28 10 -9 22 -30 25 -46 4 -16 14 -33 23 -38 13 -7 14 -12
4 -24 -10 -11 -10 -17 -1 -22 6 -4 15 -2 19 5 6 9 9 9 15 1 5 -9 10 -9 20 -1
7 6 16 7 19 2 8 -13 -5 -52 -17 -52 -5 0 3 -13 19 -28 77 -73 194 -132 262
-132 44 0 109 17 117 30 3 5 -17 21 -44 35 -43 22 -52 31 -62 67 -6 24 -15 48
-20 54 -5 7 -9 16 -8 20 1 5 -1 21 -5 37 -6 21 -14 27 -36 27 -47 0 -91 21
-101 48 -6 16 -6 29 0 35 16 16 2 34 -23 30 -13 -3 -30 2 -38 10 -10 10 -19
12 -25 6 -6 -6 -14 -4 -23 6 -18 21 -33 19 -25 -5 4 -12 0 -26 -8 -35 -13 -13
-16 -11 -21 11 -9 35 9 64 35 57 14 -4 20 -2 16 5 -4 5 -27 10 -52 10 -33 -1
-49 4 -59 17 -9 13 -15 15 -20 7 -10 -17 -36 -15 -36 3 0 17 -66 83 -94 94
-17 7 -19 16 -17 63 2 39 -2 58 -13 67 -9 7 -13 17 -10 22 11 19 -21 92 -51
115 -37 28 -50 30 -41 8z m446 -516 c0 -11 -8 -10 -30 2 -12 7 -16 17 -13 31
6 22 6 22 24 -2 10 -13 19 -27 19 -31z m-110 1 c0 -5 -7 -9 -15 -9 -15 0 -20
12 -9 23 8 8 24 -1 24 -14z m74 -41 c19 -20 -4 -59 -27 -47 -20 12 -22 30 -5
47 15 15 17 15 32 0z m139 -68 c3 -11 10 -19 17 -18 13 3 46 -69 36 -79 -10
-10 -46 28 -46 49 0 10 -7 18 -15 18 -9 0 -15 9 -15 25 0 30 16 33 23 5z m-33
-100 c0 -11 -4 -20 -10 -20 -5 0 -10 9 -10 20 0 11 5 20 10 20 6 0 10 -9 10
-20z m30 -39 c0 -6 -4 -13 -10 -16 -5 -3 -10 1 -10 9 0 9 5 16 10 16 6 0 10
-4 10 -9z m215 -41 c3 -5 1 -10 -4 -10 -6 0 -11 5 -11 10 0 6 2 10 4 10 3 0 8
-4 11 -10z"/>
<path d="M2917 4223 c-4 -3 -7 -11 -7 -17 0 -6 5 -5 12 2 6 6 9 14 7 17 -3 3
-9 2 -12 -2z"/>
<path d="M3445 3930 c-3 -6 -13 -63 -20 -128 -8 -69 -24 -147 -39 -187 -24
-65 -26 -98 -6 -65 7 10 10 11 10 2 0 -16 98 -112 115 -112 8 0 21 -7 30 -17
29 -29 127 -75 138 -64 15 15 13 187 -3 206 -12 14 -11 18 1 26 8 5 9 9 3 9
-12 0 -39 45 -39 65 0 7 -9 24 -20 37 -21 24 -85 116 -85 122 0 4 -68 107 -75
114 -2 2 -6 -2 -10 -8z"/>
<path d="M3261 3838 c-32 -12 -124 -91 -153 -130 -19 -28 -23 -50 -30 -172 -9
-168 -4 -181 52 -136 21 17 41 30 45 30 4 0 31 20 60 45 68 59 97 123 102 226
3 60 1 80 -11 92 -9 9 -16 20 -16 25 0 20 -25 30 -49 20z"/>
<path d="M3651 3740 c18 -22 35 -40 38 -40 3 0 17 -3 30 -7 l25 -6 -22 23
c-12 13 -22 30 -22 37 0 15 -17 18 -22 3 -2 -6 -13 -2 -25 10 -36 33 -36 23
-2 -20z"/>
<path d="M362 3568 c-14 -14 -16 -38 -2 -38 9 0 30 31 30 44 0 10 -15 7 -28
-6z"/>
<path d="M300 3375 c-10 -13 -9 -15 9 -15 11 0 21 4 21 9 0 18 -18 21 -30 6z"/>
<path d="M106 3270 c7 -7 19 -7 35 -1 23 9 22 10 -10 10 -24 1 -32 -2 -25 -9z"/>
<path d="M236 3202 c-3 -6 -1 -14 5 -17 15 -10 25 3 12 16 -7 7 -13 7 -17 1z"/>
<path d="M156 3163 c-6 -14 -5 -15 5 -6 7 7 10 15 7 18 -3 3 -9 -2 -12 -12z"/>
<path d="M157 3105 c-7 -16 8 -29 23 -20 15 9 12 35 -4 35 -8 0 -16 -7 -19
-15z"/>
<path d="M117 3047 c-18 -27 -7 -53 17 -44 17 7 22 52 7 61 -5 3 -16 -5 -24
-17z"/>
<path d="M203 3033 c-35 -7 -27 -23 11 -23 21 0 36 6 40 15 5 15 -5 17 -51 8z"/>
<path d="M2660 2919 c-76 -13 -100 -21 -100 -32 0 -8 -3 -8 -11 0 -8 8 -34 5
-94 -12 -46 -12 -87 -25 -93 -29 -5 -3 -27 -8 -47 -11 -21 -2 -45 -7 -54 -9
-9 -3 -33 -8 -53 -10 -20 -3 -48 -12 -61 -21 -43 -28 -162 -55 -226 -51 -33 2
-63 0 -66 -3 -10 -10 -119 -10 -131 0 -13 11 -50 -38 -45 -60 1 -8 -3 -18 -11
-22 -10 -7 -10 -9 2 -9 13 0 13 -1 0 -10 -13 -8 -12 -10 3 -10 23 0 22 -16 -3
-23 -28 -7 -25 -29 3 -25 12 2 30 -5 40 -15 15 -15 26 -17 60 -11 62 12 94 7
135 -18 24 -15 53 -22 93 -24 49 -1 58 1 63 18 2 11 9 17 15 14 6 -4 18 1 28
11 14 14 36 19 88 21 39 1 111 4 160 7 136 8 171 6 301 -16 65 -11 146 -24
179 -28 33 -4 105 -22 160 -39 55 -18 118 -34 140 -38 46 -7 106 -64 135 -129
10 -22 29 -50 43 -63 23 -21 26 -22 38 -7 8 8 19 21 25 28 34 39 -8 106 -59
94 -12 -4 -27 -3 -32 1 -10 7 -12 14 -21 56 -4 24 -44 67 -55 60 -5 -3 -9 7
-9 21 0 14 -4 24 -9 20 -5 -3 -12 -1 -16 5 -3 5 -18 7 -34 4 -26 -6 -28 -4
-23 26 4 26 1 32 -18 37 -16 4 -18 8 -8 14 9 6 4 10 -17 15 -25 4 -31 11 -30
31 0 14 -6 28 -12 30 -7 3 -13 -2 -13 -10 0 -8 -7 -17 -15 -21 -11 -4 -15 1
-15 18 0 13 -7 26 -15 29 -13 5 -13 10 0 41 15 34 12 66 -6 66 -5 0 -9 -12
-10 -27 -1 -45 -13 -64 -48 -79 l-33 -14 15 24 c21 32 8 43 -16 14 -10 -13
-16 -18 -13 -12 3 6 8 30 11 54 6 48 -14 90 -43 90 -9 0 -26 7 -36 15 -11 8
-30 15 -42 15 -13 0 -26 5 -29 10 -3 6 -9 9 -13 9 -4 -1 -27 -5 -52 -10z m-60
-79 c8 -5 12 -12 8 -15 -9 -9 -48 4 -48 16 0 12 21 11 40 -1z"/>
<path d="M2986 2751 c-4 -5 -2 -12 3 -15 5 -4 12 -2 15 3 4 5 2 12 -3 15 -5 4
-12 2 -15 -3z"/>
<path d="M166 2584 c-9 -24 -2 -26 12 -4 7 11 8 20 3 20 -5 0 -12 -7 -15 -16z"/>
<path d="M2140 2525 c0 -14 5 -25 10 -25 6 0 10 11 10 25 0 14 -4 25 -10 25
-5 0 -10 -11 -10 -25z"/>
<path d="M2215 2540 c-3 -5 -2 -10 4 -10 5 0 13 5 16 10 3 6 2 10 -4 10 -5 0
-13 -4 -16 -10z"/>
<path d="M2085 2510 c3 -5 13 -10 21 -10 8 0 14 5 14 10 0 6 -9 10 -21 10 -11
0 -17 -4 -14 -10z"/>
<path d="M2185 2490 c-3 -5 -1 -10 4 -10 6 0 11 5 11 10 0 6 -2 10 -4 10 -3 0
-8 -4 -11 -10z"/>
<path d="M2275 2480 c3 -5 8 -10 11 -10 2 0 4 5 4 10 0 6 -5 10 -11 10 -5 0
-7 -4 -4 -10z"/>
<path d="M2306 2461 c-3 -5 1 -11 9 -15 9 -3 15 0 15 9 0 16 -16 20 -24 6z"/>
<path d="M2350 2461 c0 -6 5 -13 10 -16 6 -3 10 1 10 9 0 9 -4 16 -10 16 -5 0
-10 -4 -10 -9z"/>
<path d="M2420 2440 c0 -5 5 -10 10 -10 6 0 10 5 10 10 0 6 -4 10 -10 10 -5 0
-10 -4 -10 -10z"/>
<path d="M2380 2430 c0 -5 5 -10 10 -10 6 0 10 5 10 10 0 6 -4 10 -10 10 -5 0
-10 -4 -10 -10z"/>
<path d="M2457 2416 c-13 -10 -15 -16 -6 -21 10 -7 28 10 29 28 0 9 -2 9 -23
-7z"/>
<path d="M2499 2407 c6 -8 7 -18 3 -22 -4 -5 0 -6 9 -2 9 3 23 -3 32 -14 18
-21 47 -26 47 -8 0 8 5 8 15 -1 12 -10 15 -10 15 3 0 9 -6 19 -12 24 -13 8
-17 9 -71 12 -16 0 -25 5 -22 11 3 6 -1 10 -11 10 -13 0 -14 -3 -5 -13z"/>
<path d="M2315 2350 c4 -6 11 -8 16 -5 5 4 12 -1 15 -10 5 -12 10 -13 20 -4
20 16 8 29 -27 29 -18 0 -28 -4 -24 -10z"/>
<path d="M2399 2347 c0 -1 -2 -17 -3 -34 -3 -25 0 -33 13 -34 10 0 11 -2 4 -6
-21 -8 -14 -25 7 -18 14 4 20 2 20 -8 0 -9 -5 -17 -12 -19 -7 -3 -9 -12 -5
-22 4 -11 13 -16 22 -12 11 4 17 -3 22 -25 8 -42 37 -56 57 -27 13 19 16 19
22 5 4 -13 9 -14 19 -4 7 6 10 18 8 24 -3 9 4 13 21 13 29 0 35 -16 9 -24 -12
-3 -9 -5 7 -4 46 1 51 -2 66 -37 17 -41 23 -45 16 -10 -6 32 19 42 50 21 24
-17 53 -22 44 -7 -10 16 19 19 45 5 22 -12 22 -13 4 -14 -18 -1 -19 -1 -2 -11
9 -5 22 -7 27 -4 6 3 10 1 10 -4 0 -6 4 -11 8 -11 5 0 7 14 4 30 -6 41 15 39
33 -2 12 -27 14 -29 15 -11 0 25 16 39 24 21 4 -10 8 -9 18 2 7 8 20 15 28 15
11 0 15 11 15 39 0 38 -1 40 -74 78 -48 25 -77 36 -84 29 -6 -6 -24 -4 -49 5
-22 8 -47 14 -56 14 -8 0 -20 7 -26 15 -14 18 -68 24 -148 14 -42 -5 -82 -3
-120 6 -32 7 -58 13 -59 12z m126 -137 c8 -13 -24 -72 -35 -65 -13 8 -13 31 0
56 12 21 25 25 35 9z"/>
<path d="M2880 2060 c0 -5 5 -10 10 -10 6 0 10 5 10 10 0 6 -4 10 -10 10 -5 0
-10 -4 -10 -10z"/>
<path d="M705 1860 c-3 -5 -1 -10 4 -10 6 0 11 5 11 10 0 6 -2 10 -4 10 -3 0
-8 -4 -11 -10z"/>
<path d="M687 1783 c-5 -27 -2 -41 7 -32 11 10 17 59 8 59 -5 0 -12 -12 -15
-27z"/>
<path d="M927 1564 c-8 -8 1 -24 13 -24 4 0 10 7 14 15 5 15 -14 21 -27 9z"/>
<path d="M1255 1530 c-3 -5 -2 -10 4 -10 5 0 13 5 16 10 3 6 2 10 -4 10 -5 0
-13 -4 -16 -10z"/>
<path d="M1335 1425 c-27 -22 -28 -25 -9 -25 11 0 31 11 44 25 31 33 6 33 -35
0z"/>
<path d="M1390 1410 c0 -5 5 -10 10 -10 6 0 10 5 10 10 0 6 -4 10 -10 10 -5 0
-10 -4 -10 -10z"/>
<path d="M1286 1392 c-3 -6 -1 -14 5 -17 15 -10 25 3 12 16 -7 7 -13 7 -17 1z"/>
<path d="M1333 1373 c-7 -2 -13 -11 -13 -20 0 -20 34 -12 38 10 3 17 -3 20
-25 10z"/>
<path d="M1460 1310 c0 -5 5 -10 10 -10 6 0 10 5 10 10 0 6 -4 10 -10 10 -5 0
-10 -4 -10 -10z"/>
<path d="M1425 1290 c-3 -5 1 -10 9 -10 9 0 16 5 16 10 0 6 -4 10 -9 10 -6 0
-13 -4 -16 -10z"/>
<path d="M1810 1220 c0 -5 5 -10 11 -10 5 0 7 5 4 10 -3 6 -8 10 -11 10 -2 0
-4 -4 -4 -10z"/>
<path d="M3877 1113 c-4 -3 -7 -17 -7 -31 0 -21 2 -22 15 -12 8 7 15 21 15 31
0 19 -11 25 -23 12z"/>
<path d="M2590 1070 c0 -5 5 -10 10 -10 6 0 10 5 10 10 0 6 -4 10 -10 10 -5 0
-10 -4 -10 -10z"/>
<path d="M3890 1035 c0 -14 4 -33 9 -43 6 -9 13 -30 16 -47 l7 -30 13 25 c13
23 12 27 -7 43 -17 14 -19 20 -9 26 10 7 10 13 2 30 -16 28 -31 27 -31 -4z"/>
<path d="M3940 895 c0 -14 5 -25 10 -25 6 0 10 11 10 25 0 14 -4 25 -10 25 -5
0 -10 -11 -10 -25z"/>
<path d="M150 853 c0 -13 5 -23 10 -23 13 0 13 11 0 30 -8 12 -10 11 -10 -7z"/>
<path d="M3950 843 c0 -5 4 -15 10 -23 11 -18 25 -7 17 15 -6 15 -27 21 -27 8z"/>
<path d="M5400 800 c0 -5 5 -10 11 -10 5 0 7 5 4 10 -3 6 -8 10 -11 10 -2 0
-4 -4 -4 -10z"/>
<path d="M3970 765 c0 -8 7 -15 15 -15 8 0 15 7 15 15 0 8 -7 15 -15 15 -8 0
-15 -7 -15 -15z"/>
<path d="M3995 710 c-7 -12 2 -30 16 -30 12 0 12 27 0 35 -5 3 -12 1 -16 -5z"/>
<path d="M4017 644 c-11 -11 -8 -44 3 -44 15 0 24 30 13 41 -5 5 -12 6 -16 3z"/>
<path d="M355 571 c-3 -2 -5 -13 -5 -23 0 -16 5 -18 34 -13 20 4 36 2 40 -4 4
-6 15 -11 24 -10 13 0 12 3 -5 11 -13 6 -23 19 -23 30 0 14 -7 18 -30 16 -17
-1 -33 -4 -35 -7z"/>
<path d="M4026 571 c-4 -5 -3 -16 0 -24 8 -22 33 -10 27 14 -6 20 -18 25 -27
10z"/>
<path d="M542 544 c-18 -19 -15 -24 13 -24 15 0 25 6 25 14 0 20 -23 26 -38
10z"/>
<path d="M4047 493 c-13 -12 -7 -33 8 -33 8 0 15 9 15 20 0 20 -11 26 -23 13z"/>
<path d="M566 418 c-21 -24 -21 -25 19 -20 48 6 65 28 26 34 -20 3 -35 -1 -45
-14z"/>
<path d="M4082 360 c-17 -28 -15 -40 8 -40 21 0 27 24 12 47 -6 9 -11 7 -20
-7z"/>
</g>
</svg>
