<?xml version="1.0" standalone="no"?>
<!DOCTYPE svg PUBLIC "-//W3C//DTD SVG 20010904//EN"
 "http://www.w3.org/TR/2001/REC-SVG-20010904/DTD/svg10.dtd">
<svg version="1.0" xmlns="http://www.w3.org/2000/svg"
 width="600.000000pt" height="600.000000pt" viewBox="0 0 600.000000 600.000000"
 preserveAspectRatio="xMidYMid meet">
<metadata>
Created by potrace 1.11, written by Peter Selinger 2001-2013
</metadata>
<g transform="translate(0.000000,600.000000) scale(0.100000,-0.100000)"
fill="#000000" stroke="none">
<path d="M0 4965 c0 -1022 0 -1035 20 -1035 54 0 219 -86 260 -136 10 -11 14
-11 27 2 13 12 13 17 1 31 -9 12 -9 15 0 9 9 -5 12 2 12 28 0 41 -14 53 -38
34 -16 -12 -16 -11 -2 6 8 11 15 20 14 20 0 1 -6 11 -13 24 -6 12 -18 22 -25
22 -25 0 -25 39 -1 68 13 15 26 45 30 65 5 27 12 37 24 35 22 -4 25 31 5 57
-13 17 -17 18 -27 5 -13 -16 -47 -23 -47 -10 0 4 7 11 16 14 10 4 14 14 11 25
-3 14 -1 18 9 14 8 -3 15 -1 15 3 1 5 3 19 4 31 3 28 54 89 71 85 7 -1 15 2
19 8 3 5 16 10 27 10 17 0 13 -8 -26 -46 -54 -55 -62 -80 -10 -34 27 23 43 30
60 26 14 -4 24 -2 24 4 0 5 9 10 20 10 11 0 20 -7 20 -16 0 -8 5 -12 10 -9 6
4 8 10 5 15 -8 12 13 50 26 50 7 0 10 -14 7 -34 -2 -19 1 -34 6 -33 5 1 16
-11 24 -26 12 -24 19 -28 44 -25 26 4 29 2 23 -16 -4 -12 -8 -29 -9 -39 -1
-10 -9 -22 -16 -27 -12 -7 -11 -12 3 -28 16 -18 16 -20 2 -26 -30 -11 -6 -24
34 -19 39 5 40 5 39 -27 -1 -19 -8 -36 -20 -43 -18 -12 -25 -37 -10 -37 4 0
14 6 20 12 10 10 15 10 23 -2 8 -13 11 -13 20 3 5 9 19 17 30 17 16 0 17 -3 7
-19 -9 -15 -9 -25 0 -46 10 -22 18 -26 45 -23 31 3 32 1 32 -32 0 -29 4 -35
22 -35 13 0 28 -6 35 -13 8 -8 15 -8 24 -1 8 7 14 7 19 -1 10 -16 41 -13 282
34 125 24 264 49 308 55 44 7 114 18 155 26 96 19 428 72 500 80 111 13 247
47 307 77 67 33 141 98 135 116 -2 7 0 12 5 12 5 0 8 14 5 30 -4 25 -9 30 -32
30 -16 0 -30 6 -32 12 -4 10 -10 10 -32 0 -27 -12 -28 -12 -21 18 7 30 82 151
98 158 4 2 7 15 7 28 0 27 24 89 43 112 6 8 13 34 13 56 1 23 11 68 22 101 11
33 23 85 26 117 7 51 10 57 39 69 18 8 58 14 89 14 74 0 96 -21 152 -140 45
-95 110 -204 103 -170 -3 11 -10 40 -15 65 -19 81 -20 90 -12 95 15 9 27 -21
59 -149 17 -70 38 -140 46 -155 7 -14 52 -63 100 -109 l86 -83 81 12 c104 15
267 6 377 -21 97 -23 229 -83 304 -136 83 -59 201 -189 252 -278 46 -80 47
-80 42 -39 -3 22 -1 45 4 50 6 6 6 26 0 54 -7 30 -7 47 1 56 6 8 8 30 4 56 -4
24 -2 54 3 68 l9 24 9 -25 c23 -60 9 -357 -24 -489 -36 -149 -130 -294 -208
-322 -31 -12 -32 -14 -49 -113 -10 -56 -24 -135 -32 -176 -32 -164 -45 -257
-41 -291 3 -20 27 -87 55 -150 83 -190 135 -359 148 -480 6 -63 -9 -276 -25
-351 -9 -39 -132 -232 -165 -259 -15 -12 -47 -18 -113 -21 -84 -4 -96 -7 -135
-35 -43 -32 -47 -41 -32 -78 7 -19 7 -19 -12 -3 -20 17 -22 17 -63 -13 -23
-18 -84 -52 -134 -78 -78 -39 -100 -56 -150 -116 -56 -67 -155 -196 -261 -340
-51 -70 -183 -225 -202 -237 -40 -26 -45 -53 -54 -318 -5 -142 -12 -270 -16
-284 l-6 -26 622 0 c525 0 624 2 636 14 18 19 18 40 0 33 -9 -4 -16 3 -20 21
-26 115 -61 221 -69 213 -16 -16 -70 27 -63 51 2 11 0 29 -7 39 -15 24 -2 36
18 15 19 -19 35 -13 35 13 0 22 -51 36 -62 18 -5 -7 -8 -3 -8 11 0 12 -4 30
-9 40 -6 9 -13 31 -17 47 -8 33 -8 34 -17 55 -10 26 -20 75 -19 86 1 6 -5 29
-15 50 -9 21 -18 44 -19 49 -4 15 -34 155 -43 200 -5 22 -13 52 -19 68 -7 15
-8 27 -4 27 14 0 32 -24 32 -43 0 -10 5 -17 13 -15 20 7 15 53 -5 52 -10 -1
-18 2 -18 7 0 5 5 9 10 9 13 0 13 37 -1 45 -6 4 -13 -2 -16 -14 -6 -23 -18
-28 -26 -8 -2 6 6 20 18 31 l22 19 -19 70 c-10 38 -23 78 -28 88 -14 26 -12
33 5 19 10 -9 15 -9 15 -1 0 6 4 11 9 11 21 0 173 -462 286 -870 48 -173 88
-316 90 -318 2 -2 19 20 38 50 18 29 40 60 48 68 24 26 69 88 69 97 0 4 9 14
20 21 11 7 20 18 20 25 0 7 12 27 28 44 15 17 50 63 77 102 29 41 60 74 73 77
29 8 45 -10 200 -230 62 -89 122 -172 133 -186 11 -14 45 -64 76 -112 l57 -88
203 0 202 0 10 37 c6 21 11 48 11 60 0 12 5 25 12 29 8 5 10 -10 5 -59 l-6
-67 140 0 c130 0 139 1 130 18 -5 9 -7 31 -4 47 3 17 2 27 -2 22 -12 -10 -75
53 -75 75 0 10 -9 23 -20 30 -11 7 -20 21 -20 31 0 11 -9 21 -20 24 -15 4 -18
9 -10 18 7 8 4 17 -10 30 -11 10 -20 26 -20 37 0 10 -4 18 -10 18 -5 0 -10 6
-10 14 0 7 -6 19 -14 26 -8 6 -12 18 -10 25 3 8 -4 20 -15 27 -24 15 -27 28
-7 28 24 0 11 34 -15 40 -16 4 -20 8 -11 14 17 11 15 34 -5 38 -16 3 -27 58
-11 58 4 0 8 5 8 11 0 6 -6 9 -14 6 -13 -5 -29 14 -31 39 0 6 -8 22 -18 37 -9
14 -17 31 -17 36 0 5 -6 11 -12 14 -10 3 -10 7 1 20 12 15 11 17 -8 17 -17 0
-21 4 -16 18 3 12 -4 28 -20 44 -18 18 -22 27 -13 31 10 3 9 8 -3 23 -16 18
-29 67 -30 106 0 10 -5 18 -11 18 -5 0 -8 6 -5 14 3 7 1 18 -5 24 -6 6 -13 43
-14 83 -2 39 -8 77 -14 84 -6 7 -8 24 -5 38 5 17 0 35 -13 54 -11 15 -23 48
-26 73 -4 24 -11 49 -15 55 -5 5 -11 28 -13 50 -2 31 1 41 17 50 11 6 39 30
61 53 33 33 38 42 23 42 -23 0 -24 9 -3 39 13 18 14 25 4 31 -10 6 -9 13 4 31
9 14 16 43 16 70 0 27 6 51 13 58 8 6 14 24 15 40 0 16 7 43 16 59 8 16 17 46
19 67 2 20 9 40 16 44 6 4 9 15 6 24 -4 10 2 21 19 33 18 11 25 22 21 34 -3
11 1 20 10 24 8 3 15 15 15 27 0 13 7 31 17 41 10 11 16 34 15 63 0 32 5 49
17 58 10 6 20 20 24 30 3 9 13 17 22 17 17 0 19 9 6 29 -10 16 7 51 24 51 5 0
19 19 30 43 11 23 25 47 31 52 6 6 20 26 30 45 10 19 24 42 31 50 7 9 19 35
28 59 8 24 28 59 45 77 16 19 30 41 30 49 0 8 5 15 10 15 6 0 10 6 10 14 0 8
14 26 30 39 17 14 30 29 30 34 0 4 8 13 19 20 10 6 28 31 40 55 l21 44 0 1437
0 1437 -1576 0 c-1380 0 -1575 -2 -1564 -15 10 -12 7 -15 -14 -21 -14 -3 -32
-17 -41 -31 -15 -23 -15 -25 9 -44 15 -12 23 -25 20 -31 -4 -6 0 -14 7 -19 23
-14 30 -10 19 11 -9 17 -7 22 15 30 21 8 24 14 19 34 -3 13 -1 27 5 30 7 5 11
-5 11 -28 0 -20 5 -36 10 -36 6 0 10 8 10 18 0 20 37 69 45 60 3 -3 2 -24 -4
-47 -10 -44 -1 -60 19 -36 7 8 21 15 31 15 10 0 21 5 25 11 4 7 -3 10 -17 9
-38 -3 -42 -1 -30 14 11 13 17 12 44 -3 18 -10 33 -27 35 -39 3 -19 5 -20 40
-8 20 7 52 16 71 20 34 6 34 6 16 -14 -18 -20 -17 -20 8 -20 15 0 27 -5 27
-10 0 -6 12 -15 27 -21 20 -7 24 -12 14 -18 -10 -6 -7 -14 11 -34 l24 -25 -4
36 c-4 33 -3 35 11 24 9 -8 13 -21 11 -30 -5 -15 -4 -15 9 1 13 15 16 16 27 2
7 -9 19 -14 26 -11 7 3 17 -8 24 -24 6 -15 20 -30 31 -33 10 -3 19 -12 19 -21
0 -9 4 -16 9 -16 5 0 14 -14 20 -32 11 -30 12 -31 26 -12 14 18 14 18 15 -6 0
-28 44 -75 60 -65 5 3 13 -1 16 -9 3 -9 10 -13 16 -10 5 3 9 -2 8 -12 -4 -37
0 -53 19 -71 10 -10 24 -41 31 -70 6 -29 20 -69 31 -90 21 -40 25 -73 9 -73
-17 0 -123 42 -265 105 -145 65 -240 103 -435 174 -63 23 -124 46 -135 51 -11
5 -99 35 -195 66 -96 31 -184 61 -195 65 -23 9 -166 55 -297 94 -47 14 -92 32
-98 40 -7 8 -16 13 -20 10 -4 -2 -23 5 -44 16 -20 11 -41 17 -47 13 -6 -3 -3
11 5 31 9 21 16 39 16 41 0 2 -21 1 -64 -5 -4 0 -6 -8 -2 -16 7 -19 -11 -19
-30 -1 -15 15 -20 47 -6 44 12 -3 62 24 62 34 0 4 -18 8 -41 8 -32 0 -40 -3
-36 -15 9 -23 -11 -28 -23 -6 -10 20 -22 20 -945 21 l-935 0 0 -1035z m1870
995 c19 -12 5 -24 -31 -26 -18 -1 -29 3 -29 11 0 22 35 31 60 15z m103 -77
c-7 -2 -19 -2 -25 0 -7 3 -2 5 12 5 14 0 19 -2 13 -5z m-1158 -76 c-56 -41
-132 -117 -166 -167 -42 -61 -67 -75 -40 -22 29 58 98 129 164 173 66 42 91
52 42 16z m-342 -224 c4 -3 19 -8 34 -9 15 -2 29 -7 31 -13 8 -24 41 -51 56
-45 9 3 16 1 16 -5 0 -20 -30 -24 -44 -6 -11 16 -25 17 -109 13 -95 -5 -96 -5
-85 16 20 39 41 56 68 56 15 0 30 -3 33 -7z m89 -155 c-7 -7 -12 -8 -12 -2 0
14 12 26 19 19 2 -3 -1 -11 -7 -17z m2205 -71 c18 -9 49 -17 69 -17 83 0 320
-56 359 -84 16 -11 14 -15 -19 -34 -21 -12 -42 -22 -47 -22 -20 0 -108 -64
-112 -82 -7 -25 -29 -23 -127 12 -47 16 -98 30 -115 30 -60 1 -71 9 -89 66 -9
30 -28 78 -41 106 -13 28 -22 55 -20 58 6 10 106 -13 142 -33z m-2210 -28 c1
-8 5 -39 8 -70 l6 -56 42 8 c60 12 355 11 462 -1 242 -27 485 -85 668 -159 89
-36 127 -58 127 -75 0 -27 -59 -56 -122 -61 -68 -5 -98 -26 -98 -69 -1 -66
-29 -86 -54 -37 -16 29 -69 61 -104 61 -11 0 -27 -7 -36 -15 -8 -8 -21 -15
-29 -15 -8 0 -20 7 -27 15 -14 17 -85 21 -95 5 -3 -5 -24 -10 -45 -10 -38 0
-39 0 -33 33 3 23 0 37 -11 46 -21 17 -26 12 -37 -40 -8 -35 -7 -44 6 -51 12
-7 13 -14 5 -29 -9 -16 -18 -18 -44 -13 -20 3 -52 0 -78 -10 -46 -15 -76 -15
-276 -1 -73 5 -116 13 -123 22 -6 7 -17 13 -24 13 -15 0 10 -99 43 -172 12
-26 22 -49 22 -52 0 -19 129 -191 172 -230 152 -136 237 -181 433 -226 123
-29 156 -32 273 -31 137 1 305 22 357 46 17 7 60 25 96 38 87 33 132 56 236
124 94 61 138 97 155 127 10 18 9 18 -13 2 -36 -25 -69 -21 -69 9 0 37 -21 77
-59 113 -35 33 -35 34 -16 49 16 12 39 14 111 9 50 -3 103 -10 118 -16 28 -10
28 -11 11 -38 -10 -15 -23 -31 -29 -37 -15 -12 -27 -55 -16 -55 5 0 13 6 17
14 15 25 85 98 90 93 20 -21 -137 -192 -247 -269 -106 -74 -281 -168 -314
-168 -12 0 -59 -12 -106 -25 -120 -36 -248 -55 -366 -55 -326 0 -644 165 -831
431 -105 150 -183 353 -203 528 -19 164 -2 330 33 318 6 -2 13 -10 14 -18z
m3091 -118 c5 -15 -4 -14 -68 10 -45 17 -43 16 -36 28 9 14 98 -19 104 -38z
m82 -33 c10 -6 7 -7 -10 -2 -14 3 -32 11 -40 16 -10 6 -7 7 10 2 14 -3 32 -11
40 -16z m-552 -8 c-13 -21 -28 -27 -28 -10 0 5 8 14 18 19 23 14 24 14 10 -9z
m-430 -29 c9 -6 57 -17 106 -25 141 -25 274 -101 226 -131 -5 -3 -18 3 -30 15
-54 54 -307 139 -325 110 -9 -14 -25 -12 -25 3 0 11 19 37 27 37 2 0 11 -4 21
-9z m1236 -86 c11 -8 17 -17 15 -20 -4 -4 -91 53 -108 71 -10 10 72 -34 93
-51z m110 -90 c27 -25 48 -47 45 -49 -2 -2 -33 23 -69 56 -36 33 -56 55 -45
49 11 -6 42 -31 69 -56z m127 -133 c105 -130 191 -304 224 -455 15 -67 23 -84
57 -116 26 -26 41 -50 45 -74 6 -37 -9 -52 -21 -22 -3 8 -16 20 -29 26 -24 11
-57 71 -57 102 0 27 -59 236 -82 291 -30 69 -99 181 -159 255 -26 33 -43 58
-36 55 7 -3 33 -31 58 -62z m-2748 -149 c26 -8 47 -17 47 -19 0 -2 -27 -2 -60
1 -59 5 -60 4 -60 -20 0 -27 -10 -31 -41 -15 -21 12 -24 32 -8 61 11 22 32 21
122 -8z m80 -95 c26 -7 47 -15 47 -19 0 -13 -29 -31 -40 -24 -6 4 -34 8 -62
10 -58 3 -94 34 -77 66 8 16 11 16 46 -1 21 -11 59 -25 86 -32z m669 -9 c-3
-21 -12 -33 -29 -40 -25 -9 -53 2 -53 22 0 18 41 49 63 49 21 0 23 -4 19 -31z
m-1757 -179 c3 -5 -1 -10 -9 -10 -9 0 -16 5 -16 10 0 6 4 10 9 10 6 0 13 -4
16 -10z m1571 -126 c24 -14 44 -30 44 -35 0 -10 -60 -39 -80 -39 -5 0 -10 7
-10 15 0 8 -9 20 -20 27 -20 13 -26 38 -13 51 12 13 34 7 79 -19z m2382 -16
c-6 -18 -28 -21 -28 -4 0 9 7 16 16 16 9 0 14 -5 12 -12z m-4173 -124 c-9 -9
-19 -13 -23 -10 -3 4 0 11 8 16 24 15 33 11 15 -6z m3628 -2774 c3 -11 2 -22
-3 -25 -11 -7 -33 22 -25 35 10 16 22 12 28 -10z m257 -1140 c0 -5 -7 -10 -15
-10 -8 0 -15 5 -15 10 0 6 7 10 15 10 8 0 15 -4 15 -10z m0 -70 c0 -5 -2 -10
-4 -10 -3 0 -8 5 -11 10 -3 6 -1 10 4 10 6 0 11 -4 11 -10z"/>
<path d="M2022 5988 c6 -18 28 -21 28 -4 0 9 -7 16 -16 16 -9 0 -14 -5 -12
-12z"/>
<path d="M2080 5981 c0 -12 11 -17 40 -18 34 -2 40 0 40 17 0 17 -6 20 -40 18
-29 -1 -40 -6 -40 -17z"/>
<path d="M2306 5993 c-9 -9 17 -41 29 -37 6 3 23 0 37 -5 19 -7 29 -6 42 7 11
12 19 13 27 5 8 -8 19 -7 40 4 32 16 60 14 66 -3 2 -6 -5 -14 -17 -17 -13 -3
-20 -13 -20 -29 0 -30 10 -44 37 -50 23 -6 41 17 20 25 -9 3 -9 9 1 26 6 11
12 28 12 36 0 8 5 15 10 15 6 0 10 7 10 15 0 14 -20 16 -144 14 -80 0 -147 -3
-150 -6z m241 -79 c-3 -3 -12 -4 -19 -1 -8 3 -5 6 6 6 11 1 17 -2 13 -5z"/>
<path d="M2632 5988 c6 -16 32 -22 66 -13 20 5 23 8 11 16 -22 14 -81 11 -77
-3z"/>
<path d="M2790 5993 c0 -14 19 -38 25 -32 8 8 -5 39 -16 39 -5 0 -9 -3 -9 -7z"/>
<path d="M2730 5978 c0 -7 5 -20 10 -28 9 -13 11 -13 19 -1 5 8 7 20 4 28 -6
17 -33 17 -33 1z"/>
<path d="M2720 5926 c0 -9 5 -16 10 -16 6 0 10 4 10 9 0 6 -4 13 -10 16 -5 3
-10 -1 -10 -9z"/>
<path d="M2085 5910 c3 -5 12 -10 20 -10 8 0 17 5 20 10 4 6 -5 10 -20 10 -15
0 -24 -4 -20 -10z"/>
<path d="M2715 5880 c3 -5 11 -10 16 -10 6 0 7 5 4 10 -3 6 -11 10 -16 10 -6
0 -7 -4 -4 -10z"/>
<path d="M2890 5840 c0 -5 7 -10 15 -10 8 0 15 5 15 10 0 6 -7 10 -15 10 -8 0
-15 -4 -15 -10z"/>
<path d="M3000 5819 c0 -15 5 -20 22 -17 12 2 23 10 25 18 4 13 3 13 -6 0 -9
-12 -11 -12 -17 3 -9 24 -24 21 -24 -4z"/>
<path d="M3210 5800 c0 -5 5 -10 10 -10 6 0 10 5 10 10 0 6 -4 10 -10 10 -5 0
-10 -4 -10 -10z"/>
<path d="M3450 4266 c0 -2 7 -32 16 -66 11 -45 14 -82 9 -130 -6 -63 -5 -71
21 -111 36 -56 74 -99 90 -99 6 0 17 -7 24 -15 7 -9 15 -14 17 -12 2 2 -15 23
-38 45 -22 23 -38 46 -34 52 4 7 10 6 19 -2 7 -7 29 -24 49 -38 27 -19 35 -30
31 -46 -4 -15 2 -26 20 -38 14 -9 29 -17 33 -18 5 0 14 -9 21 -19 7 -11 20
-19 29 -19 9 0 26 -11 39 -25 13 -14 32 -25 44 -25 12 0 24 -9 30 -24 9 -24
21 -34 92 -80 34 -23 48 -24 48 -5 0 5 -6 6 -14 3 -18 -7 -29 11 -21 36 8 26
25 26 25 0 0 -11 6 -20 14 -20 7 0 19 -14 27 -31 15 -38 57 -89 72 -89 6 0 27
-16 47 -35 26 -25 41 -33 57 -29 13 4 20 11 17 16 -3 5 -13 7 -21 4 -8 -3 -12
-2 -9 3 3 5 -14 21 -39 36 -24 16 -42 32 -39 36 3 5 -5 40 -18 79 -20 62 -26
70 -48 70 -14 0 -45 9 -69 20 -43 20 -43 21 -37 60 6 39 6 40 -23 40 -17 0
-33 5 -36 10 -4 6 -15 8 -26 5 -14 -5 -20 0 -25 20 -6 23 -11 26 -36 23 -19
-3 -32 0 -35 9 -3 7 -9 10 -14 7 -6 -3 -16 0 -24 6 -12 10 -18 10 -30 0 -12
-10 -16 -9 -22 6 -9 24 -59 75 -95 99 -25 15 -27 21 -22 56 5 26 2 46 -8 61
-8 13 -17 43 -21 67 -4 31 -15 53 -38 77 -29 30 -49 42 -49 30z m374 -452 c8
-31 -8 -54 -25 -37 -13 13 -4 63 10 63 5 0 12 -12 15 -26z m66 -76 c0 -10 -11
-10 -28 0 -7 5 -10 16 -6 27 7 17 8 17 21 -1 7 -10 13 -21 13 -26z"/>
<path d="M2913 4205 c-8 -22 6 -33 17 -15 13 20 12 30 0 30 -6 0 -13 -7 -17
-15z"/>
<path d="M291 4034 c0 -11 3 -14 6 -6 3 7 2 16 -1 19 -3 4 -6 -2 -5 -13z"/>
<path d="M0 2935 c0 -592 4 -905 10 -905 6 0 29 -9 53 -19 84 -38 112 -43 151
-27 20 8 36 12 36 9 0 -12 40 30 45 48 6 18 -25 59 -45 59 -13 0 -13 27 0 35
7 4 7 12 0 24 -7 13 -17 17 -37 13 -25 -5 -27 -4 -14 12 11 13 11 20 3 28 -17
17 -15 48 3 48 9 0 20 12 25 26 24 62 7 58 -50 -11 -34 -41 -46 -51 -49 -37
-2 9 -8 20 -14 24 -13 8 9 38 29 38 8 0 14 9 14 20 0 11 -7 20 -16 20 -12 0
-14 8 -9 44 6 38 4 45 -19 64 l-26 20 32 61 c32 61 32 85 -1 64 -16 -10 -18
-8 -16 25 2 20 8 38 14 40 7 2 9 21 5 56 -6 48 -4 54 15 59 34 8 25 34 -14 41
-19 4 -35 13 -35 20 0 8 -7 16 -15 20 -12 4 -13 10 -3 31 6 14 17 24 24 21 14
-5 64 15 64 26 0 3 -14 18 -30 31 -17 14 -30 28 -30 30 0 7 22 3 36 -6 7 -4
14 5 18 25 5 25 2 36 -13 48 -11 8 -21 29 -23 45 -3 26 1 30 23 33 19 2 28 10
32 27 3 21 1 24 -17 19 -12 -3 -29 1 -39 8 -15 11 -16 19 -8 39 10 28 43 47
49 30 5 -14 22 -14 22 -1 0 5 -14 13 -31 17 l-30 8 25 23 26 22 0 -25 c0 -19
5 -25 21 -25 18 0 20 -4 15 -25 -5 -18 -2 -25 9 -25 8 0 15 5 15 10 0 6 4 10
9 10 5 0 7 -9 4 -20 -3 -13 0 -20 8 -21 8 0 3 -5 -11 -10 -29 -12 -17 -22 37
-32 41 -8 46 1 48 81 0 36 -1 59 -3 52 -2 -6 -10 1 -18 15 -18 35 -18 49 0 42
19 -8 28 3 15 19 -8 9 -5 21 12 43 24 33 20 60 -11 68 -17 4 -20 14 -20 55 0
30 4 47 10 43 9 -6 11 -2 14 25 1 5 -35 46 -79 90 -79 81 -174 140 -224 140
l-21 0 0 -905z m280 427 c0 -5 -9 -17 -20 -27 -22 -20 -26 -14 -10 16 11 19
30 26 30 11z m-110 -12 c-19 -13 -30 -13 -30 0 0 6 10 10 23 10 18 0 19 -2 7
-10z m-100 -151 c0 -5 -4 -9 -10 -9 -5 0 -10 7 -10 16 0 8 5 12 10 9 6 -3 10
-10 10 -16z m50 -147 c0 -5 -7 -17 -15 -28 -14 -19 -14 -19 -15 2 0 11 3 24 7
27 9 10 23 9 23 -1z m-37 -237 c4 -8 2 -17 -3 -20 -6 -4 -10 3 -10 14 0 25 6
27 13 6z m27 -84 c0 -13 -39 -21 -46 -10 -3 6 -3 17 0 25 4 12 10 13 26 4 11
-6 20 -15 20 -19z m-20 -101 c0 -5 -9 -10 -21 -10 -11 0 -17 5 -14 10 3 6 13
10 21 10 8 0 14 -4 14 -10z"/>
<path d="M365 3730 c-3 -5 -2 -10 4 -10 5 0 13 5 16 10 3 6 2 10 -4 10 -5 0
-13 -4 -16 -10z"/>
<path d="M349 3560 c-14 -15 -14 -19 1 -38 21 -25 30 -19 30 19 0 35 -10 41
-31 19z"/>
<path d="M168 3109 c-24 -13 -23 -29 2 -29 11 0 20 2 20 4 0 2 3 11 6 20 7 18
-3 20 -28 5z"/>
<path d="M224 3029 c-3 -6 -15 -8 -26 -6 -11 3 -18 1 -15 -6 2 -6 19 -11 37
-12 25 0 36 5 38 18 4 19 -22 24 -34 6z"/>
<path d="M170 2601 c0 -5 -3 -18 -6 -28 -6 -16 -5 -16 9 2 19 23 21 35 7 35
-5 0 -10 -4 -10 -9z"/>
<path d="M1 1584 c1 -448 6 -497 55 -542 17 -16 33 -34 36 -42 6 -20 37 -5 48
25 11 29 22 33 19 8 -4 -28 11 -63 27 -63 8 0 14 -5 14 -11 0 -6 7 -9 15 -5
16 6 55 -26 55 -45 0 -7 -9 -9 -21 -6 -15 4 -19 1 -17 -11 2 -12 13 -17 33
-16 20 0 38 -8 54 -25 l25 -26 -27 -3 c-15 -2 -29 -11 -32 -23 -7 -22 -25 -25
-43 -7 -7 7 -12 8 -12 4 0 -9 41 -45 53 -46 4 0 7 7 7 15 0 12 6 11 31 -7 26
-20 28 -24 14 -34 -14 -11 -14 -13 0 -28 9 -9 21 -16 26 -16 6 0 9 -8 8 -17
-3 -35 1 -41 31 -48 16 -4 32 -11 35 -16 8 -12 45 -12 45 1 0 6 5 10 10 10 6
0 10 -7 10 -15 0 -20 24 -19 41 1 11 14 15 13 30 -7 14 -19 20 -21 31 -11 8 6
18 9 21 5 15 -15 5 -45 -28 -81 -24 -27 -31 -42 -24 -49 12 -12 3 -53 -12 -53
-5 0 -9 -4 -9 -10 0 -15 52 -11 74 5 18 14 18 15 -8 24 -14 6 -26 15 -26 20 0
15 19 23 33 14 16 -10 48 -4 67 12 26 23 70 23 70 0 0 -9 7 -26 16 -39 16 -26
17 -26 -40 -57 -38 -20 -44 -37 -14 -41 13 -2 22 -7 20 -13 -2 -5 -10 -9 -19
-7 -9 2 -13 -2 -11 -10 3 -7 23 -14 47 -16 l43 -3 -6 38 c-7 45 8 78 24 53 5
-8 10 -23 10 -32 0 -10 5 -18 10 -18 6 0 10 -4 10 -10 0 -5 -9 -10 -21 -10
-15 0 -20 -5 -17 -22 2 -16 9 -22 21 -20 12 2 21 -4 24 -17 4 -15 13 -21 34
-21 22 0 29 -5 29 -19 0 -11 5 -23 10 -26 12 -7 13 -35 2 -35 -5 0 -14 11 -20
25 -6 14 -18 25 -26 25 -8 0 -19 7 -23 15 -6 11 -16 12 -38 7 -29 -8 -29 -8
-8 -23 13 -9 23 -28 25 -49 3 -37 5 -38 104 -56 11 -2 37 -15 58 -29 20 -14
43 -25 50 -25 8 0 19 -7 26 -15 11 -13 78 -15 495 -15 266 0 490 3 499 6 9 3
16 13 16 22 0 15 65 81 114 115 14 10 26 24 26 32 0 9 6 12 16 8 9 -3 23 3 35
16 11 11 33 28 49 36 17 9 30 23 30 31 0 12 6 15 25 10 18 -5 25 -2 25 8 0 9
9 20 20 26 11 6 20 16 20 23 0 9 -45 12 -178 13 -258 0 -414 38 -604 146 -37
21 -70 38 -74 38 -21 0 -239 165 -310 235 -23 22 -57 54 -75 70 -19 17 -61 59
-93 95 -105 116 -207 220 -216 220 -5 0 -10 4 -12 9 -6 17 -250 271 -260 271
-6 0 -49 35 -97 78 -157 142 -171 152 -213 152 -31 0 -50 10 -100 50 -34 28
-66 50 -70 50 -18 0 -68 44 -68 59 0 9 9 27 20 41 28 35 25 45 -18 71 -20 13
-47 29 -60 37 l-23 15 2 -399z m323 -523 c-9 -10 -26 18 -18 30 5 9 9 8 14 -7
4 -10 6 -21 4 -23z m62 -153 c3 -5 12 -4 20 3 8 7 14 7 14 1 0 -5 -7 -15 -15
-22 -19 -16 -76 5 -69 25 6 14 40 9 50 -7z m87 -198 l21 -21 -24 4 c-14 2 -26
11 -28 20 -5 22 4 21 31 -3z m57 -50 c0 -11 -7 -20 -15 -20 -15 0 -21 21 -8
33 12 13 23 7 23 -13z m120 -180 c0 -5 -7 -7 -15 -4 -8 4 -12 10 -9 15 6 11
24 2 24 -11z m250 -165 c0 -8 -4 -15 -10 -15 -5 0 -10 7 -10 15 0 8 5 15 10
15 6 0 10 -7 10 -15z m137 -241 c-9 -9 -28 6 -21 18 4 6 10 6 17 -1 6 -6 8
-13 4 -17z"/>
<path d="M3920 958 c0 -13 4 -30 9 -37 8 -12 11 -9 16 11 7 28 1 48 -16 48 -5
0 -9 -10 -9 -22z"/>
<path d="M3950 886 c0 -14 5 -26 10 -26 6 0 10 9 10 19 0 11 -4 23 -10 26 -6
4 -10 -5 -10 -19z"/>
<path d="M150 843 c0 -13 5 -23 10 -23 13 0 13 11 0 30 -8 12 -10 11 -10 -7z"/>
<path d="M3962 824 c1 -9 9 -19 16 -22 9 -3 13 2 10 14 -1 9 -9 19 -16 22 -9
3 -13 -2 -10 -14z"/>
<path d="M3977 764 c-13 -13 -7 -24 14 -24 11 0 19 5 17 12 -5 14 -22 21 -31
12z"/>
<path d="M4003 703 c-16 -6 -5 -33 13 -33 8 0 14 6 14 14 0 18 -11 25 -27 19z"/>
<path d="M4027 634 c-10 -11 -8 -44 2 -44 6 0 13 4 16 10 8 12 -9 43 -18 34z"/>
<path d="M115 620 c3 -5 8 -10 11 -10 2 0 4 5 4 10 0 6 -5 10 -11 10 -5 0 -7
-4 -4 -10z"/>
<path d="M357 563 c-11 -10 -8 -41 3 -48 6 -4 17 -2 25 5 10 8 19 8 34 1 30
-17 48 -13 23 5 -12 8 -22 22 -22 30 0 14 -50 20 -63 7z"/>
<path d="M4032 549 c1 -13 8 -23 13 -21 15 3 12 35 -3 40 -9 3 -13 -3 -10 -19z"/>
<path d="M541 540 c-14 -8 -8 -40 7 -40 4 0 17 6 27 14 18 13 18 14 -1 24 -11
6 -26 7 -33 2z"/>
<path d="M4056 483 c-12 -12 -6 -33 9 -33 8 0 15 6 15 14 0 17 -14 28 -24 19z"/>
<path d="M695 430 c-3 -5 1 -10 9 -10 9 0 16 5 16 10 0 6 -4 10 -9 10 -6 0
-13 -4 -16 -10z"/>
<path d="M4092 350 c-17 -28 -15 -40 8 -40 21 0 24 12 12 42 -7 17 -8 16 -20
-2z"/>
<path d="M730 185 c-17 -21 -9 -27 13 -10 10 7 14 16 9 19 -5 3 -15 -1 -22 -9z"/>
<path d="M0 2942 l0 -917 33 -17 c17 -10 58 -27 90 -39 l58 -21 59 22 c33 12 63 27 68 34 8 10 79 180 97 231 10 28 25 137 31 220 2 39 9 100 15 137 6 37 8 80 5 95 -7 32 -27 484 -32 718 l-4 160 -63 60 c-35 33 -91 86 -124 117 -61 58 -168 118 -210 118 l-23 0 0 -918z"/>
<path d="M2236 3082 c-3 -5 -28 -12 -55 -16 -27 -4 -51 -12 -53 -18 -3 -7 -9 -8 -18 -3 -23 14 -49 15 -130 4 -77 -11 -366 -77 -455 -104 -27 -8 -86 -24 -130 -34 -44 -11 -150 -38 -235 -60 -85 -23 -193 -51 -240 -63 -223 -55 -235 -66 -83 -72 l90 -4 36 34 c45 44 143 70 317 83 349 28 509 41 553 46 26 3 100 8 165 11 64 3 124 10 133 15 9 5 54 13 100 19 46 6 109 15 139 20 39 7 79 7 137 -1 71 -10 100 -10 208 7 69 10 125 22 125 26 0 4 -64 6 -142 4 -134 -5 -263 6 -281 23 -4 4 -10 18 -12 31 -2 13 -10 27 -16 30 -6 4 -11 11 -10 16 0 5 -10 8 -22 6 -41 -4 -77 -3 -96 3 -11 3 -22 2 -25 -3z"/>
<path d="M3158 2973 c7 -3 16 -2 19 1 4 3 -2 6 -13 5 -11 0 -14 -3 -6 -6z"/>
<path d="M3250 2946 c0 -3 15 -27 33 -53 18 -27 39 -60 46 -74 7 -14 26 -33 42 -43 16 -9 29 -21 29 -27 0 -5 5 -9 10 -9 6 0 23 -9 38 -19 15 -11 36 -21 47 -23 11 -2 22 -5 25 -8 3 -3 30 -18 60 -33 30 -15 62 -32 70 -36 8 -5 38 -19 65 -31 28 -12 57 -26 65 -31 8 -5 22 -12 30 -16 40 -17 98 -75 114 -115 45 -106 41 -104 149 -112 l78 -6 -26 43 c-14 23 -42 73 -62 111 -44 83 -123 171 -160 181 -15 3 -30 10 -33 13 -7 10 -140 77 -154 77 -19 2 -70 26 -78 38 -3 6 -26 18 -50 28 -27 11 -42 23 -42 33 1 9 -2 16 -7 16 -5 0 -9 -4 -9 -10 0 -5 -9 -10 -20 -10 -13 0 -18 5 -14 15 4 8 10 13 14 10 10 -6 22 24 14 36 -8 14 -56 10 -84 -6 -37 -21 -56 -18 -113 18 -74 47 -77 49 -77 43z"/>
<path d="M3560 2892 c0 -14 11 -21 26 -15 8 3 11 9 8 14 -7 11 -34 12 -34 1z"/>
<path d="M3780 2730 c0 -5 5 -10 10 -10 6 0 10 5 10 10 0 6 -4 10 -10 10 -5 0 -10 -4 -10 -10z"/>
<path d="M501 2434 c0 -11 3 -14 6 -6 3 7 2 16 -1 19 -3 4 -6 -2 -5 -13z"/>
<path d="M1515 2323 c-95 -3 -328 -19 -475 -32 -58 -6 -151 -13 -208 -16 -175 -10 -175 -12 0 -97 10 -4 25 -8 34 -8 11 0 14 -6 9 -22 -4 -17 -4 -19 3 -9 6 9 19 11 34 8 27 -7 94 12 153 42 26 14 58 21 95 21 76 0 255 -17 367 -36 50 -8 122 -15 160 -15 37 0 124 -6 193 -14 179 -20 607 -39 634 -29 25 9 19 24 -9 24 -16 0 -25 6 -25 15 0 8 5 15 12 15 6 0 8 3 5 6 -4 4 -41 8 -84 10 -51 2 -81 8 -88 17 -6 9 -39 16 -88 20 -53 4 -85 11 -97 22 -10 9 -23 14 -29 11 -6 -4 -30 -1 -53 6 -24 6 -51 12 -60 13 -10 0 -17 5 -15 10 1 6 -23 13 -53 17 -30 3 -75 11 -100 17 -42 10 -130 11 -315 4z"/>
<path d="M460 2216 c0 -8 -6 -16 -12 -19 -7 -2 -9 -8 -5 -13 4 -4 16 -3 25 2 23 15 28 44 8 44 -9 0 -16 -6 -16 -14z"/>
<path d="M537 2196 c-6 -15 1 -26 15 -26 4 0 8 9 8 20 0 23 -15 27 -23 6z"/>
<path d="M622 2189 c-12 -18 -11 -20 5 -17 10 2 19 11 21 21 5 23 -10 21 -26 -4z"/>
<path d="M428 2150 c-19 -18 -25 -60 -9 -60 6 0 21 11 35 24 24 22 25 24 8 38 -15 14 -19 14 -34 -2z"/>
<path d="M830 2140 c0 -5 5 -10 10 -10 6 0 10 5 10 10 0 6 -4 10 -10 10 -5 0 -10 -4 -10 -10z"/>
<path d="M502 2119 c-19 -30 2 -51 23 -23 8 10 15 25 15 32 0 19 -24 14 -38 -9z"/>
<path d="M592 2109 c-10 -15 -11 -24 -3 -32 13 -13 18 -9 26 26 8 32 -5 36 -23 6z"/>
<path d="M3290 2095 c0 -8 5 -15 10 -15 6 0 10 7 10 15 0 8 -4 15 -10 15 -5 0 -10 -7 -10 -15z"/>
<path d="M3330 2098 c0 -10 6 -18 13 -19 6 0 2 -4 -10 -9 -23 -9 -31 -44 -13 -55 18 -11 145 -22 167 -14 14 5 25 4 29 -3 4 -6 25 -8 50 -5 25 2 47 0 50 -5 3 -5 12 -7 19 -4 8 3 18 -1 25 -8 6 -8 39 -17 73 -20 101 -11 172 -30 174 -46 10 -76 14 -89 31 -85 9 3 45 11 80 19 35 7 65 16 68 19 2 2 -8 12 -23 22 -15 10 -55 46 -88 81 -41 43 -85 76 -140 105 -78 40 -81 41 -160 37 -44 -2 -87 -8 -95 -14 -34 -21 -220 -43 -220 -26 0 5 -7 17 -15 28 -13 17 -14 17 -15 2z"/>
<path d="M389 2085 c-1 -3 -2 -8 -3 -12 -1 -5 -5 -14 -10 -21 -15 -24 11 -38 33 -18 22 20 18 48 -6 39 -11 -4 -14 -2 -9 5 4 7 5 12 2 12 -3 0 -7 -2 -7 -5z"/>
<path d="M477 2054 c-13 -13 -7 -44 8 -44 8 0 15 7 15 15 0 8 0 18 1 22 1 10 -16 15 -24 7z"/>
<path d="M562 2038 c-14 -14 -16 -35 -3 -43 14 -8 35 35 24 46 -5 5 -14 4 -21 -3z"/>
<path d="M360 2000 c-24 -15 2 -32 30 -22 24 9 24 9 4 20 -12 6 -26 7 -34 2z"/>
<path d="M446 1984 c-10 -26 -7 -34 14 -34 11 0 20 4 20 9 0 17 -12 41 -20 41 -4 0 -11 -7 -14 -16z"/>

<path d="M532 1968 c-7 -7 -12 -16 -12 -20 0 -12 28 -10 36 3 10 17 -10 31 -24 17z"/>
<path d="M282 1943 c-21 -8 74 -53 109 -53 l32 0 -24 24 c-23 22 -89 38 -117 29z"/>
<path d="M566 1898 c-15 -12 -41 -21 -57 -22 -33 -1 -36 -11 -13 -38 16 -16 16 -18 0 -24 -9 -3 -16 -10 -16 -15 0 -4 7 -6 15 -3 9 4 27 -6 44 -25 19 -20 35 -29 45 -25 10 4 18 0 22 -10 3 -9 13 -16 21 -16 13 0 13 -3 3 -15 -13 -16 -6 -19 31 -16 9 1 19 -5 22 -14 8 -18 44 -20 49 -3 4 10 9 9 21 -3 12 -13 13 -19 4 -28 -9 -10 -6 -11 13 -6 20 5 33 0 54 -20 24 -22 33 -25 50 -17 39 19 82 21 104 6 15 -10 27 -12 39 -6 12 7 24 5 41 -6 29 -19 93 -17 134 4 30 15 32 15 45 -2 10 -14 27 -19 64 -19 27 0 53 -5 57 -11 4 -5 30 -18 57 -28 28 -10 70 -28 95 -39 25 -12 52 -20 62 -19 9 2 19 -2 23 -8 3 -5 15 -10 25 -10 11 0 24 -8 29 -19 7 -12 26 -20 55 -24 25 -4 67 -17 93 -31 72 -37 203 -85 203 -75 0 14 27 11 43 -5 7 -8 34 -20 58 -26 24 -7 53 -16 64 -21 11 -4 63 -15 115 -24 52 -9 111 -21 131 -26 45 -11 109 -12 109 -1 0 13 -23 32 -38 32 -8 0 -25 9 -39 20 -14 11 -43 23 -64 26 -21 4 -44 13 -50 20 -6 8 -20 14 -30 14 -10 0 -42 11 -71 24 -29 13 -127 47 -218 76 -91 29 -217 70 -280 92 -63 22 -128 43 -145 47 -44 12 -266 81 -293 92 -13 5 -34 9 -47 9 -13 0 -28 6 -32 13 -8 14 -170 87 -193 87 -6 0 -26 6 -43 14 -102 44 -160 66 -194 71 -21 4 -51 13 -68 20 -16 7 -48 21 -70 31 -22 9 -42 18 -45 19 -3 2 -18 -6 -34 -17z m250 -105 c-7 -7 -26 7 -26 19 0 6 6 6 15 -2 9 -7 13 -15 11 -17z m-226 -27 c0 -2 -7 -7 -16 -10 -8 -3 -12 -2 -9 4 6 10 25 14 25 6z m738 -154 c3 -9 -2 -13 -14 -10 -9 1 -19 9 -22 16 -3 9 2 13 14 10 9 -1 19 -9 22 -16z"/>
<path d="M430 1885 c-14 -7 -28 -11 -32 -9 -5 3 -8 -2 -8 -12 0 -13 -6 -15 -31 -10 -16 3 -37 13 -45 21 -9 8 -27 15 -41 15 -31 0 -93 -44 -93 -66 0 -22 23 -12 35 14 13 30 40 24 39 -8 -1 -14 -5 -35 -9 -47 -9 -29 8 -30 35 -3 24 24 25 30 5 30 -22 0 -18 17 5 23 13 3 20 0 20 -9 0 -17 14 -18 43 -2 12 6 33 12 46 13 14 0 26 6 29 13 2 7 12 12 23 12 10 0 19 6 19 14 0 22 -13 26 -40 11z"/>
<path d="M360 1800 c0 -5 9 -10 20 -10 11 0 20 5 20 10 0 6 -9 10 -20 10 -11 0 -20 -4 -20 -10z"/>
<path d="M446 1772 c-9 -15 65 -55 78 -42 7 7 6 14 -4 24 -20 19 -66 30 -74 18z"/>
<path d="M334 1762 c-15 -9 -28 -52 -16 -52 17 0 46 40 36 50 -5 5 -14 6 -20 2z"/>
<path d="M4033 1735 c-13 -30 2 -35 23 -7 17 22 17 32 2 32 -7 0 -18 -11 -25 -25z"/>
<path d="M4113 1735 c-9 -25 4 -29 17 -6 7 15 7 21 0 21 -6 0 -13 -7 -17 -15z"/>
<path d="M385 1730 c-5 -8 -1 -17 11 -24 25 -14 64 -17 64 -5 0 5 -11 9 -25 9 -13 0 -28 7 -33 16 -7 13 -11 14 -17 4z"/>
<path d="M4183 1725 c-19 -21 -16 -27 7 -13 11 7 20 16 20 20 0 12 -14 9 -27 -7z"/>
<path d="M533 1713 c-7 -2 -13 -9 -13 -14 0 -6 4 -8 8 -5 5 3 21 -2 37 -10 36 -18 60 -2 29 21 -19 15 -39 17 -61 8z"/>
<path d="M3987 1650 c-14 -13 -15 -20 -6 -26 7 -4 18 1 26 11 26 36 11 47 -20 15z"/>
<path d="M4066 1655 c-20 -20 -21 -35 -2 -35 7 0 16 10 19 22 8 29 3 33 -17 13z"/>
<path d="M4132 1650 c-20 -32 -14 -46 10 -22 15 14 19 25 12 32 -6 6 -14 3 -22 -10z"/>
<path d="M3960 1579 c0 -5 5 -7 10 -4 6 3 10 8 10 11 0 2 -4 4 -10 4 -5 0 -10 -5 -10 -11z"/>
<path d="M3213 1209 c14 -8 22 -8 30 0 8 8 3 11 -18 11 -26 -1 -28 -2 -12 -11z"/>
<path d="M3110 1202 c0 -4 18 -6 40 -4 22 2 40 6 40 8 0 2 -18 4 -40 4 -22 0 -40 -3 -40 -8z"/>
<path d="M2115 1100 c-3 -5 1 -10 9 -10 9 0 16 5 16 10 0 6 -4 10 -9 10 -6 0 -13 -4 -16 -10z"/>
<path d="M2180 1089 c0 -5 7 -9 15 -9 8 0 15 -6 15 -14 0 -17 22 -26 61 -26 46 0 34 14 -31 37 -33 11 -60 17 -60 12z"/>
<path d="M2792 1084 c10 -10 23 -14 37 -9 34 10 24 25 -16 25 -34 0 -36 -1 -21 -16z"/>
<path d="M2620 1075 c0 -8 5 -15 10 -15 6 0 10 7 10 15 0 8 -4 15 -10 15 -5 0 -10 -7 -10 -15z"/>
<path d="M2950 1081 c0 -5 7 -14 15 -21 19 -16 10 -30 -15 -23 -11 3 -20 0 -20 -6 0 -6 8 -11 18 -11 10 0 23 -5 29 -11 6 -6 21 -9 34 -7 28 4 33 42 9 71 -15 17 -70 24 -70 8z"/>
<path d="M2383 1073 c-13 -2 -23 -11 -23 -19 0 -21 23 -17 38 6 7 11 11 19 10 19 -2 -1 -13 -4 -25 -6z"/>
<path d="M2404 1027 c5 -22 3 -25 -11 -20 -10 3 -23 12 -29 20 -8 9 -21 12 -38 7 -25 -6 -37 -24 -16 -24 6 0 10 -10 10 -21 0 -16 -3 -19 -12 -12 -16 13 -68 23 -68 13 0 -12 -48 1 -61 16 -17 21 -29 17 -26 -8 2 -19 -3 -23 -26 -23 -17 0 -32 -7 -38 -17 -6 -11 -22 -18 -39 -18 -39 0 -38 -12 3 -29 17 -8 48 -26 67 -40 19 -14 42 -24 49 -23 13 3 13 1 2 -12 -9 -10 -18 -13 -25 -8 -19 15 -64 23 -71 12 -3 -6 1 -13 9 -16 9 -3 16 -14 16 -24 0 -11 10 -20 30 -23 17 -4 30 -12 30 -18 0 -7 -9 -9 -22 -5 -13 3 -35 6 -50 6 -22 0 -28 5 -28 21 0 16 -4 19 -21 14 -14 -5 -19 -4 -15 4 4 7 1 9 -8 5 -8 -3 -30 1 -47 10 -39 19 -39 19 -39 2 0 -7 16 -24 35 -37 19 -13 35 -30 35 -36 0 -7 11 -13 23 -13 30 0 40 -10 26 -26 -8 -9 -5 -16 12 -24 19 -11 21 -10 15 5 -5 13 -2 16 10 11 9 -3 28 -9 42 -12 41 -10 54 -23 39 -39 -10 -11 -16 -11 -35 1 -16 11 -27 12 -36 5 -8 -7 -21 -6 -41 5 -15 8 -30 12 -32 10 -7 -6 53 -36 71 -36 8 0 17 -3 19 -7 3 -5 -24 -9 -59 -11 -40 -2 -64 1 -64 7 0 6 -7 11 -16 11 -9 0 -28 7 -44 16 -17 11 -35 14 -46 9 -16 -6 -14 -9 16 -24 19 -9 37 -19 40 -22 3 -3 19 -10 35 -14 l30 -9 -28 -4 c-27 -3 -28 -4 -10 -17 22 -17 53 -19 53 -4 0 6 6 9 13 7 6 -3 12 -10 12 -15 0 -21 14 -25 77 -24 51 0 59 -2 43 -11 -19 -11 -19 -11 0 -19 31 -12 45 -10 45 6 0 19 24 19 43 0 21 -20 230 -12 265 11 18 12 21 19 13 27 -8 8 -1 16 26 29 20 10 43 18 50 18 7 0 13 5 13 10 0 6 7 10 16 10 9 0 14 5 12 12 -6 18 -28 22 -28 5 0 -9 -12 -17 -30 -19 -23 -4 -30 -1 -30 12 0 13 6 16 24 13 21 -4 24 -2 19 16 -3 13 0 22 8 23 8 0 19 2 24 2 6 1 21 9 33 18 23 15 23 17 5 25 -29 15 -95 15 -104 1 -6 -9 -9 -7 -9 8 0 26 16 34 53 27 40 -8 60 3 48 25 -8 15 -3 24 26 47 36 28 36 28 13 37 -23 8 -23 9 -4 22 10 7 29 16 42 20 18 6 22 4 22 -14 0 -17 4 -19 28 -14 39 9 49 21 34 44 -14 24 0 35 27 20 26 -14 28 -13 34 10 6 24 -9 36 -27 21 -9 -7 -22 -7 -47 1 -63 20 -64 22 -31 26 37 4 42 19 10 32 -17 6 -27 4 -38 -9 -17 -19 -47 -16 -72 6 -14 13 -20 13 -46 -1 -30 -15 -97 -12 -87 4 2 4 -17 7 -43 7 -26 1 -60 4 -76 8 -27 7 -29 7 -22 -18z m-34 -38 c0 -11 4 -18 9 -15 5 4 20 2 33 -3 16 -7 18 -10 6 -10 -9 -1 -18 -7 -21 -13 -3 -10 -7 -10 -20 1 -19 15 -23 9 -29 -38 -5 -37 -28 -39 -28 -2 0 24 -4 31 -19 31 -10 0 -21 -7 -25 -15 -3 -8 -12 -15 -19 -15 -22 0 -41 -27 -25 -34 7 -3 -3 -4 -22 -1 -19 3 -40 12 -47 21 -6 8 -14 15 -17 15 -24 -3 -28 0 -16 14 6 8 9 19 5 25 -3 5 1 10 10 10 10 0 15 -7 13 -17 -2 -13 4 -18 21 -18 14 0 26 6 29 13 2 6 -1 12 -7 12 -6 0 -11 4 -11 10 0 5 31 8 72 7 59 -2 73 1 74 13 2 27 4 30 19 30 8 0 15 -9 15 -21z m105 -129 c3 -6 17 -7 31 -4 18 5 24 2 24 -11 0 -9 -4 -14 -9 -11 -5 3 -14 -1 -21 -9 -6 -7 -18 -12 -26 -9 -8 2 -21 6 -29 9 -13 4 -14 9 -5 25 12 22 25 26 35 10z m-114 -14 c43 -1 22 -26 -22 -26 -33 0 -39 3 -39 21 0 16 4 19 18 13 9 -4 29 -8 43 -8z m75 -53 c-1 -1 -15 2 -32 6 -16 5 -23 10 -16 10 6 1 12 8 12 17 0 12 5 10 19 -7 11 -13 18 -25 17 -26z m184 13 c0 -3 -4 -8 -10 -11 -5 -3 -10 -1 -10 4 0 6 5 11 10 11 6 0 10 -2 10 -4z m-280 -21 c14 -7 52 -12 85 -11 76 3 121 -10 104 -30 -6 -8 -25 -14 -42 -14 -29 0 -30 -1 -11 -14 16 -12 17 -17 6 -28 -16 -16 -125 -14 -168 3 -16 7 -49 15 -73 18 -39 5 -74 31 -61 45 11 10 130 -7 130 -19 0 -12 115 -37 125 -27 11 12 -20 32 -49 32 -18 0 -37 5 -42 10 -6 6 -37 14 -69 18 -33 4 -60 13 -63 20 -5 17 92 14 128 -3z m245 -105 c3 -5 -1 -10 -9 -10 -9 0 -16 5 -16 10 0 6 4 10 9 10 6 0 13 -4 16 -10z m-342 -57 c20 -6 23 -19 5 -26 -23 -7 -46 4 -51 25 -4 15 -2 18 11 13 9 -4 25 -10 35 -12z m107 -40 c11 -10 20 -20 20 -24 0 -5 -44 -5 -84 0 -6 1 32 39 41 41 2 0 12 -8 23 -17z m65 -3 c3 -5 1 -10 -4 -10 -6 0 -11 5 -11 10 0 6 2 10 4 10 3 0 8 -4 11 -10z m-35 -49 c0 -18 -18 -21 -30 -6 -10 13 -9 15 9 15 11 0 21 -4 21 -9z"/>
<path d="M3055 1040 c-3 -5 -2 -10 4 -10 5 0 13 5 16 10 3 6 2 10 -4 10 -5 0 -13 -4 -16 -10z"/>
<path d="M2910 965 c0 -9 6 -12 15 -9 8 4 12 10 9 15 -8 14 -24 10 -24 -6z"/>
<path d="M2040 860 c0 -5 5 -10 11 -10 5 0 7 5 4 10 -3 6 -8 10 -11 10 -2 0 -4 -4 -4 -10z"/>
<path d="M1750 717 c0 -8 7 -17 15 -21 8 -3 15 -2 15 3 0 5 -7 14 -15 21 -12 10 -15 10 -15 -3z"/>
<path d="M1890 713 c0 -30 33 -48 50 -28 7 8 11 15 9 16 -2 0 -13 2 -23 4 -10 2 -23 10 -27 17 -6 9 -9 7 -9 -9z"/>
<path d="M1806 692 c-9 -8 14 -32 30 -32 21 0 17 27 -5 33 -11 3 -22 2 -25 -1z"/>
<path d="M1730 606 c0 -2 7 -6 15 -10 8 -3 15 -1 15 4 0 6 -7 10 -15 10 -8 0 -15 -2 -15 -4z"/>
<path d="M1890 600 c0 -5 7 -10 15 -10 8 0 15 5 15 10 0 6 -7 10 -15 10 -8 0 -15 -4 -15 -10z"/>
<path d="M1844 556 c23 -18 36 -20 36 -6 0 6 -4 10 -9 10 -5 0 -18 3 -28 6 -16 5 -16 4 1 -10z"/>
<path d="M1701 546 c2 -2 15 -9 29 -15 24 -11 24 -11 6 3 -16 13 -49 24 -35 12z"/>
<path d="M1932 517 c9 -9 27 -17 39 -17 30 0 14 16 -26 26 -28 7 -29 6 -13 -9z"/>
<path d="M1790 507 c20 -19 60 -31 60 -18 0 12 -7 16 -45 25 -26 6 -28 6 -15 -7z"/>
<path d="M2010 492 c0 -5 7 -13 16 -16 24 -9 54 -7 54 4 0 6 -9 10 -19 10 -11 0 -26 3 -35 6 -9 3 -16 2 -16 -4z"/>
<path d="M1880 471 c0 -11 59 -26 67 -17 4 3 -1 6 -10 6 -9 0 -17 5 -17 10 0 6 -9 10 -20 10 -11 0 -20 -4 -20 -9z"/>
<path d="M2110 461 c0 -12 48 -27 57 -17 9 8 2 13 -30 21 -17 5 -27 3 -27 -4z"/>
<path d="M2495 450 c-3 -5 1 -10 9 -10 8 0 18 5 21 10 3 6 -1 10 -9 10 -8 0 -18 -4 -21 -10z"/>
<path d="M1980 442 c0 -9 44 -32 60 -32 19 0 10 17 -15 28 -31 14 -45 15 -45 4z"/>
<path d="M2210 440 c0 -5 12 -10 26 -10 14 0 23 4 19 10 -3 6 -15 10 -26 10 -10 0 -19 -4 -19 -10z"/>
<path d="M2070 411 c0 -11 25 -21 53 -21 19 0 19 2 -7 15 -32 17 -46 19 -46 6z"/>
<path d="M2175 390 c3 -5 13 -10 21 -10 8 0 14 5 14 10 0 6 -9 10 -21 10 -11 0 -17 -4 -14 -10z"/>
<path d="M2560 86 c0 -7 -9 -16 -20 -19 -11 -3 -20 -13 -20 -22 0 -12 5 -15 16 -11 9 3 21 6 28 6 7 0 20 6 30 13 17 13 17 14 -8 30 -21 14 -26 15 -26 3z"/>
<path d="M2395 20 c-3 -5 1 -13 10 -16 22 -9 29 1 11 15 -10 8 -16 9 -21 1z"/>
<path d="M2493 23 c-22 -8 -14 -23 13 -23 15 0 24 5 22 12 -5 14 -18 18 -35 11z"/>
</g>
</svg>
