<svg xmlns="http://www.w3.org/2000/svg" xmlns:xlink="http://www.w3.org/1999/xlink" width="1600" height="600" viewBox="0 0 1600 600" version="1.1">
  <style>
    * {
      fill: #111;
      stroke: #111;
    }
    polygon, line, path {
      stroke-width: 3;
    }
    text {
      font-size: 50px;
      font-style: italic;
    }
    path {
      fill: none;
    }
    @media(prefers-color-scheme: dark) {
      * {
        fill: #d1d1d1;
        stroke: #d1d1d1;
      }
    }
  </style>
  <defs>
    <path id="catenary" d="M6.036 97.0398 8.7144 93.8927 11.3928 90.8043 14.0712 87.7746 16.7496 84.8029 19.428 81.8894 22.1064 79.0335 24.7848 76.2348 27.4632 73.4933 30.1416 70.8085 32.82 68.1803 35.4984 65.6084 38.1768 63.0923 40.8552 60.6321 43.5336 58.2275 46.212 55.878 48.8904 53.5836 51.5688 51.344 54.2472 49.1591 56.9256 47.0283 59.604 44.9519 62.2824 42.9292 64.9608 40.9605 67.6392 39.0453 70.3176 37.1834 72.996 35.3745 75.6744 33.6188 78.3528 31.9158 81.0312 30.2655 83.7096 28.6677 86.388 27.1221 89.0664 25.6287 91.7448 24.1874 94.4232 22.7979 97.1016 21.46 99.78 20.1739 102.4584 18.9391 105.1368 17.7558 107.8152 16.6236 110.4936 15.5426 113.172 14.5125 115.8504 13.5333 118.5288 12.6049 121.2072 11.7273 123.8856 10.9003 126.564 10.1238 129.2424 9.3978 131.9208 8.7222 134.5992 8.0968 137.2776 7.5217 139.956 6.9969 142.6344 6.5221 145.3128 6.0975 147.9912 5.7229 150.6696 5.3983 153.348 5.1239 156.0264 4.8991 158.7048 4.7246 161.3832 4.5998 164.0616 4.5249 166.74 4.5 169.4184 4.5249 172.0968 4.5998 174.7752 4.7246 177.4536 4.8991 180.132 5.1239 182.8104 5.3983 185.4888 5.7229 188.1672 6.0975 190.8456 6.5221 193.524 6.9969 196.2024 7.5217 198.8808 8.0968 201.5592 8.7222 204.2376 9.3978 206.916 10.1238 209.5944 10.9003 212.2728 11.7273 214.9512 12.6049 217.6296 13.5333 220.308 14.5125 222.9864 15.5426 225.6648 16.6236 228.3432 17.7558 231.0216 18.9391 233.7 20.1739 236.3784 21.46 239.0568 22.7979 241.7352 24.1874 244.4136 25.6287 247.092 27.1221 249.7704 28.6677 252.4488 30.2655 255.1272 31.9158 257.8056 33.6188 260.484 35.3745 263.1624 37.1834 265.8408 39.0453 268.5192 40.9605 271.1976 42.9292 273.876 44.9519 276.5544 47.0283 279.2328 49.1591 281.9112 51.344 284.5896 53.5836 287.268 55.878 289.9464 58.2275 292.6248 60.6321 295.3032 63.0923 297.9816 65.6084 300.66 68.1803 303.3384 70.8085 306.0168 73.4933 308.6952 76.2348 311.3736 79.0335 314.052 81.8894 316.7304 84.8029 319.4088 87.7746 322.0872 90.8043 325.5 94.5"></path>
    <polygon id="wheel" points="277,3 692,3 692,418 277,418" style="fill: none"></polygon>
  </defs>
  <g id="wheels">
    <line x1="484" y1="291" x2="484" y2="593" />
    <line x1="1282" y1="291" x2="1282" y2="593" />
    <line x1="484" y1="291" x2="1282" y2="291" stroke-dasharray="10" />
    <text x="500" y="380">s</text>
    <line x1="495" y1="390" x2="525" y2="390" />
    <text x="498" y="435">2</text>
    <text x="495" y="560">h</text>
    <text x="1300" y="420">s √2</text>
    <line x1="1296" y1="430" x2="1385" y2="430" />
    <text x="1313" y="475">2</text>
    <use xlink:href="#wheel" y="80" />
    <use xlink:href="#wheel" transform="translate(798 83) rotate(45 485 211)" />
  </g>
  <use xlink:href="#catenary" y="496" />
  <use xlink:href="#catenary" x="319" y="496" />
  <use xlink:href="#catenary" x="638" y="496" />
  <use xlink:href="#catenary" x="957" y="496" />
  <use xlink:href="#catenary" x="1276" y="496" />
</svg>
