<?xml version="1.0" encoding="UTF-8" standalone="no"?>
<svg xmlns="http://www.w3.org/2000/svg" xmlns:xlink="http://www.w3.org/1999/xlink" height="1200" width="1689" version="1.0">
  <defs>
    <linearGradient
       gradientUnits="userSpaceOnUse"
       y2="636"
       x2="1009"
       y1="168"
       x1="903"
       id="gradient">
      <stop offset="0" style="stop-color:#fff8d1" />
      <stop offset="1" style="stop-color:#ffea7a" />
    </linearGradient>
  </defs>
  <path style="stroke:#ff0000;stroke-width:8;" d="m 565,627 h 528" />
  <path style="stroke:#ff0000;stroke-width:8;" d="m 565,509 h 528" />
  <path style="stroke:#000000;stroke-width:8;" d="m 565,395 h 528" />
  <path style="stroke:#000000;stroke-width:8;" d="m 565,240 h 528" />
  <path
     d="M 766,670 V 310 l 20,-21 -9,-97 32,-31 h 34 l 32,31 -13,98 21,20 V 669"
     style="fill:url(#gradient);stroke:#000000;stroke-width:4;" />
  <rect width="118" height="37" x="767" y="320" />
  <rect width="115" height="40" x="768" y="435" />
  <rect width="115" height="40" x="768" y="545" />
  <rect width="224" height="472" x="717" y="658" />
  <text style="font-size:60px;font-family:sans-serif;" x="300" y="263">Left</text>
  <text style="font-size:60px;font-family:sans-serif;" x="300" y="412">Right</text>
  <text style="font-size:60px;font-family:sans-serif;" x="300" y="531">Mic</text>
  <text style="font-size:60px;font-family:sans-serif;" x="303" y="649">Ground</text>
  <text style="font-size:60px;font-family:sans-serif;" x="1168" y="263">Left</text>
  <text style="font-size:60px;font-family:sans-serif;" x="1168" y="412">Right</text>
  <text style="font-size:60px;font-family:sans-serif;" x="1168" y="648">Mic</text>
  <text style="font-size:60px;font-family:sans-serif;" x="1171" y="532">Ground</text>
  <text style="font-size:60px;font-family:sans-serif;font-weight:bold;" x="300" y="93">OMTP</text>
  <text style="font-size:60px;font-family:sans-serif;font-weight:bold;" x="1168" y="93">CTIA</text>
</svg>
