<svg aria-hidden="true" style="position: absolute; width: 0; height: 0; overflow: hidden;" version="1.1" xmlns="http://www.w3.org/2000/svg" xmlns:xlink="http://www.w3.org/1999/xlink">
<defs>
<symbol id="i-github" viewBox="0 0 24 28">
<path d="M12 2c6.625 0 12 5.375 12 12 0 5.297-3.437 9.797-8.203 11.391-0.609 0.109-0.828-0.266-0.828-0.578 0-0.391 0.016-1.687 0.016-3.297 0-1.125-0.375-1.844-0.812-2.219 2.672-0.297 5.484-1.313 5.484-5.922 0-1.313-0.469-2.375-1.234-3.219 0.125-0.313 0.531-1.531-0.125-3.187-1-0.313-3.297 1.234-3.297 1.234-0.953-0.266-1.984-0.406-3-0.406s-2.047 0.141-3 0.406c0 0-2.297-1.547-3.297-1.234-0.656 1.656-0.25 2.875-0.125 3.187-0.766 0.844-1.234 1.906-1.234 3.219 0 4.594 2.797 5.625 5.469 5.922-0.344 0.313-0.656 0.844-0.766 1.609-0.688 0.313-2.438 0.844-3.484-1-0.656-1.141-1.844-1.234-1.844-1.234-1.172-0.016-0.078 0.734-0.078 0.734 0.781 0.359 1.328 1.75 1.328 1.75 0.703 2.141 4.047 1.422 4.047 1.422 0 1 0.016 1.937 0.016 2.234 0 0.313-0.219 0.688-0.828 0.578-4.766-1.594-8.203-6.094-8.203-11.391 0-6.625 5.375-12 12-12zM4.547 19.234c0.031-0.063-0.016-0.141-0.109-0.187-0.094-0.031-0.172-0.016-0.203 0.031-0.031 0.063 0.016 0.141 0.109 0.187 0.078 0.047 0.172 0.031 0.203-0.031zM5.031 19.766c0.063-0.047 0.047-0.156-0.031-0.25-0.078-0.078-0.187-0.109-0.25-0.047-0.063 0.047-0.047 0.156 0.031 0.25 0.078 0.078 0.187 0.109 0.25 0.047zM5.5 20.469c0.078-0.063 0.078-0.187 0-0.297-0.063-0.109-0.187-0.156-0.266-0.094-0.078 0.047-0.078 0.172 0 0.281s0.203 0.156 0.266 0.109zM6.156 21.125c0.063-0.063 0.031-0.203-0.063-0.297-0.109-0.109-0.25-0.125-0.313-0.047-0.078 0.063-0.047 0.203 0.063 0.297 0.109 0.109 0.25 0.125 0.313 0.047zM7.047 21.516c0.031-0.094-0.063-0.203-0.203-0.25-0.125-0.031-0.266 0.016-0.297 0.109s0.063 0.203 0.203 0.234c0.125 0.047 0.266 0 0.297-0.094zM8.031 21.594c0-0.109-0.125-0.187-0.266-0.172-0.141 0-0.25 0.078-0.25 0.172 0 0.109 0.109 0.187 0.266 0.172 0.141 0 0.25-0.078 0.25-0.172zM8.937 21.438c-0.016-0.094-0.141-0.156-0.281-0.141-0.141 0.031-0.234 0.125-0.219 0.234 0.016 0.094 0.141 0.156 0.281 0.125s0.234-0.125 0.219-0.219z"></path>
</symbol>
<symbol id="i-square" viewBox="0 0 24 28">
<path d="M24 6.5v15c0 2.484-2.016 4.5-4.5 4.5h-15c-2.484 0-4.5-2.016-4.5-4.5v-15c0-2.484 2.016-4.5 4.5-4.5h15c2.484 0 4.5 2.016 4.5 4.5z"></path>
</symbol>
<symbol id="i-linkedin-square" viewBox="0 0 24 28">
<path d="M3.703 22.094h3.609v-10.844h-3.609v10.844zM7.547 7.906c-0.016-1.062-0.781-1.875-2.016-1.875s-2.047 0.812-2.047 1.875c0 1.031 0.781 1.875 2 1.875h0.016c1.266 0 2.047-0.844 2.047-1.875zM16.688 22.094h3.609v-6.219c0-3.328-1.781-4.875-4.156-4.875-1.937 0-2.797 1.078-3.266 1.828h0.031v-1.578h-3.609s0.047 1.016 0 10.844v0h3.609v-6.062c0-0.313 0.016-0.641 0.109-0.875 0.266-0.641 0.859-1.313 1.859-1.313 1.297 0 1.813 0.984 1.813 2.453v5.797zM24 6.5v15c0 2.484-2.016 4.5-4.5 4.5h-15c-2.484 0-4.5-2.016-4.5-4.5v-15c0-2.484 2.016-4.5 4.5-4.5h15c2.484 0 4.5 2.016 4.5 4.5z"></path>
</symbol>
<symbol id="i-twitter" viewBox="0 0 26 28">
<path d="M25.312 6.375c-0.688 1-1.547 1.891-2.531 2.609 0.016 0.219 0.016 0.438 0.016 0.656 0 6.672-5.078 14.359-14.359 14.359-2.859 0-5.516-0.828-7.75-2.266 0.406 0.047 0.797 0.063 1.219 0.063 2.359 0 4.531-0.797 6.266-2.156-2.219-0.047-4.078-1.5-4.719-3.5 0.313 0.047 0.625 0.078 0.953 0.078 0.453 0 0.906-0.063 1.328-0.172-2.312-0.469-4.047-2.5-4.047-4.953v-0.063c0.672 0.375 1.453 0.609 2.281 0.641-1.359-0.906-2.25-2.453-2.25-4.203 0-0.938 0.25-1.797 0.688-2.547 2.484 3.062 6.219 5.063 10.406 5.281-0.078-0.375-0.125-0.766-0.125-1.156 0-2.781 2.25-5.047 5.047-5.047 1.453 0 2.766 0.609 3.687 1.594 1.141-0.219 2.234-0.641 3.203-1.219-0.375 1.172-1.172 2.156-2.219 2.781 1.016-0.109 2-0.391 2.906-0.781z"></path>
</symbol>
<symbol id="i-search" viewBox="0 0 26 28">
<path d="M18 13c0-3.859-3.141-7-7-7s-7 3.141-7 7 3.141 7 7 7 7-3.141 7-7zM26 26c0 1.094-0.906 2-2 2-0.531 0-1.047-0.219-1.406-0.594l-5.359-5.344c-1.828 1.266-4.016 1.937-6.234 1.937-6.078 0-11-4.922-11-11s4.922-11 11-11 11 4.922 11 11c0 2.219-0.672 4.406-1.937 6.234l5.359 5.359c0.359 0.359 0.578 0.875 0.578 1.406z"></path>
</symbol>
<symbol id="i-amazon" viewBox="0 0 28 28">
<path d="M24.234 23.063c0.469-0.234 0.828 0.125 0.344 0.75s-4.375 4.188-10.906 4.188-11.531-4.469-13.062-6.312c-0.422-0.484 0.063-0.703 0.344-0.516 4.578 2.781 11.734 7.359 23.281 1.891zM27.469 21.266c0.234 0.313 0 1.687-0.406 2.688-0.406 0.984-1 1.672-1.328 1.937-0.344 0.281-0.594 0.172-0.406-0.234s1.203-2.906 0.797-3.437c-0.406-0.516-2.312-0.266-3-0.203-0.672 0.063-0.812 0.125-0.875-0.016-0.141-0.359 1.359-0.969 2.344-1.094 0.984-0.109 2.562-0.047 2.875 0.359zM21.313 14.344c0 1.719 2.016 3.297 2.016 3.297l-3.547 3.5c-1.391-1.313-2.438-2.406-2.438-2.406-0.156-0.156-0.281-0.344-0.391-0.516-2.828 4.422-11.469 4.141-11.469-2.703 0-6.375 7.547-7.234 10.594-7.344v-1.984c0-0.422 0.156-2.344-2.219-2.344 0 0-2.375 0-3.391 3.094l-4.594-0.422c0-3.078 2.922-6.516 8.422-6.516 5.484 0 7.016 3.563 7.016 5.141v9.203zM10.813 14.672c0 3.172 5.266 3.922 5.266-1.078v-2.531c-2.109 0.063-5.266 0.656-5.266 3.609z"></path>
</symbol>
<symbol id="i-facebook-official" viewBox="0 0 24 28">
<path d="M22.672 2c0.734 0 1.328 0.594 1.328 1.328v21.344c0 0.734-0.594 1.328-1.328 1.328h-6.109v-9.297h3.109l0.469-3.625h-3.578v-2.312c0-1.047 0.281-1.75 1.797-1.75l1.906-0.016v-3.234c-0.328-0.047-1.469-0.141-2.781-0.141-2.766 0-4.672 1.687-4.672 4.781v2.672h-3.125v3.625h3.125v9.297h-11.484c-0.734 0-1.328-0.594-1.328-1.328v-21.344c0-0.734 0.594-1.328 1.328-1.328h21.344z"></path>
</symbol>
<symbol id="i-file-archive-o" viewBox="0 0 24 28">
<path d="M10 6v-2h-2v2h2zM12 8v-2h-2v2h2zM10 10v-2h-2v2h2zM12 12v-2h-2v2h2zM22.937 5.938c0.578 0.578 1.062 1.734 1.062 2.562v18c0 0.828-0.672 1.5-1.5 1.5h-21c-0.828 0-1.5-0.672-1.5-1.5v-25c0-0.828 0.672-1.5 1.5-1.5h14c0.828 0 1.984 0.484 2.562 1.062zM16 2.125v5.875h5.875c-0.094-0.266-0.234-0.531-0.344-0.641l-4.891-4.891c-0.109-0.109-0.375-0.25-0.641-0.344zM22 26v-16h-6.5c-0.828 0-1.5-0.672-1.5-1.5v-6.5h-2v2h-2v-2h-8v24h20zM12.203 14.734c1.328 4.484 1.672 5.453 1.672 5.453 0.078 0.266 0.125 0.531 0.125 0.812 0 1.734-1.687 3-4 3s-4-1.266-4-3c0-0.281 0.047-0.547 0.125-0.812 0 0 0.328-0.969 1.875-6.188v-2h2v2h1.234c0.453 0 0.844 0.297 0.969 0.734zM10 22c1.109 0 2-0.453 2-1s-0.891-1-2-1-2 0.453-2 1 0.891 1 2 1z"></path>
</symbol>
<symbol id="i-instagram" viewBox="0 0 24 28">
<path d="M16 14c0-2.203-1.797-4-4-4s-4 1.797-4 4 1.797 4 4 4 4-1.797 4-4zM18.156 14c0 3.406-2.75 6.156-6.156 6.156s-6.156-2.75-6.156-6.156 2.75-6.156 6.156-6.156 6.156 2.75 6.156 6.156zM19.844 7.594c0 0.797-0.641 1.437-1.437 1.437s-1.437-0.641-1.437-1.437 0.641-1.437 1.437-1.437 1.437 0.641 1.437 1.437zM12 4.156c-1.75 0-5.5-0.141-7.078 0.484-0.547 0.219-0.953 0.484-1.375 0.906s-0.688 0.828-0.906 1.375c-0.625 1.578-0.484 5.328-0.484 7.078s-0.141 5.5 0.484 7.078c0.219 0.547 0.484 0.953 0.906 1.375s0.828 0.688 1.375 0.906c1.578 0.625 5.328 0.484 7.078 0.484s5.5 0.141 7.078-0.484c0.547-0.219 0.953-0.484 1.375-0.906s0.688-0.828 0.906-1.375c0.625-1.578 0.484-5.328 0.484-7.078s0.141-5.5-0.484-7.078c-0.219-0.547-0.484-0.953-0.906-1.375s-0.828-0.688-1.375-0.906c-1.578-0.625-5.328-0.484-7.078-0.484zM24 14c0 1.656 0.016 3.297-0.078 4.953-0.094 1.922-0.531 3.625-1.937 5.031s-3.109 1.844-5.031 1.937c-1.656 0.094-3.297 0.078-4.953 0.078s-3.297 0.016-4.953-0.078c-1.922-0.094-3.625-0.531-5.031-1.937s-1.844-3.109-1.937-5.031c-0.094-1.656-0.078-3.297-0.078-4.953s-0.016-3.297 0.078-4.953c0.094-1.922 0.531-3.625 1.937-5.031s3.109-1.844 5.031-1.937c1.656-0.094 3.297-0.078 4.953-0.078s3.297-0.016 4.953 0.078c1.922 0.094 3.625 0.531 5.031 1.937s1.844 3.109 1.937 5.031c0.094 1.656 0.078 3.297 0.078 4.953z"></path>
</symbol>
<symbol id="i-sitemap" viewBox="0 0 28 28">
<path d="M28 19.5v5c0 0.828-0.672 1.5-1.5 1.5h-5c-0.828 0-1.5-0.672-1.5-1.5v-5c0-0.828 0.672-1.5 1.5-1.5h1.5v-3h-8v3h1.5c0.828 0 1.5 0.672 1.5 1.5v5c0 0.828-0.672 1.5-1.5 1.5h-5c-0.828 0-1.5-0.672-1.5-1.5v-5c0-0.828 0.672-1.5 1.5-1.5h1.5v-3h-8v3h1.5c0.828 0 1.5 0.672 1.5 1.5v5c0 0.828-0.672 1.5-1.5 1.5h-5c-0.828 0-1.5-0.672-1.5-1.5v-5c0-0.828 0.672-1.5 1.5-1.5h1.5v-3c0-1.094 0.906-2 2-2h8v-3h-1.5c-0.828 0-1.5-0.672-1.5-1.5v-5c0-0.828 0.672-1.5 1.5-1.5h5c0.828 0 1.5 0.672 1.5 1.5v5c0 0.828-0.672 1.5-1.5 1.5h-1.5v3h8c1.094 0 2 0.906 2 2v3h1.5c0.828 0 1.5 0.672 1.5 1.5z"></path>
</symbol>
<symbol id="i-envelope" viewBox="0 0 28 28">
<path d="M28 11.094v12.406c0 1.375-1.125 2.5-2.5 2.5h-23c-1.375 0-2.5-1.125-2.5-2.5v-12.406c0.469 0.516 1 0.969 1.578 1.359 2.594 1.766 5.219 3.531 7.766 5.391 1.313 0.969 2.938 2.156 4.641 2.156h0.031c1.703 0 3.328-1.188 4.641-2.156 2.547-1.844 5.172-3.625 7.781-5.391 0.562-0.391 1.094-0.844 1.563-1.359zM28 6.5c0 1.75-1.297 3.328-2.672 4.281-2.438 1.687-4.891 3.375-7.313 5.078-1.016 0.703-2.734 2.141-4 2.141h-0.031c-1.266 0-2.984-1.437-4-2.141-2.422-1.703-4.875-3.391-7.297-5.078-1.109-0.75-2.688-2.516-2.688-3.938 0-1.531 0.828-2.844 2.5-2.844h23c1.359 0 2.5 1.125 2.5 2.5z"></path>
</symbol>
<symbol id="i-mastodon" viewBox="0 0 24 24">
<path d="M23.193 7.879c0-5.206-3.411-6.732-3.411-6.732-1.72-0.79-4.674-1.122-7.741-1.147h-0.076c-3.068 0.025-6.020 0.357-7.74 1.147 0 0-3.411 1.526-3.411 6.732 0 1.192-0.023 2.618 0.015 4.129 0.124 5.092 0.934 10.109 5.641 11.355 2.17 0.574 4.034 0.695 5.535 0.612 2.722-0.15 4.25-0.972 4.25-0.972l-0.090-1.975c0 0-1.945 0.613-4.129 0.539-2.165-0.074-4.449-0.233-4.799-2.891-0.031-0.218-0.048-0.47-0.048-0.725 0-0.007 0-0.014 0-0.021v0.001c0 0 2.125 0.52 4.817 0.643 1.646 0.075 3.19-0.097 4.758-0.283 3.007-0.359 5.625-2.212 5.954-3.905 0.517-2.665 0.475-6.507 0.475-6.507zM19.169 14.588h-2.497v-6.119c0-1.29-0.543-1.944-1.628-1.944-1.2 0-1.802 0.776-1.802 2.312v3.349h-2.483v-3.35c0-1.536-0.602-2.312-1.802-2.312-1.085 0-1.628 0.655-1.628 1.944v6.119h-2.497v-6.303c0-1.289 0.328-2.313 0.987-3.070 0.68-0.758 1.569-1.146 2.674-1.146 1.278 0 2.246 0.491 2.886 1.474l0.621 1.043 0.622-1.043c0.64-0.983 1.608-1.474 2.886-1.474 1.104 0 1.994 0.388 2.674 1.146 0.658 0.757 0.986 1.781 0.986 3.070z"></path>
</symbol>
<symbol id="i-npm" viewBox="0 0 24 24">
<path d="M0 7.334v8h6.666v1.332h5.334v-1.332h12v-8zM6.666 13.998h-1.332v-4h-1.335v4h-2.664v-5.331h5.331zM10.666 13.998v1.336h-2.665v-6.667h5.334v5.332h-2.669zM22.667 13.998h-1.33v-4h-1.336v4h-1.335v-4h-1.33v4h-2.671v-5.331h8.002zM10.665 10h1.335v2.667h-1.335z"></path>
</symbol>
<symbol id="i-hackerone" viewBox="0 0 24 24">
<path d="M7.207 0c-0.484 0-0.877 0.102-1.182 0.3-0.304 0.2-0.459 0.463-0.459 0.78v21.809c0 0.277 0.158 0.528 0.475 0.761 0.315 0.234 0.703 0.35 1.166 0.35 0.443 0 0.831-0.117 1.168-0.35 0.335-0.231 0.506-0.484 0.506-0.761v-21.807c0-0.319-0.162-0.577-0.489-0.781-0.327-0.198-0.721-0.3-1.184-0.3zM16.73 8.662c-0.484 0-0.872 0.098-1.168 0.301l-4.439 2.782c-0.199 0.186-0.284 0.469-0.247 0.855 0.034 0.383 0.211 0.747 0.524 1.091 0.315 0.346 0.666 0.563 1.068 0.655 0.396 0.090 0.697 0.041 0.896-0.143l1.755-1.095v9.782c0 0.277 0.152 0.528 0.461 0.761 0.301 0.234 0.687 0.35 1.15 0.35s0.863-0.117 1.198-0.35c0.337-0.233 0.506-0.484 0.506-0.761v-13.151c0-0.319-0.165-0.577-0.49-0.775-0.325-0.203-0.729-0.301-1.214-0.301z"></path>
</symbol>
</defs>
</svg>
