<?xml version="1.0" encoding="utf-8" standalone="no"?>
<svg xmlns="http://www.w3.org/2000/svg" version="1.1" viewBox="0 0 700 700" width="150" height="150">
  <style>
    :root {
      --red: #f03031;
      --green: #2ac44b;
      --yellow: #ffff25;
      --bg: black;
    }

    .bg {
      fill: var(--bg);
    }

    rect {
      fill: var(--yellow);
    }

    .d6 {
      fill: var(--green);
    }

    .d8 {
      fill: var(--red);
    }

    @media (prefers-color-scheme: dark) {
      :root {
        --bg: #333;
      }
    }
  </style>
  <path class="bg" d="m 75.5168 70.5086 c -4.432 0 -8 3.568 -8 8 l 0 171.1563 c 0 3.324 2.0017 6.1638 4.875 7.375 c -2.8733 1.2112 -4.875 4.051 -4.875 7.375 l 0 171.1563 c 0 2.9317 1.5353 5.482 3.875 6.875 c -2.3319 1.3948 -3.875 3.9492 -3.875 6.875 l 0 171.125 c 0 4.432 3.568 8 8 8 l 171.125 0 c 3.6472 0 6.7174 -2.4244 7.6875 -5.75 c 0.9701 3.3256 4.0403 5.75 7.6875 5.75 l 171.125 0 c 3.6472 0 6.7174 -2.4244 7.6875 -5.75 c 0.9701 3.3256 4.0403 5.75 7.6875 5.75 l 171.125 0 c 4.432 0 8 -3.568 8 -8 l 0 -171.125 c 0 -2.9258 -1.5431 -5.4802 -3.875 -6.875 c 2.3397 -1.393 3.875 -3.9433 3.875 -6.875 l 0 -171.1563 c 0 -3.324 -2.0017 -6.1638 -4.875 -7.375 c 2.8733 -1.2112 4.875 -4.051 4.875 -7.375 l 0 -171.1563 c 0 -4.432 -3.568 -8 -8 -8 l -171.125 0 c -3.6472 0 -6.7174 2.4244 -7.6875 5.75 c -0.9701 -3.3256 -4.0403 -5.75 -7.6875 -5.75 l -171.125 0 c -3.6472 0 -6.7174 2.4244 -7.6875 5.75 c -0.9701 -3.3256 -4.0403 -5.75 -7.6875 -5.75 l -171.125 0 z" />
  <rect class="d1" width="159.6" height="163.6" rx="6" ry="6" x="81.2839" y="82.2942" />
  <rect class="d2" width="159.6" height="163.6" rx="6" ry="6" x="267.7839" y="82.2942" />
  <rect class="d3" width="159.6" height="163.6" rx="6" ry="6" x="454.2839" y="82.2942" />
  <rect class="d4" width="159.6" height="163.6" rx="6" ry="6" x="81.2839" y="268.2091" />
  <rect class="d5" width="159.6" height="163.6" rx="6" ry="6" x="267.7839" y="268.2091" />
  <rect class="d6" width="159.6" height="163.6" rx="6" ry="6" x="454.2839" y="268.2091" />
  <rect class="d7" width="159.6" height="163.6" rx="6" ry="6" x="81.2839" y="453.0874" />
  <rect class="d8" width="159.6" height="163.6" rx="6" ry="6" x="267.7839" y="453.0874" />
  <rect class="d9" width="159.6" height="163.6" rx="6" ry="6" x="454.2839" y="453.0874" />
</svg>
