<?xml version="1.0" encoding="UTF-8"?>
<!DOCTYPE svg PUBLIC "-//W3C//DTD SVG 1.1//EN" "http://www.w3.org/Graphics/SVG/1.1/DTD/svg11.dtd">
<svg xmlns="http://www.w3.org/2000/svg" xmlns:xlink="http://www.w3.org/1999/xlink" version="1.1" width="503px" height="311px" viewBox="-0.5 -0.5 503 311">
<style>
    @media (prefers-color-scheme: dark) {
        .cloud__border, .arrow {
            stroke: #d1d1d1;
        }
        .cloud, g.vpc, .icon__label, .user, .arrow {
            fill: #d1d1d1;
        }
        .subnet__border {
            fill: #2f3320;
        }
        g.subnet {
            fill: #7aa116;
        }
        .ec2__inner {
            fill: #d0dac3;
        }
    }
</style>
<defs/>
<g>
<path class="cloud__border" d="M 91 0 L 501 0 L 501 310 L 91 310 Z" fill="none" stroke="#232f3e" stroke-miterlimit="10" pointer-events="all"/>
<path class="cloud" d="M 101.73 6.89 C 99.19 6.86 97.05 9.34 97.28 11.84 C 95.63 12.3 94.58 14.09 94.93 15.76 C 95.17 17.45 96.84 18.8 98.55 18.58 C 102.3 18.56 106.05 18.61 109.79 18.55 C 111.71 18.38 113.05 16.29 112.58 14.45 C 112.34 13.13 111.21 11.98 109.87 11.81 C 109.86 10.3 108.26 8.82 106.79 9.6 C 105.97 10.39 105.82 8.44 105.02 8.13 C 104.14 7.28 102.95 6.82 101.73 6.89 Z M 101.75 7.63 C 103.68 7.51 105.32 9.05 105.91 10.79 C 106.31 11.19 106.67 10.52 106.97 10.34 C 108.25 9.57 109.21 11.17 109.23 12.29 C 109.58 12.77 110.39 12.38 110.77 12.91 C 112.21 13.93 112.3 16.3 110.88 17.37 C 109.9 18.09 108.63 17.75 107.5 17.83 C 104.28 17.82 101.06 17.84 97.84 17.82 C 96.2 17.58 95.19 15.69 95.79 14.17 C 96.07 13.16 97.05 12.67 97.94 12.36 C 98.19 11.62 97.85 10.71 98.33 9.99 C 98.92 8.65 100.25 7.61 101.75 7.63 Z M 91 25 C 91 16.67 91 8.33 91 0 C 99.33 0 107.67 0 116 0 C 116 8.33 116 16.67 116 25 C 107.67 25 99.33 25 91 25 Z" fill="#232f3e" stroke="none" pointer-events="all"/>
<g class="icon__label" fill="#232F3E" font-family="Helvetica" font-size="12px"><text x="122.5" y="17.5">AWS Cloud</text></g>
<path class="vpc" d="M 201 40 L 471 40 L 471 280 L 201 280 Z" fill="none" stroke="#618437" stroke-miterlimit="10" pointer-events="all"/>
<path class="vpc" d="M 211.59 46.65 C 211.53 46.65 211.48 46.65 211.42 46.65 L 211.42 46.65 C 210.11 46.68 209.03 47.24 208.14 48.25 C 208.13 48.25 208.13 48.25 208.13 48.25 C 207.2 49.36 206.87 50.52 206.96 51.73 C 205.81 52.06 205.12 52.92 204.76 53.74 C 204.75 53.75 204.75 53.76 204.74 53.78 C 204.33 55.05 204.68 56.36 205.24 57.16 C 205.25 57.17 205.25 57.17 205.26 57.18 C 205.94 58.05 206.97 58.53 208.02 58.53 L 219.17 58.53 C 220.19 58.53 221.07 58.16 221.8 57.37 C 222.25 56.94 222.49 56.29 222.58 55.59 C 222.67 54.9 222.61 54.16 222.32 53.55 C 222.31 53.54 222.31 53.53 222.31 53.52 C 221.8 52.62 220.95 51.81 219.76 51.64 C 219.74 50.79 219.28 49.99 218.68 49.56 C 218.67 49.55 218.66 49.55 218.65 49.54 C 218.01 49.18 217.4 49.14 216.91 49.3 C 216.6 49.4 216.36 49.56 216.14 49.74 C 215.51 48.36 214.43 47.18 212.81 46.79 C 212.81 46.79 212.81 46.79 212.81 46.79 C 212.38 46.7 211.97 46.65 211.59 46.65 Z M 211.43 47.38 C 211.8 47.38 212.2 47.43 212.64 47.53 C 214.16 47.89 215.15 49.07 215.66 50.48 C 215.71 50.6 215.81 50.69 215.94 50.72 C 216.07 50.74 216.2 50.7 216.29 50.61 C 216.54 50.34 216.83 50.11 217.14 50.01 C 217.44 49.91 217.78 49.92 218.26 50.18 C 218.67 50.49 219.11 51.31 219.03 51.9 C 219.01 52.01 219.05 52.12 219.12 52.2 C 219.19 52.28 219.29 52.33 219.39 52.33 C 220.46 52.34 221.16 53.02 221.64 53.88 C 221.85 54.3 221.91 54.92 221.84 55.5 C 221.76 56.07 221.53 56.59 221.28 56.83 C 221.27 56.84 221.27 56.85 221.26 56.85 C 220.65 57.53 220.03 57.78 219.17 57.78 L 208.02 57.78 C 207.2 57.78 206.39 57.41 205.85 56.73 C 205.44 56.13 205.14 55.02 205.46 54.02 C 205.79 53.27 206.36 52.55 207.41 52.36 C 207.6 52.32 207.74 52.14 207.71 51.94 C 207.56 50.79 207.8 49.81 208.7 48.74 C 209.49 47.85 210.33 47.39 211.43 47.38 Z M 213.2 50.7 C 212.77 50.7 212.4 50.93 212.13 51.21 C 211.85 51.5 211.64 51.85 211.64 52.25 L 211.64 52.71 L 211.14 52.71 C 211.04 52.71 210.94 52.75 210.87 52.82 C 210.8 52.89 210.76 52.98 210.76 53.08 L 210.76 55.7 C 210.76 55.8 210.8 55.89 210.87 55.96 C 210.94 56.03 211.04 56.07 211.14 56.07 L 215.16 56.07 C 215.26 56.07 215.35 56.03 215.42 55.96 C 215.49 55.89 215.53 55.8 215.53 55.7 L 215.53 53.08 C 215.53 52.98 215.49 52.89 215.42 52.82 C 215.35 52.75 215.26 52.71 215.16 52.71 L 214.68 52.71 L 214.68 52.25 C 214.68 51.84 214.47 51.47 214.21 51.2 C 213.94 50.92 213.61 50.7 213.2 50.7 Z M 213.2 51.45 C 213.29 51.45 213.5 51.54 213.67 51.72 C 213.83 51.89 213.93 52.11 213.93 52.25 L 213.93 52.71 L 212.39 52.71 L 212.39 52.25 C 212.39 52.15 212.49 51.91 212.66 51.74 C 212.83 51.56 213.06 51.45 213.2 51.45 Z M 211.51 53.46 L 214.78 53.46 L 214.78 55.32 L 211.51 55.32 Z M 201 65 L 201 40 L 226 40 L 226 65 Z" fill="#618437" stroke="none" pointer-events="all"/>
<g class="vpc" fill="#232F3E" font-family="Helvetica" font-size="12px"><text x="232.5" y="57.5">VPC</text></g>
<path class="subnet__border" d="M 231 80 L 441 80 L 441 260 L 231 260 Z" fill="#f2f6e8" stroke="none" pointer-events="none"/>
<path class="subnet" d="M 231 80 L 256 80 L 256 105 L 231 105 Z M 243.52 83.21 C 242.4 83.21 241.31 83.63 240.49 84.39 C 239.67 85.11 239.2 86.15 239.2 87.24 L 239.2 89.78 L 236.89 89.78 C 236.8 89.78 236.7 89.82 236.64 89.89 C 236.57 89.95 236.54 90.04 236.54 90.14 L 236.54 101.43 C 236.54 101.63 236.7 101.79 236.89 101.79 L 250.11 101.79 C 250.3 101.79 250.46 101.63 250.46 101.43 L 250.46 90.15 C 250.47 90.06 250.43 89.97 250.36 89.9 C 250.3 89.83 250.21 89.79 250.11 89.79 L 247.81 89.79 L 247.81 87.29 C 247.8 86.21 247.35 85.18 246.56 84.44 C 245.74 83.65 244.65 83.22 243.52 83.21 Z M 243.51 83.93 C 244.46 83.92 245.37 84.28 246.06 84.93 C 246.72 85.54 247.1 86.4 247.1 87.29 L 247.1 89.79 L 239.88 89.79 L 239.89 87.26 C 239.9 86.36 240.28 85.51 240.95 84.91 C 241.65 84.27 242.57 83.92 243.51 83.93 Z M 237.24 90.5 L 249.76 90.5 L 249.75 101.07 L 237.24 101.07 Z M 243.51 92.74 C 242.48 92.73 241.61 93.51 241.51 94.53 C 241.42 95.56 242.13 96.48 243.14 96.66 L 243.14 99.44 L 243.86 99.44 L 243.86 96.66 C 244.79 96.49 245.47 95.67 245.48 94.72 C 245.48 93.63 244.6 92.75 243.51 92.74 Z M 243.39 93.45 C 243.43 93.45 243.47 93.45 243.51 93.46 C 243.84 93.46 244.16 93.59 244.4 93.83 C 244.64 94.07 244.77 94.39 244.76 94.72 C 244.77 95.06 244.64 95.38 244.4 95.61 C 244.16 95.85 243.84 95.98 243.51 95.98 C 243.04 96.02 242.6 95.8 242.34 95.42 C 242.08 95.03 242.06 94.53 242.28 94.12 C 242.5 93.71 242.93 93.46 243.39 93.45 Z" fill="#7aa116" stroke="none" pointer-events="all"/>
<g class="subnet" fill="#248814" font-family="Helvetica" font-size="12px"><text x="262.5" y="97.5">Public subnet</text></g>
<path class="ec2" d="M 371 145 L 421 145 L 421 195 L 371 195 Z" fill="#ed7100" stroke="none" pointer-events="all"/>
<path class="ec2__inner" d="M 386.71 179.29 L 404.57 179.29 L 404.57 161.43 L 386.71 161.43 Z M 406 161.43 L 408.86 161.43 L 408.86 162.86 L 406 162.86 L 406 165.71 L 408.86 165.71 L 408.86 167.14 L 406 167.14 L 406 169.29 L 408.86 169.29 L 408.86 170.71 L 406 170.71 L 406 173.57 L 408.86 173.57 L 408.86 175 L 406 175 L 406 177.86 L 408.86 177.86 L 408.86 179.29 L 406 179.29 L 406 179.38 C 406 180.12 405.4 180.71 404.67 180.71 L 404.57 180.71 L 404.57 183.57 L 403.14 183.57 L 403.14 180.71 L 400.29 180.71 L 400.29 183.57 L 398.86 183.57 L 398.86 180.71 L 396.71 180.71 L 396.71 183.57 L 395.29 183.57 L 395.29 180.71 L 392.43 180.71 L 392.43 183.57 L 391 183.57 L 391 180.71 L 388.14 180.71 L 388.14 183.57 L 386.71 183.57 L 386.71 180.71 L 386.62 180.71 C 385.88 180.71 385.29 180.12 385.29 179.38 L 385.29 179.29 L 383.14 179.29 L 383.14 177.86 L 385.29 177.86 L 385.29 175 L 383.14 175 L 383.14 173.57 L 385.29 173.57 L 385.29 170.71 L 383.14 170.71 L 383.14 169.29 L 385.29 169.29 L 385.29 167.14 L 383.14 167.14 L 383.14 165.71 L 385.29 165.71 L 385.29 162.86 L 383.14 162.86 L 383.14 161.43 L 385.29 161.43 L 385.29 161.33 C 385.29 160.6 385.88 160 386.62 160 L 386.71 160 L 386.71 157.14 L 388.14 157.14 L 388.14 160 L 391 160 L 391 157.14 L 392.43 157.14 L 392.43 160 L 395.29 160 L 395.29 157.14 L 396.71 157.14 L 396.71 160 L 398.86 160 L 398.86 157.14 L 400.29 157.14 L 400.29 160 L 403.14 160 L 403.14 157.14 L 404.57 157.14 L 404.57 160 L 404.67 160 C 405.4 160 406 160.6 406 161.33 Z M 396.71 188.48 C 396.71 188.53 396.67 188.57 396.63 188.57 L 377.52 188.57 C 377.47 188.57 377.43 188.53 377.43 188.48 L 377.43 169.37 C 377.43 169.33 377.47 169.29 377.52 169.29 L 381.71 169.29 L 381.71 167.86 L 377.52 167.86 C 376.68 167.86 376 168.54 376 169.37 L 376 188.48 C 376 189.32 376.68 190 377.52 190 L 396.63 190 C 397.46 190 398.14 189.32 398.14 188.48 L 398.14 185 L 396.71 185 Z M 416 151.52 L 416 170.63 C 416 171.46 415.32 172.14 414.48 172.14 L 410.29 172.14 L 410.29 170.71 L 414.48 170.71 C 414.53 170.71 414.57 170.67 414.57 170.63 L 414.57 151.52 C 414.57 151.47 414.53 151.43 414.48 151.43 L 395.37 151.43 C 395.33 151.43 395.29 151.47 395.29 151.52 L 395.29 155.71 L 393.86 155.71 L 393.86 151.52 C 393.86 150.68 394.54 150 395.37 150 L 414.48 150 C 415.32 150 416 150.68 416 151.52 Z" fill="#ffffff" stroke="none" pointer-events="all"/>
<g class="icon__label" fill="#232F3E" font-family="Helvetica" text-anchor="middle" font-size="12px"><text x="395.5" y="212.5">EC2 Instance</text></g>
<path class="arrow" d="M 171 170 L 254.63 170" fill="none" stroke="rgb(0, 0, 0)" stroke-miterlimit="10" pointer-events="stroke"/>
<path class="arrow" d="M 259.88 170 L 252.88 173.5 L 254.63 170 L 252.88 166.5 Z" fill="rgb(0, 0, 0)" stroke="rgb(0, 0, 0)" stroke-miterlimit="10" pointer-events="all"/>
<rect x="121" y="145" width="50" height="50" fill="none" stroke="none" pointer-events="all"/>
<path d="M 148.17 171.09 L 150.34 171.09 L 150.34 168.92 L 148.17 168.92 Z M 144.91 171.09 L 147.08 171.09 L 147.08 168.92 L 144.91 168.92 Z M 141.66 171.09 L 143.83 171.09 L 143.83 168.92 L 141.66 168.92 Z M 161.13 177.96 L 153.65 184.55 L 153.65 155.6 L 161.13 162.19 Z M 153.89 152.87 C 153.66 152.77 152.65 152.48 151.96 152.86 L 151.37 153.19 L 151.37 186.96 L 151.96 187.29 C 152.22 187.43 152.52 187.48 152.81 187.48 C 153.3 187.48 153.75 187.34 153.89 187.28 L 154.06 187.21 L 162.55 179.74 C 163.08 179.43 163.41 178.88 163.41 178.28 L 163.41 161.87 C 163.41 161.27 163.08 160.72 162.55 160.41 L 154.06 152.94 Z M 138.36 184.55 L 130.87 177.96 L 130.87 162.19 L 138.36 155.6 Z M 138.11 152.87 L 137.94 152.94 L 129.45 160.41 C 128.92 160.72 128.59 161.27 128.59 161.87 L 128.59 178.28 C 128.59 178.88 128.92 179.43 129.45 179.74 L 137.94 187.21 L 138.11 187.28 C 138.25 187.34 138.7 187.48 139.19 187.48 C 139.48 187.48 139.78 187.43 140.04 187.29 L 140.63 186.97 L 140.63 153.19 L 140.04 152.86 C 139.35 152.48 138.34 152.77 138.11 152.87 Z M 168.73 179.41 L 155.41 192.73 L 136.59 192.73 L 123.27 179.41 L 123.27 160.59 L 136.59 147.27 L 155.41 147.27 L 168.73 160.59 Z M 156.35 145 L 135.64 145 L 121 159.65 L 121 180.35 L 135.64 195 L 156.35 195 L 171 180.35 L 171 159.65 Z" fill="#8c4fff" stroke="none" pointer-events="all"/>
<g class="icon__label" fill="#232F3E" font-family="Helvetica" text-anchor="middle" font-size="12px"><text x="145.5" y="212.5">EIC Service</text></g>
<path class="arrow" d="M 51 170 L 114.63 170" fill="none" stroke="rgb(0, 0, 0)" stroke-miterlimit="10" pointer-events="stroke"/>
<path class="arrow" d="M 119.88 170 L 112.88 173.5 L 114.63 170 L 112.88 166.5 Z" fill="rgb(0, 0, 0)" stroke="rgb(0, 0, 0)" stroke-miterlimit="10" pointer-events="all"/>
<rect x="1" y="145" width="50" height="50" fill="none" stroke="none" pointer-events="all"/>
<path class="user" d="M 23.73 169.72 C 29.87 169.72 34.87 164.69 34.87 158.5 C 34.87 152.31 29.87 147.27 23.73 147.27 C 17.58 147.27 12.58 152.31 12.58 158.5 C 12.58 164.69 17.58 169.72 23.73 169.72 L 23.73 169.72 Z M 3.3 192.73 L 30.55 192.73 L 30.55 195 L 2.14 195 C 1.51 195 1 194.49 1 193.86 C 1 182.73 8.44 173.39 18.41 170.88 C 13.65 168.81 10.31 164.04 10.31 158.5 C 10.31 151.06 16.33 145 23.73 145 C 31.13 145 37.15 151.06 37.15 158.5 C 37.15 164.04 33.81 168.8 29.05 170.88 C 30.09 171.14 31.12 171.45 32.12 171.87 C 32.32 171.95 32.52 172.04 32.71 172.12 L 31.78 174.2 C 31.6 174.12 31.42 174.04 31.25 173.97 C 28.85 172.98 26.32 172.48 23.73 172.48 C 12.81 172.48 3.87 181.46 3.3 192.73 L 3.3 192.73 Z M 48.73 184.2 C 48.73 179.5 44.9 175.68 40.2 175.68 C 35.5 175.68 31.68 179.5 31.68 184.2 C 31.68 188.9 35.5 192.73 40.2 192.73 C 44.9 192.73 48.73 188.9 48.73 184.2 L 48.73 184.2 Z M 51 184.2 C 51 190.16 46.16 195 40.2 195 C 34.25 195 29.41 190.16 29.41 184.2 C 29.41 178.25 34.25 173.41 40.2 173.41 C 46.16 173.41 51 178.25 51 184.2 L 51 184.2 Z M 44.51 180.09 L 46.12 181.69 L 39.3 188.51 C 39.08 188.73 38.79 188.84 38.5 188.84 C 38.21 188.84 37.92 188.73 37.7 188.51 L 34.29 185.1 L 35.89 183.5 L 38.5 186.1 L 44.51 180.09 Z" fill="#232f3d" stroke="none" pointer-events="all"/>
<g class="icon__label" fill="#232F3E" font-family="Helvetica" text-anchor="middle" font-size="12px"><text x="25.5" y="212.5">SSH User</text></g>
<rect x="261" y="145" width="50" height="50" fill="none" stroke="none" pointer-events="all"/>
<path d="M 286 145 C 272.22 145 261 156.21 261 170 C 261 183.78 272.22 195 286 195 C 299.79 195 311 183.78 311 170 C 311 156.21 299.79 145 286 145 Z M 286 192.73 C 273.47 192.73 263.27 182.53 263.27 170 C 263.27 157.47 273.47 147.27 286 147.27 C 298.53 147.27 308.73 157.47 308.73 170 C 308.73 182.53 298.53 192.73 286 192.73 Z M 275.21 160.06 L 275.21 181.93 C 275.21 182.56 274.7 183.07 274.07 183.07 L 270.49 183.07 L 270.49 180.8 L 272.93 180.8 L 272.93 161.19 L 270.49 161.19 L 270.49 158.92 L 274.07 158.92 C 274.7 158.92 275.21 159.43 275.21 160.06 Z M 302.9 160.91 L 278.05 160.91 C 277.42 160.91 276.91 161.42 276.91 162.05 L 276.91 176.96 C 276.91 177.59 277.42 178.1 278.05 178.1 L 278.9 178.1 L 278.9 179.94 C 278.9 180.57 279.41 181.08 280.03 181.08 L 289.98 181.08 C 290.61 181.08 291.11 180.57 291.11 179.94 L 291.11 178.1 L 292.82 178.1 L 292.82 179.94 C 292.82 180.57 293.33 181.08 293.96 181.08 L 298.93 181.08 C 299.55 181.08 300.06 180.57 300.06 179.94 L 300.06 178.1 L 302.9 178.1 C 303.53 178.1 304.04 177.59 304.04 176.96 L 304.04 162.05 C 304.04 161.42 303.53 160.91 302.9 160.91 Z M 301.77 175.82 L 298.93 175.82 C 298.3 175.82 297.79 176.33 297.79 176.96 L 297.79 178.81 L 295.09 178.81 L 295.09 176.96 C 295.09 176.33 294.58 175.82 293.96 175.82 L 289.98 175.82 C 289.35 175.82 288.84 176.33 288.84 176.96 L 288.84 178.81 L 281.17 178.81 L 281.17 176.96 C 281.17 176.33 280.66 175.82 280.03 175.82 L 279.18 175.82 L 279.18 163.18 L 301.77 163.18 Z M 283.02 174.12 L 296.94 174.12 C 297.57 174.12 298.07 173.61 298.07 172.98 L 298.07 166.02 C 298.07 165.39 297.57 164.89 296.94 164.89 L 283.02 164.89 C 282.39 164.89 281.88 165.39 281.88 166.02 L 281.88 172.98 C 281.88 173.61 282.39 174.12 283.02 174.12 Z M 291.11 171.85 L 291.11 167.16 L 295.8 167.16 L 295.8 171.85 Z M 284.15 171.85 L 284.15 167.16 L 288.84 167.16 L 288.84 171.85 Z" fill="#8c4fff" stroke="none" pointer-events="all"/>
<g class="icon__label" fill="#232F3E" font-family="Helvetica" text-anchor="middle" font-size="12px"><text x="285.5" y="212.5">EIC Endpoint</text></g>
<path class="arrow" d="M 311 170 L 364.63 170" fill="none" stroke="rgb(0, 0, 0)" stroke-miterlimit="10" pointer-events="stroke"/>
<path class="arrow" d="M 369.88 170 L 362.88 173.5 L 364.63 170 L 362.88 166.5 Z" fill="rgb(0, 0, 0)" stroke="rgb(0, 0, 0)" stroke-miterlimit="10" pointer-events="all"/>
</g></svg>
